%TF.GenerationSoftware,KiCad,Pcbnew,5.1.9+dfsg1-1*%
%TF.CreationDate,2021-05-21T09:47:45+02:00*%
%TF.ProjectId,single_din_bottom_rev_a,73696e67-6c65-45f6-9469-6e5f626f7474,rev?*%
%TF.SameCoordinates,Original*%
%TF.FileFunction,Copper,L2,Bot*%
%TF.FilePolarity,Positive*%
%FSLAX46Y46*%
G04 Gerber Fmt 4.6, Leading zero omitted, Abs format (unit mm)*
G04 Created by KiCad (PCBNEW 5.1.9+dfsg1-1) date 2021-05-21 09:47:45*
%MOMM*%
%LPD*%
G01*
G04 APERTURE LIST*
%TA.AperFunction,ComponentPad*%
%ADD10O,1.700000X2.500000*%
%TD*%
%TA.AperFunction,ComponentPad*%
%ADD11R,1.700000X2.500000*%
%TD*%
%TA.AperFunction,ComponentPad*%
%ADD12O,1.700000X1.700000*%
%TD*%
%TA.AperFunction,ComponentPad*%
%ADD13R,1.700000X1.700000*%
%TD*%
%TA.AperFunction,ComponentPad*%
%ADD14C,1.600000*%
%TD*%
%TA.AperFunction,ComponentPad*%
%ADD15R,1.600000X1.600000*%
%TD*%
%TA.AperFunction,Conductor*%
%ADD16C,1.000000*%
%TD*%
%TA.AperFunction,Conductor*%
%ADD17C,0.254000*%
%TD*%
%TA.AperFunction,Conductor*%
%ADD18C,0.100000*%
%TD*%
G04 APERTURE END LIST*
%TO.P,R2,2*%
%TO.N,/Vin*%
%TA.AperFunction,SMDPad,CuDef*%
G36*
G01*
X95573900Y-172409699D02*
X95573900Y-173309701D01*
G75*
G02*
X95323901Y-173559700I-249999J0D01*
G01*
X94798899Y-173559700D01*
G75*
G02*
X94548900Y-173309701I0J249999D01*
G01*
X94548900Y-172409699D01*
G75*
G02*
X94798899Y-172159700I249999J0D01*
G01*
X95323901Y-172159700D01*
G75*
G02*
X95573900Y-172409699I0J-249999D01*
G01*
G37*
%TD.AperFunction*%
%TO.P,R2,1*%
%TO.N,/IO1*%
%TA.AperFunction,SMDPad,CuDef*%
G36*
G01*
X97398900Y-172409699D02*
X97398900Y-173309701D01*
G75*
G02*
X97148901Y-173559700I-249999J0D01*
G01*
X96623899Y-173559700D01*
G75*
G02*
X96373900Y-173309701I0J249999D01*
G01*
X96373900Y-172409699D01*
G75*
G02*
X96623899Y-172159700I249999J0D01*
G01*
X97148901Y-172159700D01*
G75*
G02*
X97398900Y-172409699I0J-249999D01*
G01*
G37*
%TD.AperFunction*%
%TD*%
%TO.P,R1,2*%
%TO.N,/Vout*%
%TA.AperFunction,SMDPad,CuDef*%
G36*
G01*
X95650100Y-168548899D02*
X95650100Y-169448901D01*
G75*
G02*
X95400101Y-169698900I-249999J0D01*
G01*
X94875099Y-169698900D01*
G75*
G02*
X94625100Y-169448901I0J249999D01*
G01*
X94625100Y-168548899D01*
G75*
G02*
X94875099Y-168298900I249999J0D01*
G01*
X95400101Y-168298900D01*
G75*
G02*
X95650100Y-168548899I0J-249999D01*
G01*
G37*
%TD.AperFunction*%
%TO.P,R1,1*%
%TO.N,/IO1*%
%TA.AperFunction,SMDPad,CuDef*%
G36*
G01*
X97475100Y-168548899D02*
X97475100Y-169448901D01*
G75*
G02*
X97225101Y-169698900I-249999J0D01*
G01*
X96700099Y-169698900D01*
G75*
G02*
X96450100Y-169448901I0J249999D01*
G01*
X96450100Y-168548899D01*
G75*
G02*
X96700099Y-168298900I249999J0D01*
G01*
X97225101Y-168298900D01*
G75*
G02*
X97475100Y-168548899I0J-249999D01*
G01*
G37*
%TD.AperFunction*%
%TD*%
D10*
%TO.P,U1,3*%
%TO.N,/Vout*%
X77139800Y-168554400D03*
%TO.P,U1,2*%
%TO.N,GND*%
X74599800Y-168554400D03*
D11*
%TO.P,U1,1*%
%TO.N,/Vin*%
X72059800Y-168554400D03*
%TD*%
D12*
%TO.P,J4,4*%
%TO.N,/IO4*%
X98806000Y-177596800D03*
%TO.P,J4,3*%
%TO.N,/IO3*%
X96266000Y-177596800D03*
%TO.P,J4,2*%
%TO.N,/IO2*%
X93726000Y-177596800D03*
D13*
%TO.P,J4,1*%
%TO.N,/IO1*%
X91186000Y-177596800D03*
%TD*%
D12*
%TO.P,J3,4*%
%TO.N,Net-(J1-Pad2)*%
X54711600Y-177495200D03*
%TO.P,J3,3*%
%TO.N,Net-(J1-Pad3)*%
X52171600Y-177495200D03*
%TO.P,J3,2*%
%TO.N,/Vout*%
X49631600Y-177495200D03*
D13*
%TO.P,J3,1*%
%TO.N,GND*%
X47091600Y-177495200D03*
%TD*%
D12*
%TO.P,J2,4*%
%TO.N,/IO4*%
X104724200Y-176631600D03*
%TO.P,J2,3*%
%TO.N,/IO3*%
X104724200Y-174091600D03*
%TO.P,J2,2*%
%TO.N,/IO2*%
X104724200Y-171551600D03*
D13*
%TO.P,J2,1*%
%TO.N,/IO1*%
X104724200Y-169011600D03*
%TD*%
D12*
%TO.P,J1,4*%
%TO.N,/Vin*%
X41402000Y-169240200D03*
%TO.P,J1,3*%
%TO.N,Net-(J1-Pad3)*%
X41402000Y-171780200D03*
%TO.P,J1,2*%
%TO.N,Net-(J1-Pad2)*%
X41402000Y-174320200D03*
D13*
%TO.P,J1,1*%
%TO.N,GND*%
X41402000Y-176860200D03*
%TD*%
D14*
%TO.P,C2,2*%
%TO.N,GND*%
X88504400Y-170205400D03*
D15*
%TO.P,C2,1*%
%TO.N,/Vout*%
X86004400Y-170205400D03*
%TD*%
D14*
%TO.P,C1,2*%
%TO.N,GND*%
X62240800Y-169875200D03*
D15*
%TO.P,C1,1*%
%TO.N,/Vin*%
X59740800Y-169875200D03*
%TD*%
D16*
%TO.N,/Vin*%
X72059800Y-170804400D02*
X72059800Y-168554400D01*
X74115100Y-172859700D02*
X72059800Y-170804400D01*
X95061400Y-172859700D02*
X74115100Y-172859700D01*
%TO.N,/Vout*%
X95137600Y-168998900D02*
X92481400Y-168998900D01*
X92481400Y-168998900D02*
X90906600Y-167424100D01*
X90906600Y-167424100D02*
X85420200Y-167424100D01*
X84289900Y-168554400D02*
X77139800Y-168554400D01*
X85420200Y-167424100D02*
X84289900Y-168554400D01*
%TO.N,Net-(J1-Pad2)*%
X41402000Y-174320200D02*
X54102000Y-174320200D01*
X54711600Y-174929800D02*
X54711600Y-177495200D01*
X54102000Y-174320200D02*
X54711600Y-174929800D01*
%TO.N,/IO1*%
X104711500Y-168998900D02*
X104724200Y-169011600D01*
X96886400Y-170232700D02*
X98120200Y-168998900D01*
X96886400Y-172859700D02*
X96886400Y-170232700D01*
X98120200Y-168998900D02*
X104711500Y-168998900D01*
X96962600Y-168998900D02*
X98120200Y-168998900D01*
%TD*%
D17*
%TO.N,GND*%
X70965620Y-166714898D02*
X70855306Y-166773863D01*
X70758615Y-166853215D01*
X70679263Y-166949906D01*
X70620298Y-167060220D01*
X70583988Y-167179918D01*
X70571728Y-167304400D01*
X70571728Y-169804400D01*
X70583988Y-169928882D01*
X70620298Y-170048580D01*
X70679263Y-170158894D01*
X70758615Y-170255585D01*
X70855306Y-170334937D01*
X70924800Y-170372083D01*
X70924800Y-170748648D01*
X70919309Y-170804400D01*
X70924800Y-170860151D01*
X70941223Y-171026898D01*
X71006124Y-171240846D01*
X71111516Y-171438023D01*
X71253351Y-171610849D01*
X71296665Y-171646396D01*
X73273109Y-173622841D01*
X73308651Y-173666149D01*
X73481477Y-173807984D01*
X73678653Y-173913376D01*
X73842805Y-173963171D01*
X73892600Y-173978277D01*
X74115099Y-174000191D01*
X74170851Y-173994700D01*
X94240439Y-173994700D01*
X94305513Y-174048105D01*
X94459049Y-174130172D01*
X94625645Y-174180708D01*
X94798899Y-174197772D01*
X95323901Y-174197772D01*
X95497155Y-174180708D01*
X95663751Y-174130172D01*
X95817287Y-174048105D01*
X95951862Y-173937662D01*
X95973900Y-173910809D01*
X95995938Y-173937662D01*
X96130513Y-174048105D01*
X96284049Y-174130172D01*
X96450645Y-174180708D01*
X96623899Y-174197772D01*
X97148901Y-174197772D01*
X97322155Y-174180708D01*
X97488751Y-174130172D01*
X97642287Y-174048105D01*
X97776862Y-173937662D01*
X97887305Y-173803087D01*
X97969372Y-173649551D01*
X98019908Y-173482955D01*
X98036972Y-173309701D01*
X98036972Y-172409699D01*
X98021400Y-172251594D01*
X98021400Y-170702832D01*
X98590332Y-170133900D01*
X103299729Y-170133900D01*
X103343663Y-170216094D01*
X103423015Y-170312785D01*
X103519706Y-170392137D01*
X103630020Y-170451102D01*
X103702580Y-170473113D01*
X103570725Y-170604968D01*
X103408210Y-170848189D01*
X103296268Y-171118442D01*
X103239200Y-171405340D01*
X103239200Y-171697860D01*
X103296268Y-171984758D01*
X103408210Y-172255011D01*
X103570725Y-172498232D01*
X103777568Y-172705075D01*
X103951960Y-172821600D01*
X103777568Y-172938125D01*
X103570725Y-173144968D01*
X103408210Y-173388189D01*
X103296268Y-173658442D01*
X103239200Y-173945340D01*
X103239200Y-174237860D01*
X103296268Y-174524758D01*
X103408210Y-174795011D01*
X103570725Y-175038232D01*
X103777568Y-175245075D01*
X103951960Y-175361600D01*
X103777568Y-175478125D01*
X103570725Y-175684968D01*
X103408210Y-175928189D01*
X103296268Y-176198442D01*
X103239200Y-176485340D01*
X103239200Y-176777860D01*
X103296268Y-177064758D01*
X103408210Y-177335011D01*
X103570725Y-177578232D01*
X103777568Y-177785075D01*
X104020789Y-177947590D01*
X104291042Y-178059532D01*
X104577940Y-178116600D01*
X104870460Y-178116600D01*
X105157358Y-178059532D01*
X105427611Y-177947590D01*
X105670832Y-177785075D01*
X105877675Y-177578232D01*
X106040190Y-177335011D01*
X106152132Y-177064758D01*
X106209200Y-176777860D01*
X106209200Y-176485340D01*
X106152132Y-176198442D01*
X106040190Y-175928189D01*
X105877675Y-175684968D01*
X105670832Y-175478125D01*
X105496440Y-175361600D01*
X105670832Y-175245075D01*
X105877675Y-175038232D01*
X106040190Y-174795011D01*
X106152132Y-174524758D01*
X106209200Y-174237860D01*
X106209200Y-173945340D01*
X106152132Y-173658442D01*
X106040190Y-173388189D01*
X105877675Y-173144968D01*
X105670832Y-172938125D01*
X105496440Y-172821600D01*
X105670832Y-172705075D01*
X105877675Y-172498232D01*
X106040190Y-172255011D01*
X106152132Y-171984758D01*
X106209200Y-171697860D01*
X106209200Y-171405340D01*
X106152132Y-171118442D01*
X106040190Y-170848189D01*
X105877675Y-170604968D01*
X105745820Y-170473113D01*
X105818380Y-170451102D01*
X105928694Y-170392137D01*
X106025385Y-170312785D01*
X106104737Y-170216094D01*
X106163702Y-170105780D01*
X106200012Y-169986082D01*
X106212272Y-169861600D01*
X106212272Y-168161600D01*
X106200012Y-168037118D01*
X106163702Y-167917420D01*
X106104737Y-167807106D01*
X106025385Y-167710415D01*
X105928694Y-167631063D01*
X105818380Y-167572098D01*
X105698682Y-167535788D01*
X105574200Y-167523528D01*
X103874200Y-167523528D01*
X103749718Y-167535788D01*
X103630020Y-167572098D01*
X103519706Y-167631063D01*
X103423015Y-167710415D01*
X103343663Y-167807106D01*
X103313305Y-167863900D01*
X98175952Y-167863900D01*
X98120200Y-167858409D01*
X98064448Y-167863900D01*
X97783561Y-167863900D01*
X97718487Y-167810495D01*
X97564951Y-167728428D01*
X97398355Y-167677892D01*
X97225101Y-167660828D01*
X96700099Y-167660828D01*
X96526845Y-167677892D01*
X96360249Y-167728428D01*
X96206713Y-167810495D01*
X96072138Y-167920938D01*
X96050100Y-167947791D01*
X96028062Y-167920938D01*
X95893487Y-167810495D01*
X95739951Y-167728428D01*
X95573355Y-167677892D01*
X95400101Y-167660828D01*
X94875099Y-167660828D01*
X94701845Y-167677892D01*
X94535249Y-167728428D01*
X94381713Y-167810495D01*
X94316639Y-167863900D01*
X92951533Y-167863900D01*
X91772631Y-166685000D01*
X115315000Y-166685000D01*
X115315001Y-179315000D01*
X30685000Y-179315000D01*
X30685000Y-177710200D01*
X39913928Y-177710200D01*
X39926188Y-177834682D01*
X39962498Y-177954380D01*
X40021463Y-178064694D01*
X40100815Y-178161385D01*
X40197506Y-178240737D01*
X40307820Y-178299702D01*
X40427518Y-178336012D01*
X40552000Y-178348272D01*
X41116250Y-178345200D01*
X41275000Y-178186450D01*
X41275000Y-176987200D01*
X41529000Y-176987200D01*
X41529000Y-178186450D01*
X41687750Y-178345200D01*
X42252000Y-178348272D01*
X42283191Y-178345200D01*
X45603528Y-178345200D01*
X45615788Y-178469682D01*
X45652098Y-178589380D01*
X45711063Y-178699694D01*
X45790415Y-178796385D01*
X45887106Y-178875737D01*
X45997420Y-178934702D01*
X46117118Y-178971012D01*
X46241600Y-178983272D01*
X46805850Y-178980200D01*
X46964600Y-178821450D01*
X46964600Y-177622200D01*
X45765350Y-177622200D01*
X45606600Y-177780950D01*
X45603528Y-178345200D01*
X42283191Y-178345200D01*
X42376482Y-178336012D01*
X42496180Y-178299702D01*
X42606494Y-178240737D01*
X42703185Y-178161385D01*
X42782537Y-178064694D01*
X42841502Y-177954380D01*
X42877812Y-177834682D01*
X42890072Y-177710200D01*
X42887000Y-177145950D01*
X42728250Y-176987200D01*
X41529000Y-176987200D01*
X41275000Y-176987200D01*
X40075750Y-176987200D01*
X39917000Y-177145950D01*
X39913928Y-177710200D01*
X30685000Y-177710200D01*
X30685000Y-176010200D01*
X39913928Y-176010200D01*
X39917000Y-176574450D01*
X40075750Y-176733200D01*
X41275000Y-176733200D01*
X41275000Y-176713200D01*
X41529000Y-176713200D01*
X41529000Y-176733200D01*
X42728250Y-176733200D01*
X42816250Y-176645200D01*
X45603528Y-176645200D01*
X45606600Y-177209450D01*
X45765350Y-177368200D01*
X46964600Y-177368200D01*
X46964600Y-176168950D01*
X46805850Y-176010200D01*
X46241600Y-176007128D01*
X46117118Y-176019388D01*
X45997420Y-176055698D01*
X45887106Y-176114663D01*
X45790415Y-176194015D01*
X45711063Y-176290706D01*
X45652098Y-176401020D01*
X45615788Y-176520718D01*
X45603528Y-176645200D01*
X42816250Y-176645200D01*
X42887000Y-176574450D01*
X42890072Y-176010200D01*
X42877812Y-175885718D01*
X42841502Y-175766020D01*
X42782537Y-175655706D01*
X42703185Y-175559015D01*
X42606494Y-175479663D01*
X42560728Y-175455200D01*
X53576600Y-175455200D01*
X53576601Y-176530092D01*
X53558125Y-176548568D01*
X53441600Y-176722960D01*
X53325075Y-176548568D01*
X53118232Y-176341725D01*
X52875011Y-176179210D01*
X52604758Y-176067268D01*
X52317860Y-176010200D01*
X52025340Y-176010200D01*
X51738442Y-176067268D01*
X51468189Y-176179210D01*
X51224968Y-176341725D01*
X51018125Y-176548568D01*
X50901600Y-176722960D01*
X50785075Y-176548568D01*
X50578232Y-176341725D01*
X50335011Y-176179210D01*
X50064758Y-176067268D01*
X49777860Y-176010200D01*
X49485340Y-176010200D01*
X49198442Y-176067268D01*
X48928189Y-176179210D01*
X48684968Y-176341725D01*
X48553113Y-176473580D01*
X48531102Y-176401020D01*
X48472137Y-176290706D01*
X48392785Y-176194015D01*
X48296094Y-176114663D01*
X48185780Y-176055698D01*
X48066082Y-176019388D01*
X47941600Y-176007128D01*
X47377350Y-176010200D01*
X47218600Y-176168950D01*
X47218600Y-177368200D01*
X47238600Y-177368200D01*
X47238600Y-177622200D01*
X47218600Y-177622200D01*
X47218600Y-178821450D01*
X47377350Y-178980200D01*
X47941600Y-178983272D01*
X48066082Y-178971012D01*
X48185780Y-178934702D01*
X48296094Y-178875737D01*
X48392785Y-178796385D01*
X48472137Y-178699694D01*
X48531102Y-178589380D01*
X48553113Y-178516820D01*
X48684968Y-178648675D01*
X48928189Y-178811190D01*
X49198442Y-178923132D01*
X49485340Y-178980200D01*
X49777860Y-178980200D01*
X50064758Y-178923132D01*
X50335011Y-178811190D01*
X50578232Y-178648675D01*
X50785075Y-178441832D01*
X50901600Y-178267440D01*
X51018125Y-178441832D01*
X51224968Y-178648675D01*
X51468189Y-178811190D01*
X51738442Y-178923132D01*
X52025340Y-178980200D01*
X52317860Y-178980200D01*
X52604758Y-178923132D01*
X52875011Y-178811190D01*
X53118232Y-178648675D01*
X53325075Y-178441832D01*
X53441600Y-178267440D01*
X53558125Y-178441832D01*
X53764968Y-178648675D01*
X54008189Y-178811190D01*
X54278442Y-178923132D01*
X54565340Y-178980200D01*
X54857860Y-178980200D01*
X55144758Y-178923132D01*
X55415011Y-178811190D01*
X55658232Y-178648675D01*
X55865075Y-178441832D01*
X56027590Y-178198611D01*
X56139532Y-177928358D01*
X56196600Y-177641460D01*
X56196600Y-177348940D01*
X56139532Y-177062042D01*
X56027590Y-176791789D01*
X55997530Y-176746800D01*
X89697928Y-176746800D01*
X89697928Y-178446800D01*
X89710188Y-178571282D01*
X89746498Y-178690980D01*
X89805463Y-178801294D01*
X89884815Y-178897985D01*
X89981506Y-178977337D01*
X90091820Y-179036302D01*
X90211518Y-179072612D01*
X90336000Y-179084872D01*
X92036000Y-179084872D01*
X92160482Y-179072612D01*
X92280180Y-179036302D01*
X92390494Y-178977337D01*
X92487185Y-178897985D01*
X92566537Y-178801294D01*
X92625502Y-178690980D01*
X92647513Y-178618420D01*
X92779368Y-178750275D01*
X93022589Y-178912790D01*
X93292842Y-179024732D01*
X93579740Y-179081800D01*
X93872260Y-179081800D01*
X94159158Y-179024732D01*
X94429411Y-178912790D01*
X94672632Y-178750275D01*
X94879475Y-178543432D01*
X94996000Y-178369040D01*
X95112525Y-178543432D01*
X95319368Y-178750275D01*
X95562589Y-178912790D01*
X95832842Y-179024732D01*
X96119740Y-179081800D01*
X96412260Y-179081800D01*
X96699158Y-179024732D01*
X96969411Y-178912790D01*
X97212632Y-178750275D01*
X97419475Y-178543432D01*
X97536000Y-178369040D01*
X97652525Y-178543432D01*
X97859368Y-178750275D01*
X98102589Y-178912790D01*
X98372842Y-179024732D01*
X98659740Y-179081800D01*
X98952260Y-179081800D01*
X99239158Y-179024732D01*
X99509411Y-178912790D01*
X99752632Y-178750275D01*
X99959475Y-178543432D01*
X100121990Y-178300211D01*
X100233932Y-178029958D01*
X100291000Y-177743060D01*
X100291000Y-177450540D01*
X100233932Y-177163642D01*
X100121990Y-176893389D01*
X99959475Y-176650168D01*
X99752632Y-176443325D01*
X99509411Y-176280810D01*
X99239158Y-176168868D01*
X98952260Y-176111800D01*
X98659740Y-176111800D01*
X98372842Y-176168868D01*
X98102589Y-176280810D01*
X97859368Y-176443325D01*
X97652525Y-176650168D01*
X97536000Y-176824560D01*
X97419475Y-176650168D01*
X97212632Y-176443325D01*
X96969411Y-176280810D01*
X96699158Y-176168868D01*
X96412260Y-176111800D01*
X96119740Y-176111800D01*
X95832842Y-176168868D01*
X95562589Y-176280810D01*
X95319368Y-176443325D01*
X95112525Y-176650168D01*
X94996000Y-176824560D01*
X94879475Y-176650168D01*
X94672632Y-176443325D01*
X94429411Y-176280810D01*
X94159158Y-176168868D01*
X93872260Y-176111800D01*
X93579740Y-176111800D01*
X93292842Y-176168868D01*
X93022589Y-176280810D01*
X92779368Y-176443325D01*
X92647513Y-176575180D01*
X92625502Y-176502620D01*
X92566537Y-176392306D01*
X92487185Y-176295615D01*
X92390494Y-176216263D01*
X92280180Y-176157298D01*
X92160482Y-176120988D01*
X92036000Y-176108728D01*
X90336000Y-176108728D01*
X90211518Y-176120988D01*
X90091820Y-176157298D01*
X89981506Y-176216263D01*
X89884815Y-176295615D01*
X89805463Y-176392306D01*
X89746498Y-176502620D01*
X89710188Y-176622318D01*
X89697928Y-176746800D01*
X55997530Y-176746800D01*
X55865075Y-176548568D01*
X55846600Y-176530093D01*
X55846600Y-174985552D01*
X55852091Y-174929800D01*
X55830177Y-174707301D01*
X55765276Y-174493353D01*
X55672724Y-174320200D01*
X55659884Y-174296177D01*
X55518049Y-174123351D01*
X55474740Y-174087808D01*
X54943995Y-173557064D01*
X54908449Y-173513751D01*
X54735623Y-173371916D01*
X54538447Y-173266524D01*
X54324499Y-173201623D01*
X54157752Y-173185200D01*
X54157751Y-173185200D01*
X54102000Y-173179709D01*
X54046249Y-173185200D01*
X42367107Y-173185200D01*
X42348632Y-173166725D01*
X42174240Y-173050200D01*
X42348632Y-172933675D01*
X42555475Y-172726832D01*
X42717990Y-172483611D01*
X42829932Y-172213358D01*
X42887000Y-171926460D01*
X42887000Y-171633940D01*
X42829932Y-171347042D01*
X42717990Y-171076789D01*
X42555475Y-170833568D01*
X42348632Y-170626725D01*
X42174240Y-170510200D01*
X42348632Y-170393675D01*
X42555475Y-170186832D01*
X42717990Y-169943611D01*
X42829932Y-169673358D01*
X42887000Y-169386460D01*
X42887000Y-169093940D01*
X42883273Y-169075200D01*
X58302728Y-169075200D01*
X58302728Y-170675200D01*
X58314988Y-170799682D01*
X58351298Y-170919380D01*
X58410263Y-171029694D01*
X58489615Y-171126385D01*
X58586306Y-171205737D01*
X58696620Y-171264702D01*
X58816318Y-171301012D01*
X58940800Y-171313272D01*
X60540800Y-171313272D01*
X60665282Y-171301012D01*
X60784980Y-171264702D01*
X60895294Y-171205737D01*
X60991985Y-171126385D01*
X61071337Y-171029694D01*
X61130302Y-170919380D01*
X61145917Y-170867902D01*
X61427703Y-170867902D01*
X61499286Y-171111871D01*
X61754796Y-171232771D01*
X62028984Y-171301500D01*
X62311312Y-171315417D01*
X62590930Y-171273987D01*
X62857092Y-171178803D01*
X62982314Y-171111871D01*
X63053897Y-170867902D01*
X62240800Y-170054805D01*
X61427703Y-170867902D01*
X61145917Y-170867902D01*
X61166612Y-170799682D01*
X61178872Y-170675200D01*
X61178872Y-170667985D01*
X61248098Y-170688297D01*
X62061195Y-169875200D01*
X62420405Y-169875200D01*
X63233502Y-170688297D01*
X63477471Y-170616714D01*
X63598371Y-170361204D01*
X63667100Y-170087016D01*
X63681017Y-169804688D01*
X63639587Y-169525070D01*
X63544403Y-169258908D01*
X63477471Y-169133686D01*
X63233502Y-169062103D01*
X62420405Y-169875200D01*
X62061195Y-169875200D01*
X61248098Y-169062103D01*
X61178872Y-169082415D01*
X61178872Y-169075200D01*
X61166612Y-168950718D01*
X61145918Y-168882498D01*
X61427703Y-168882498D01*
X62240800Y-169695595D01*
X63053897Y-168882498D01*
X62982314Y-168638529D01*
X62726804Y-168517629D01*
X62452616Y-168448900D01*
X62170288Y-168434983D01*
X61890670Y-168476413D01*
X61624508Y-168571597D01*
X61499286Y-168638529D01*
X61427703Y-168882498D01*
X61145918Y-168882498D01*
X61130302Y-168831020D01*
X61071337Y-168720706D01*
X60991985Y-168624015D01*
X60895294Y-168544663D01*
X60784980Y-168485698D01*
X60665282Y-168449388D01*
X60540800Y-168437128D01*
X58940800Y-168437128D01*
X58816318Y-168449388D01*
X58696620Y-168485698D01*
X58586306Y-168544663D01*
X58489615Y-168624015D01*
X58410263Y-168720706D01*
X58351298Y-168831020D01*
X58314988Y-168950718D01*
X58302728Y-169075200D01*
X42883273Y-169075200D01*
X42829932Y-168807042D01*
X42717990Y-168536789D01*
X42555475Y-168293568D01*
X42348632Y-168086725D01*
X42105411Y-167924210D01*
X41835158Y-167812268D01*
X41548260Y-167755200D01*
X41255740Y-167755200D01*
X40968842Y-167812268D01*
X40698589Y-167924210D01*
X40455368Y-168086725D01*
X40248525Y-168293568D01*
X40086010Y-168536789D01*
X39974068Y-168807042D01*
X39917000Y-169093940D01*
X39917000Y-169386460D01*
X39974068Y-169673358D01*
X40086010Y-169943611D01*
X40248525Y-170186832D01*
X40455368Y-170393675D01*
X40629760Y-170510200D01*
X40455368Y-170626725D01*
X40248525Y-170833568D01*
X40086010Y-171076789D01*
X39974068Y-171347042D01*
X39917000Y-171633940D01*
X39917000Y-171926460D01*
X39974068Y-172213358D01*
X40086010Y-172483611D01*
X40248525Y-172726832D01*
X40455368Y-172933675D01*
X40629760Y-173050200D01*
X40455368Y-173166725D01*
X40248525Y-173373568D01*
X40086010Y-173616789D01*
X39974068Y-173887042D01*
X39917000Y-174173940D01*
X39917000Y-174466460D01*
X39974068Y-174753358D01*
X40086010Y-175023611D01*
X40248525Y-175266832D01*
X40380380Y-175398687D01*
X40307820Y-175420698D01*
X40197506Y-175479663D01*
X40100815Y-175559015D01*
X40021463Y-175655706D01*
X39962498Y-175766020D01*
X39926188Y-175885718D01*
X39913928Y-176010200D01*
X30685000Y-176010200D01*
X30685000Y-166685000D01*
X71064180Y-166685000D01*
X70965620Y-166714898D01*
%TA.AperFunction,Conductor*%
D18*
G36*
X70965620Y-166714898D02*
G01*
X70855306Y-166773863D01*
X70758615Y-166853215D01*
X70679263Y-166949906D01*
X70620298Y-167060220D01*
X70583988Y-167179918D01*
X70571728Y-167304400D01*
X70571728Y-169804400D01*
X70583988Y-169928882D01*
X70620298Y-170048580D01*
X70679263Y-170158894D01*
X70758615Y-170255585D01*
X70855306Y-170334937D01*
X70924800Y-170372083D01*
X70924800Y-170748648D01*
X70919309Y-170804400D01*
X70924800Y-170860151D01*
X70941223Y-171026898D01*
X71006124Y-171240846D01*
X71111516Y-171438023D01*
X71253351Y-171610849D01*
X71296665Y-171646396D01*
X73273109Y-173622841D01*
X73308651Y-173666149D01*
X73481477Y-173807984D01*
X73678653Y-173913376D01*
X73842805Y-173963171D01*
X73892600Y-173978277D01*
X74115099Y-174000191D01*
X74170851Y-173994700D01*
X94240439Y-173994700D01*
X94305513Y-174048105D01*
X94459049Y-174130172D01*
X94625645Y-174180708D01*
X94798899Y-174197772D01*
X95323901Y-174197772D01*
X95497155Y-174180708D01*
X95663751Y-174130172D01*
X95817287Y-174048105D01*
X95951862Y-173937662D01*
X95973900Y-173910809D01*
X95995938Y-173937662D01*
X96130513Y-174048105D01*
X96284049Y-174130172D01*
X96450645Y-174180708D01*
X96623899Y-174197772D01*
X97148901Y-174197772D01*
X97322155Y-174180708D01*
X97488751Y-174130172D01*
X97642287Y-174048105D01*
X97776862Y-173937662D01*
X97887305Y-173803087D01*
X97969372Y-173649551D01*
X98019908Y-173482955D01*
X98036972Y-173309701D01*
X98036972Y-172409699D01*
X98021400Y-172251594D01*
X98021400Y-170702832D01*
X98590332Y-170133900D01*
X103299729Y-170133900D01*
X103343663Y-170216094D01*
X103423015Y-170312785D01*
X103519706Y-170392137D01*
X103630020Y-170451102D01*
X103702580Y-170473113D01*
X103570725Y-170604968D01*
X103408210Y-170848189D01*
X103296268Y-171118442D01*
X103239200Y-171405340D01*
X103239200Y-171697860D01*
X103296268Y-171984758D01*
X103408210Y-172255011D01*
X103570725Y-172498232D01*
X103777568Y-172705075D01*
X103951960Y-172821600D01*
X103777568Y-172938125D01*
X103570725Y-173144968D01*
X103408210Y-173388189D01*
X103296268Y-173658442D01*
X103239200Y-173945340D01*
X103239200Y-174237860D01*
X103296268Y-174524758D01*
X103408210Y-174795011D01*
X103570725Y-175038232D01*
X103777568Y-175245075D01*
X103951960Y-175361600D01*
X103777568Y-175478125D01*
X103570725Y-175684968D01*
X103408210Y-175928189D01*
X103296268Y-176198442D01*
X103239200Y-176485340D01*
X103239200Y-176777860D01*
X103296268Y-177064758D01*
X103408210Y-177335011D01*
X103570725Y-177578232D01*
X103777568Y-177785075D01*
X104020789Y-177947590D01*
X104291042Y-178059532D01*
X104577940Y-178116600D01*
X104870460Y-178116600D01*
X105157358Y-178059532D01*
X105427611Y-177947590D01*
X105670832Y-177785075D01*
X105877675Y-177578232D01*
X106040190Y-177335011D01*
X106152132Y-177064758D01*
X106209200Y-176777860D01*
X106209200Y-176485340D01*
X106152132Y-176198442D01*
X106040190Y-175928189D01*
X105877675Y-175684968D01*
X105670832Y-175478125D01*
X105496440Y-175361600D01*
X105670832Y-175245075D01*
X105877675Y-175038232D01*
X106040190Y-174795011D01*
X106152132Y-174524758D01*
X106209200Y-174237860D01*
X106209200Y-173945340D01*
X106152132Y-173658442D01*
X106040190Y-173388189D01*
X105877675Y-173144968D01*
X105670832Y-172938125D01*
X105496440Y-172821600D01*
X105670832Y-172705075D01*
X105877675Y-172498232D01*
X106040190Y-172255011D01*
X106152132Y-171984758D01*
X106209200Y-171697860D01*
X106209200Y-171405340D01*
X106152132Y-171118442D01*
X106040190Y-170848189D01*
X105877675Y-170604968D01*
X105745820Y-170473113D01*
X105818380Y-170451102D01*
X105928694Y-170392137D01*
X106025385Y-170312785D01*
X106104737Y-170216094D01*
X106163702Y-170105780D01*
X106200012Y-169986082D01*
X106212272Y-169861600D01*
X106212272Y-168161600D01*
X106200012Y-168037118D01*
X106163702Y-167917420D01*
X106104737Y-167807106D01*
X106025385Y-167710415D01*
X105928694Y-167631063D01*
X105818380Y-167572098D01*
X105698682Y-167535788D01*
X105574200Y-167523528D01*
X103874200Y-167523528D01*
X103749718Y-167535788D01*
X103630020Y-167572098D01*
X103519706Y-167631063D01*
X103423015Y-167710415D01*
X103343663Y-167807106D01*
X103313305Y-167863900D01*
X98175952Y-167863900D01*
X98120200Y-167858409D01*
X98064448Y-167863900D01*
X97783561Y-167863900D01*
X97718487Y-167810495D01*
X97564951Y-167728428D01*
X97398355Y-167677892D01*
X97225101Y-167660828D01*
X96700099Y-167660828D01*
X96526845Y-167677892D01*
X96360249Y-167728428D01*
X96206713Y-167810495D01*
X96072138Y-167920938D01*
X96050100Y-167947791D01*
X96028062Y-167920938D01*
X95893487Y-167810495D01*
X95739951Y-167728428D01*
X95573355Y-167677892D01*
X95400101Y-167660828D01*
X94875099Y-167660828D01*
X94701845Y-167677892D01*
X94535249Y-167728428D01*
X94381713Y-167810495D01*
X94316639Y-167863900D01*
X92951533Y-167863900D01*
X91772631Y-166685000D01*
X115315000Y-166685000D01*
X115315001Y-179315000D01*
X30685000Y-179315000D01*
X30685000Y-177710200D01*
X39913928Y-177710200D01*
X39926188Y-177834682D01*
X39962498Y-177954380D01*
X40021463Y-178064694D01*
X40100815Y-178161385D01*
X40197506Y-178240737D01*
X40307820Y-178299702D01*
X40427518Y-178336012D01*
X40552000Y-178348272D01*
X41116250Y-178345200D01*
X41275000Y-178186450D01*
X41275000Y-176987200D01*
X41529000Y-176987200D01*
X41529000Y-178186450D01*
X41687750Y-178345200D01*
X42252000Y-178348272D01*
X42283191Y-178345200D01*
X45603528Y-178345200D01*
X45615788Y-178469682D01*
X45652098Y-178589380D01*
X45711063Y-178699694D01*
X45790415Y-178796385D01*
X45887106Y-178875737D01*
X45997420Y-178934702D01*
X46117118Y-178971012D01*
X46241600Y-178983272D01*
X46805850Y-178980200D01*
X46964600Y-178821450D01*
X46964600Y-177622200D01*
X45765350Y-177622200D01*
X45606600Y-177780950D01*
X45603528Y-178345200D01*
X42283191Y-178345200D01*
X42376482Y-178336012D01*
X42496180Y-178299702D01*
X42606494Y-178240737D01*
X42703185Y-178161385D01*
X42782537Y-178064694D01*
X42841502Y-177954380D01*
X42877812Y-177834682D01*
X42890072Y-177710200D01*
X42887000Y-177145950D01*
X42728250Y-176987200D01*
X41529000Y-176987200D01*
X41275000Y-176987200D01*
X40075750Y-176987200D01*
X39917000Y-177145950D01*
X39913928Y-177710200D01*
X30685000Y-177710200D01*
X30685000Y-176010200D01*
X39913928Y-176010200D01*
X39917000Y-176574450D01*
X40075750Y-176733200D01*
X41275000Y-176733200D01*
X41275000Y-176713200D01*
X41529000Y-176713200D01*
X41529000Y-176733200D01*
X42728250Y-176733200D01*
X42816250Y-176645200D01*
X45603528Y-176645200D01*
X45606600Y-177209450D01*
X45765350Y-177368200D01*
X46964600Y-177368200D01*
X46964600Y-176168950D01*
X46805850Y-176010200D01*
X46241600Y-176007128D01*
X46117118Y-176019388D01*
X45997420Y-176055698D01*
X45887106Y-176114663D01*
X45790415Y-176194015D01*
X45711063Y-176290706D01*
X45652098Y-176401020D01*
X45615788Y-176520718D01*
X45603528Y-176645200D01*
X42816250Y-176645200D01*
X42887000Y-176574450D01*
X42890072Y-176010200D01*
X42877812Y-175885718D01*
X42841502Y-175766020D01*
X42782537Y-175655706D01*
X42703185Y-175559015D01*
X42606494Y-175479663D01*
X42560728Y-175455200D01*
X53576600Y-175455200D01*
X53576601Y-176530092D01*
X53558125Y-176548568D01*
X53441600Y-176722960D01*
X53325075Y-176548568D01*
X53118232Y-176341725D01*
X52875011Y-176179210D01*
X52604758Y-176067268D01*
X52317860Y-176010200D01*
X52025340Y-176010200D01*
X51738442Y-176067268D01*
X51468189Y-176179210D01*
X51224968Y-176341725D01*
X51018125Y-176548568D01*
X50901600Y-176722960D01*
X50785075Y-176548568D01*
X50578232Y-176341725D01*
X50335011Y-176179210D01*
X50064758Y-176067268D01*
X49777860Y-176010200D01*
X49485340Y-176010200D01*
X49198442Y-176067268D01*
X48928189Y-176179210D01*
X48684968Y-176341725D01*
X48553113Y-176473580D01*
X48531102Y-176401020D01*
X48472137Y-176290706D01*
X48392785Y-176194015D01*
X48296094Y-176114663D01*
X48185780Y-176055698D01*
X48066082Y-176019388D01*
X47941600Y-176007128D01*
X47377350Y-176010200D01*
X47218600Y-176168950D01*
X47218600Y-177368200D01*
X47238600Y-177368200D01*
X47238600Y-177622200D01*
X47218600Y-177622200D01*
X47218600Y-178821450D01*
X47377350Y-178980200D01*
X47941600Y-178983272D01*
X48066082Y-178971012D01*
X48185780Y-178934702D01*
X48296094Y-178875737D01*
X48392785Y-178796385D01*
X48472137Y-178699694D01*
X48531102Y-178589380D01*
X48553113Y-178516820D01*
X48684968Y-178648675D01*
X48928189Y-178811190D01*
X49198442Y-178923132D01*
X49485340Y-178980200D01*
X49777860Y-178980200D01*
X50064758Y-178923132D01*
X50335011Y-178811190D01*
X50578232Y-178648675D01*
X50785075Y-178441832D01*
X50901600Y-178267440D01*
X51018125Y-178441832D01*
X51224968Y-178648675D01*
X51468189Y-178811190D01*
X51738442Y-178923132D01*
X52025340Y-178980200D01*
X52317860Y-178980200D01*
X52604758Y-178923132D01*
X52875011Y-178811190D01*
X53118232Y-178648675D01*
X53325075Y-178441832D01*
X53441600Y-178267440D01*
X53558125Y-178441832D01*
X53764968Y-178648675D01*
X54008189Y-178811190D01*
X54278442Y-178923132D01*
X54565340Y-178980200D01*
X54857860Y-178980200D01*
X55144758Y-178923132D01*
X55415011Y-178811190D01*
X55658232Y-178648675D01*
X55865075Y-178441832D01*
X56027590Y-178198611D01*
X56139532Y-177928358D01*
X56196600Y-177641460D01*
X56196600Y-177348940D01*
X56139532Y-177062042D01*
X56027590Y-176791789D01*
X55997530Y-176746800D01*
X89697928Y-176746800D01*
X89697928Y-178446800D01*
X89710188Y-178571282D01*
X89746498Y-178690980D01*
X89805463Y-178801294D01*
X89884815Y-178897985D01*
X89981506Y-178977337D01*
X90091820Y-179036302D01*
X90211518Y-179072612D01*
X90336000Y-179084872D01*
X92036000Y-179084872D01*
X92160482Y-179072612D01*
X92280180Y-179036302D01*
X92390494Y-178977337D01*
X92487185Y-178897985D01*
X92566537Y-178801294D01*
X92625502Y-178690980D01*
X92647513Y-178618420D01*
X92779368Y-178750275D01*
X93022589Y-178912790D01*
X93292842Y-179024732D01*
X93579740Y-179081800D01*
X93872260Y-179081800D01*
X94159158Y-179024732D01*
X94429411Y-178912790D01*
X94672632Y-178750275D01*
X94879475Y-178543432D01*
X94996000Y-178369040D01*
X95112525Y-178543432D01*
X95319368Y-178750275D01*
X95562589Y-178912790D01*
X95832842Y-179024732D01*
X96119740Y-179081800D01*
X96412260Y-179081800D01*
X96699158Y-179024732D01*
X96969411Y-178912790D01*
X97212632Y-178750275D01*
X97419475Y-178543432D01*
X97536000Y-178369040D01*
X97652525Y-178543432D01*
X97859368Y-178750275D01*
X98102589Y-178912790D01*
X98372842Y-179024732D01*
X98659740Y-179081800D01*
X98952260Y-179081800D01*
X99239158Y-179024732D01*
X99509411Y-178912790D01*
X99752632Y-178750275D01*
X99959475Y-178543432D01*
X100121990Y-178300211D01*
X100233932Y-178029958D01*
X100291000Y-177743060D01*
X100291000Y-177450540D01*
X100233932Y-177163642D01*
X100121990Y-176893389D01*
X99959475Y-176650168D01*
X99752632Y-176443325D01*
X99509411Y-176280810D01*
X99239158Y-176168868D01*
X98952260Y-176111800D01*
X98659740Y-176111800D01*
X98372842Y-176168868D01*
X98102589Y-176280810D01*
X97859368Y-176443325D01*
X97652525Y-176650168D01*
X97536000Y-176824560D01*
X97419475Y-176650168D01*
X97212632Y-176443325D01*
X96969411Y-176280810D01*
X96699158Y-176168868D01*
X96412260Y-176111800D01*
X96119740Y-176111800D01*
X95832842Y-176168868D01*
X95562589Y-176280810D01*
X95319368Y-176443325D01*
X95112525Y-176650168D01*
X94996000Y-176824560D01*
X94879475Y-176650168D01*
X94672632Y-176443325D01*
X94429411Y-176280810D01*
X94159158Y-176168868D01*
X93872260Y-176111800D01*
X93579740Y-176111800D01*
X93292842Y-176168868D01*
X93022589Y-176280810D01*
X92779368Y-176443325D01*
X92647513Y-176575180D01*
X92625502Y-176502620D01*
X92566537Y-176392306D01*
X92487185Y-176295615D01*
X92390494Y-176216263D01*
X92280180Y-176157298D01*
X92160482Y-176120988D01*
X92036000Y-176108728D01*
X90336000Y-176108728D01*
X90211518Y-176120988D01*
X90091820Y-176157298D01*
X89981506Y-176216263D01*
X89884815Y-176295615D01*
X89805463Y-176392306D01*
X89746498Y-176502620D01*
X89710188Y-176622318D01*
X89697928Y-176746800D01*
X55997530Y-176746800D01*
X55865075Y-176548568D01*
X55846600Y-176530093D01*
X55846600Y-174985552D01*
X55852091Y-174929800D01*
X55830177Y-174707301D01*
X55765276Y-174493353D01*
X55672724Y-174320200D01*
X55659884Y-174296177D01*
X55518049Y-174123351D01*
X55474740Y-174087808D01*
X54943995Y-173557064D01*
X54908449Y-173513751D01*
X54735623Y-173371916D01*
X54538447Y-173266524D01*
X54324499Y-173201623D01*
X54157752Y-173185200D01*
X54157751Y-173185200D01*
X54102000Y-173179709D01*
X54046249Y-173185200D01*
X42367107Y-173185200D01*
X42348632Y-173166725D01*
X42174240Y-173050200D01*
X42348632Y-172933675D01*
X42555475Y-172726832D01*
X42717990Y-172483611D01*
X42829932Y-172213358D01*
X42887000Y-171926460D01*
X42887000Y-171633940D01*
X42829932Y-171347042D01*
X42717990Y-171076789D01*
X42555475Y-170833568D01*
X42348632Y-170626725D01*
X42174240Y-170510200D01*
X42348632Y-170393675D01*
X42555475Y-170186832D01*
X42717990Y-169943611D01*
X42829932Y-169673358D01*
X42887000Y-169386460D01*
X42887000Y-169093940D01*
X42883273Y-169075200D01*
X58302728Y-169075200D01*
X58302728Y-170675200D01*
X58314988Y-170799682D01*
X58351298Y-170919380D01*
X58410263Y-171029694D01*
X58489615Y-171126385D01*
X58586306Y-171205737D01*
X58696620Y-171264702D01*
X58816318Y-171301012D01*
X58940800Y-171313272D01*
X60540800Y-171313272D01*
X60665282Y-171301012D01*
X60784980Y-171264702D01*
X60895294Y-171205737D01*
X60991985Y-171126385D01*
X61071337Y-171029694D01*
X61130302Y-170919380D01*
X61145917Y-170867902D01*
X61427703Y-170867902D01*
X61499286Y-171111871D01*
X61754796Y-171232771D01*
X62028984Y-171301500D01*
X62311312Y-171315417D01*
X62590930Y-171273987D01*
X62857092Y-171178803D01*
X62982314Y-171111871D01*
X63053897Y-170867902D01*
X62240800Y-170054805D01*
X61427703Y-170867902D01*
X61145917Y-170867902D01*
X61166612Y-170799682D01*
X61178872Y-170675200D01*
X61178872Y-170667985D01*
X61248098Y-170688297D01*
X62061195Y-169875200D01*
X62420405Y-169875200D01*
X63233502Y-170688297D01*
X63477471Y-170616714D01*
X63598371Y-170361204D01*
X63667100Y-170087016D01*
X63681017Y-169804688D01*
X63639587Y-169525070D01*
X63544403Y-169258908D01*
X63477471Y-169133686D01*
X63233502Y-169062103D01*
X62420405Y-169875200D01*
X62061195Y-169875200D01*
X61248098Y-169062103D01*
X61178872Y-169082415D01*
X61178872Y-169075200D01*
X61166612Y-168950718D01*
X61145918Y-168882498D01*
X61427703Y-168882498D01*
X62240800Y-169695595D01*
X63053897Y-168882498D01*
X62982314Y-168638529D01*
X62726804Y-168517629D01*
X62452616Y-168448900D01*
X62170288Y-168434983D01*
X61890670Y-168476413D01*
X61624508Y-168571597D01*
X61499286Y-168638529D01*
X61427703Y-168882498D01*
X61145918Y-168882498D01*
X61130302Y-168831020D01*
X61071337Y-168720706D01*
X60991985Y-168624015D01*
X60895294Y-168544663D01*
X60784980Y-168485698D01*
X60665282Y-168449388D01*
X60540800Y-168437128D01*
X58940800Y-168437128D01*
X58816318Y-168449388D01*
X58696620Y-168485698D01*
X58586306Y-168544663D01*
X58489615Y-168624015D01*
X58410263Y-168720706D01*
X58351298Y-168831020D01*
X58314988Y-168950718D01*
X58302728Y-169075200D01*
X42883273Y-169075200D01*
X42829932Y-168807042D01*
X42717990Y-168536789D01*
X42555475Y-168293568D01*
X42348632Y-168086725D01*
X42105411Y-167924210D01*
X41835158Y-167812268D01*
X41548260Y-167755200D01*
X41255740Y-167755200D01*
X40968842Y-167812268D01*
X40698589Y-167924210D01*
X40455368Y-168086725D01*
X40248525Y-168293568D01*
X40086010Y-168536789D01*
X39974068Y-168807042D01*
X39917000Y-169093940D01*
X39917000Y-169386460D01*
X39974068Y-169673358D01*
X40086010Y-169943611D01*
X40248525Y-170186832D01*
X40455368Y-170393675D01*
X40629760Y-170510200D01*
X40455368Y-170626725D01*
X40248525Y-170833568D01*
X40086010Y-171076789D01*
X39974068Y-171347042D01*
X39917000Y-171633940D01*
X39917000Y-171926460D01*
X39974068Y-172213358D01*
X40086010Y-172483611D01*
X40248525Y-172726832D01*
X40455368Y-172933675D01*
X40629760Y-173050200D01*
X40455368Y-173166725D01*
X40248525Y-173373568D01*
X40086010Y-173616789D01*
X39974068Y-173887042D01*
X39917000Y-174173940D01*
X39917000Y-174466460D01*
X39974068Y-174753358D01*
X40086010Y-175023611D01*
X40248525Y-175266832D01*
X40380380Y-175398687D01*
X40307820Y-175420698D01*
X40197506Y-175479663D01*
X40100815Y-175559015D01*
X40021463Y-175655706D01*
X39962498Y-175766020D01*
X39926188Y-175885718D01*
X39913928Y-176010200D01*
X30685000Y-176010200D01*
X30685000Y-166685000D01*
X71064180Y-166685000D01*
X70965620Y-166714898D01*
G37*
%TD.AperFunction*%
D17*
X74726800Y-168427400D02*
X74746800Y-168427400D01*
X74746800Y-168681400D01*
X74726800Y-168681400D01*
X74726800Y-170274555D01*
X74956690Y-170395876D01*
X75050753Y-170374963D01*
X75319226Y-170259691D01*
X75560052Y-170094257D01*
X75763976Y-169885019D01*
X75867905Y-169725063D01*
X75899094Y-169783414D01*
X76084666Y-170009534D01*
X76310787Y-170195106D01*
X76568767Y-170332999D01*
X76848690Y-170417913D01*
X77139800Y-170446585D01*
X77430911Y-170417913D01*
X77710834Y-170332999D01*
X77968814Y-170195106D01*
X78194934Y-170009534D01*
X78380506Y-169783414D01*
X78430757Y-169689400D01*
X84234149Y-169689400D01*
X84289900Y-169694891D01*
X84345651Y-169689400D01*
X84345652Y-169689400D01*
X84512399Y-169672977D01*
X84566328Y-169656618D01*
X84566328Y-171005400D01*
X84578588Y-171129882D01*
X84614898Y-171249580D01*
X84673863Y-171359894D01*
X84753215Y-171456585D01*
X84849906Y-171535937D01*
X84960220Y-171594902D01*
X85079918Y-171631212D01*
X85204400Y-171643472D01*
X86804400Y-171643472D01*
X86928882Y-171631212D01*
X87048580Y-171594902D01*
X87158894Y-171535937D01*
X87255585Y-171456585D01*
X87334937Y-171359894D01*
X87393902Y-171249580D01*
X87409517Y-171198102D01*
X87691303Y-171198102D01*
X87762886Y-171442071D01*
X88018396Y-171562971D01*
X88292584Y-171631700D01*
X88574912Y-171645617D01*
X88854530Y-171604187D01*
X89120692Y-171509003D01*
X89245914Y-171442071D01*
X89317497Y-171198102D01*
X88504400Y-170385005D01*
X87691303Y-171198102D01*
X87409517Y-171198102D01*
X87430212Y-171129882D01*
X87442472Y-171005400D01*
X87442472Y-170998185D01*
X87511698Y-171018497D01*
X88324795Y-170205400D01*
X88684005Y-170205400D01*
X89497102Y-171018497D01*
X89741071Y-170946914D01*
X89861971Y-170691404D01*
X89930700Y-170417216D01*
X89944617Y-170134888D01*
X89903187Y-169855270D01*
X89808003Y-169589108D01*
X89741071Y-169463886D01*
X89497102Y-169392303D01*
X88684005Y-170205400D01*
X88324795Y-170205400D01*
X87511698Y-169392303D01*
X87442472Y-169412615D01*
X87442472Y-169405400D01*
X87430212Y-169280918D01*
X87409518Y-169212698D01*
X87691303Y-169212698D01*
X88504400Y-170025795D01*
X89317497Y-169212698D01*
X89245914Y-168968729D01*
X88990404Y-168847829D01*
X88716216Y-168779100D01*
X88433888Y-168765183D01*
X88154270Y-168806613D01*
X87888108Y-168901797D01*
X87762886Y-168968729D01*
X87691303Y-169212698D01*
X87409518Y-169212698D01*
X87393902Y-169161220D01*
X87334937Y-169050906D01*
X87255585Y-168954215D01*
X87158894Y-168874863D01*
X87048580Y-168815898D01*
X86928882Y-168779588D01*
X86804400Y-168767328D01*
X85682104Y-168767328D01*
X85890332Y-168559100D01*
X90436469Y-168559100D01*
X91639411Y-169762044D01*
X91674951Y-169805349D01*
X91718254Y-169840887D01*
X91718256Y-169840889D01*
X91760064Y-169875200D01*
X91847777Y-169947184D01*
X92044953Y-170052576D01*
X92258901Y-170117477D01*
X92387848Y-170130177D01*
X92481400Y-170139391D01*
X92537152Y-170133900D01*
X94316639Y-170133900D01*
X94381713Y-170187305D01*
X94535249Y-170269372D01*
X94701845Y-170319908D01*
X94875099Y-170336972D01*
X95400101Y-170336972D01*
X95573355Y-170319908D01*
X95739951Y-170269372D01*
X95749042Y-170264513D01*
X95751401Y-170288461D01*
X95751400Y-171636078D01*
X95663751Y-171589228D01*
X95497155Y-171538692D01*
X95323901Y-171521628D01*
X94798899Y-171521628D01*
X94625645Y-171538692D01*
X94459049Y-171589228D01*
X94305513Y-171671295D01*
X94240439Y-171724700D01*
X74585232Y-171724700D01*
X73219442Y-170358911D01*
X73264294Y-170334937D01*
X73360985Y-170255585D01*
X73440337Y-170158894D01*
X73499302Y-170048580D01*
X73522025Y-169973672D01*
X73639548Y-170094257D01*
X73880374Y-170259691D01*
X74148847Y-170374963D01*
X74242910Y-170395876D01*
X74472800Y-170274555D01*
X74472800Y-168681400D01*
X74452800Y-168681400D01*
X74452800Y-168427400D01*
X74472800Y-168427400D01*
X74472800Y-168407400D01*
X74726800Y-168407400D01*
X74726800Y-168427400D01*
%TA.AperFunction,Conductor*%
D18*
G36*
X74726800Y-168427400D02*
G01*
X74746800Y-168427400D01*
X74746800Y-168681400D01*
X74726800Y-168681400D01*
X74726800Y-170274555D01*
X74956690Y-170395876D01*
X75050753Y-170374963D01*
X75319226Y-170259691D01*
X75560052Y-170094257D01*
X75763976Y-169885019D01*
X75867905Y-169725063D01*
X75899094Y-169783414D01*
X76084666Y-170009534D01*
X76310787Y-170195106D01*
X76568767Y-170332999D01*
X76848690Y-170417913D01*
X77139800Y-170446585D01*
X77430911Y-170417913D01*
X77710834Y-170332999D01*
X77968814Y-170195106D01*
X78194934Y-170009534D01*
X78380506Y-169783414D01*
X78430757Y-169689400D01*
X84234149Y-169689400D01*
X84289900Y-169694891D01*
X84345651Y-169689400D01*
X84345652Y-169689400D01*
X84512399Y-169672977D01*
X84566328Y-169656618D01*
X84566328Y-171005400D01*
X84578588Y-171129882D01*
X84614898Y-171249580D01*
X84673863Y-171359894D01*
X84753215Y-171456585D01*
X84849906Y-171535937D01*
X84960220Y-171594902D01*
X85079918Y-171631212D01*
X85204400Y-171643472D01*
X86804400Y-171643472D01*
X86928882Y-171631212D01*
X87048580Y-171594902D01*
X87158894Y-171535937D01*
X87255585Y-171456585D01*
X87334937Y-171359894D01*
X87393902Y-171249580D01*
X87409517Y-171198102D01*
X87691303Y-171198102D01*
X87762886Y-171442071D01*
X88018396Y-171562971D01*
X88292584Y-171631700D01*
X88574912Y-171645617D01*
X88854530Y-171604187D01*
X89120692Y-171509003D01*
X89245914Y-171442071D01*
X89317497Y-171198102D01*
X88504400Y-170385005D01*
X87691303Y-171198102D01*
X87409517Y-171198102D01*
X87430212Y-171129882D01*
X87442472Y-171005400D01*
X87442472Y-170998185D01*
X87511698Y-171018497D01*
X88324795Y-170205400D01*
X88684005Y-170205400D01*
X89497102Y-171018497D01*
X89741071Y-170946914D01*
X89861971Y-170691404D01*
X89930700Y-170417216D01*
X89944617Y-170134888D01*
X89903187Y-169855270D01*
X89808003Y-169589108D01*
X89741071Y-169463886D01*
X89497102Y-169392303D01*
X88684005Y-170205400D01*
X88324795Y-170205400D01*
X87511698Y-169392303D01*
X87442472Y-169412615D01*
X87442472Y-169405400D01*
X87430212Y-169280918D01*
X87409518Y-169212698D01*
X87691303Y-169212698D01*
X88504400Y-170025795D01*
X89317497Y-169212698D01*
X89245914Y-168968729D01*
X88990404Y-168847829D01*
X88716216Y-168779100D01*
X88433888Y-168765183D01*
X88154270Y-168806613D01*
X87888108Y-168901797D01*
X87762886Y-168968729D01*
X87691303Y-169212698D01*
X87409518Y-169212698D01*
X87393902Y-169161220D01*
X87334937Y-169050906D01*
X87255585Y-168954215D01*
X87158894Y-168874863D01*
X87048580Y-168815898D01*
X86928882Y-168779588D01*
X86804400Y-168767328D01*
X85682104Y-168767328D01*
X85890332Y-168559100D01*
X90436469Y-168559100D01*
X91639411Y-169762044D01*
X91674951Y-169805349D01*
X91718254Y-169840887D01*
X91718256Y-169840889D01*
X91760064Y-169875200D01*
X91847777Y-169947184D01*
X92044953Y-170052576D01*
X92258901Y-170117477D01*
X92387848Y-170130177D01*
X92481400Y-170139391D01*
X92537152Y-170133900D01*
X94316639Y-170133900D01*
X94381713Y-170187305D01*
X94535249Y-170269372D01*
X94701845Y-170319908D01*
X94875099Y-170336972D01*
X95400101Y-170336972D01*
X95573355Y-170319908D01*
X95739951Y-170269372D01*
X95749042Y-170264513D01*
X95751401Y-170288461D01*
X95751400Y-171636078D01*
X95663751Y-171589228D01*
X95497155Y-171538692D01*
X95323901Y-171521628D01*
X94798899Y-171521628D01*
X94625645Y-171538692D01*
X94459049Y-171589228D01*
X94305513Y-171671295D01*
X94240439Y-171724700D01*
X74585232Y-171724700D01*
X73219442Y-170358911D01*
X73264294Y-170334937D01*
X73360985Y-170255585D01*
X73440337Y-170158894D01*
X73499302Y-170048580D01*
X73522025Y-169973672D01*
X73639548Y-170094257D01*
X73880374Y-170259691D01*
X74148847Y-170374963D01*
X74242910Y-170395876D01*
X74472800Y-170274555D01*
X74472800Y-168681400D01*
X74452800Y-168681400D01*
X74452800Y-168427400D01*
X74472800Y-168427400D01*
X74472800Y-168407400D01*
X74726800Y-168407400D01*
X74726800Y-168427400D01*
G37*
%TD.AperFunction*%
%TD*%
M02*
