%TF.GenerationSoftware,KiCad,Pcbnew,5.1.9+dfsg1-1*%
%TF.CreationDate,2021-05-25T15:49:57+02:00*%
%TF.ProjectId,single_din_bottom_rev_a,73696e67-6c65-45f6-9469-6e5f626f7474,rev?*%
%TF.SameCoordinates,Original*%
%TF.FileFunction,Copper,L2,Bot*%
%TF.FilePolarity,Positive*%
%FSLAX46Y46*%
G04 Gerber Fmt 4.6, Leading zero omitted, Abs format (unit mm)*
G04 Created by KiCad (PCBNEW 5.1.9+dfsg1-1) date 2021-05-25 15:49:57*
%MOMM*%
%LPD*%
G01*
G04 APERTURE LIST*
%TA.AperFunction,ComponentPad*%
%ADD10O,1.700000X1.700000*%
%TD*%
%TA.AperFunction,ComponentPad*%
%ADD11R,1.700000X1.700000*%
%TD*%
%TA.AperFunction,ComponentPad*%
%ADD12O,1.700000X2.500000*%
%TD*%
%TA.AperFunction,ComponentPad*%
%ADD13R,1.700000X2.500000*%
%TD*%
%TA.AperFunction,ComponentPad*%
%ADD14C,1.600000*%
%TD*%
%TA.AperFunction,ComponentPad*%
%ADD15R,1.600000X1.600000*%
%TD*%
%TA.AperFunction,Conductor*%
%ADD16C,1.000000*%
%TD*%
%TA.AperFunction,Conductor*%
%ADD17C,0.250000*%
%TD*%
%TA.AperFunction,Conductor*%
%ADD18C,0.254000*%
%TD*%
%TA.AperFunction,Conductor*%
%ADD19C,0.100000*%
%TD*%
G04 APERTURE END LIST*
D10*
%TO.P,J4,4*%
%TO.N,/IO4*%
X100920000Y-178200000D03*
%TO.P,J4,3*%
%TO.N,/IO3*%
X98380000Y-178200000D03*
%TO.P,J4,2*%
%TO.N,/IO2*%
X95840000Y-178200000D03*
D11*
%TO.P,J4,1*%
%TO.N,/IO1*%
X93300000Y-178200000D03*
%TD*%
%TO.P,R2,2*%
%TO.N,/Vin*%
%TA.AperFunction,SMDPad,CuDef*%
G36*
G01*
X95573900Y-172409698D02*
X95573900Y-173309702D01*
G75*
G02*
X95323902Y-173559700I-249998J0D01*
G01*
X94798898Y-173559700D01*
G75*
G02*
X94548900Y-173309702I0J249998D01*
G01*
X94548900Y-172409698D01*
G75*
G02*
X94798898Y-172159700I249998J0D01*
G01*
X95323902Y-172159700D01*
G75*
G02*
X95573900Y-172409698I0J-249998D01*
G01*
G37*
%TD.AperFunction*%
%TO.P,R2,1*%
%TO.N,/IO1*%
%TA.AperFunction,SMDPad,CuDef*%
G36*
G01*
X97398900Y-172409698D02*
X97398900Y-173309702D01*
G75*
G02*
X97148902Y-173559700I-249998J0D01*
G01*
X96623898Y-173559700D01*
G75*
G02*
X96373900Y-173309702I0J249998D01*
G01*
X96373900Y-172409698D01*
G75*
G02*
X96623898Y-172159700I249998J0D01*
G01*
X97148902Y-172159700D01*
G75*
G02*
X97398900Y-172409698I0J-249998D01*
G01*
G37*
%TD.AperFunction*%
%TD*%
%TO.P,R1,2*%
%TO.N,/Vout*%
%TA.AperFunction,SMDPad,CuDef*%
G36*
G01*
X95650100Y-168548898D02*
X95650100Y-169448902D01*
G75*
G02*
X95400102Y-169698900I-249998J0D01*
G01*
X94875098Y-169698900D01*
G75*
G02*
X94625100Y-169448902I0J249998D01*
G01*
X94625100Y-168548898D01*
G75*
G02*
X94875098Y-168298900I249998J0D01*
G01*
X95400102Y-168298900D01*
G75*
G02*
X95650100Y-168548898I0J-249998D01*
G01*
G37*
%TD.AperFunction*%
%TO.P,R1,1*%
%TO.N,/IO1*%
%TA.AperFunction,SMDPad,CuDef*%
G36*
G01*
X97475100Y-168548898D02*
X97475100Y-169448902D01*
G75*
G02*
X97225102Y-169698900I-249998J0D01*
G01*
X96700098Y-169698900D01*
G75*
G02*
X96450100Y-169448902I0J249998D01*
G01*
X96450100Y-168548898D01*
G75*
G02*
X96700098Y-168298900I249998J0D01*
G01*
X97225102Y-168298900D01*
G75*
G02*
X97475100Y-168548898I0J-249998D01*
G01*
G37*
%TD.AperFunction*%
%TD*%
D12*
%TO.P,U1,3*%
%TO.N,/Vout*%
X77139800Y-168554400D03*
%TO.P,U1,2*%
%TO.N,GND*%
X74599800Y-168554400D03*
D13*
%TO.P,U1,1*%
%TO.N,/Vin*%
X72059800Y-168554400D03*
%TD*%
D10*
%TO.P,J3,4*%
%TO.N,Net-(J1-Pad2)*%
X52820000Y-178200000D03*
%TO.P,J3,3*%
%TO.N,Net-(J1-Pad3)*%
X50280000Y-178200000D03*
%TO.P,J3,2*%
%TO.N,/Vout*%
X47740000Y-178200000D03*
D11*
%TO.P,J3,1*%
%TO.N,GND*%
X45200000Y-178200000D03*
%TD*%
D10*
%TO.P,J2,4*%
%TO.N,/IO4*%
X104724200Y-176631600D03*
%TO.P,J2,3*%
%TO.N,/IO3*%
X104724200Y-174091600D03*
%TO.P,J2,2*%
%TO.N,/IO2*%
X104724200Y-171551600D03*
D11*
%TO.P,J2,1*%
%TO.N,/IO1*%
X104724200Y-169011600D03*
%TD*%
D10*
%TO.P,J1,4*%
%TO.N,/Vin*%
X41402000Y-169240200D03*
%TO.P,J1,3*%
%TO.N,Net-(J1-Pad3)*%
X41402000Y-171780200D03*
%TO.P,J1,2*%
%TO.N,Net-(J1-Pad2)*%
X41402000Y-174320200D03*
D11*
%TO.P,J1,1*%
%TO.N,GND*%
X41402000Y-176860200D03*
%TD*%
D14*
%TO.P,C2,2*%
%TO.N,GND*%
X88504400Y-170205400D03*
D15*
%TO.P,C2,1*%
%TO.N,/Vout*%
X86004400Y-170205400D03*
%TD*%
D14*
%TO.P,C1,2*%
%TO.N,GND*%
X62240800Y-169875200D03*
D15*
%TO.P,C1,1*%
%TO.N,/Vin*%
X59740800Y-169875200D03*
%TD*%
D16*
%TO.N,/Vin*%
X72059800Y-170804400D02*
X72059800Y-168554400D01*
X74115100Y-172859700D02*
X72059800Y-170804400D01*
X95061400Y-172859700D02*
X74115100Y-172859700D01*
%TO.N,/Vout*%
X95137600Y-168998900D02*
X92481400Y-168998900D01*
X92481400Y-168998900D02*
X90906600Y-167424100D01*
X90906600Y-167424100D02*
X85420200Y-167424100D01*
X84289900Y-168554400D02*
X77139800Y-168554400D01*
X85420200Y-167424100D02*
X84289900Y-168554400D01*
D17*
%TO.N,Net-(J1-Pad3)*%
X49104999Y-177024999D02*
X50280000Y-178200000D01*
X44089999Y-177024999D02*
X49104999Y-177024999D01*
X43079797Y-178035201D02*
X44089999Y-177024999D01*
X40291999Y-178035201D02*
X43079797Y-178035201D01*
X40226999Y-177970201D02*
X40291999Y-178035201D01*
X40226999Y-172955201D02*
X40226999Y-177970201D01*
X41402000Y-171780200D02*
X40226999Y-172955201D01*
%TO.N,Net-(J1-Pad2)*%
X41402000Y-174320200D02*
X51384200Y-174320200D01*
X52820000Y-175756000D02*
X52820000Y-178200000D01*
X51384200Y-174320200D02*
X52820000Y-175756000D01*
D16*
%TO.N,/IO1*%
X104711500Y-168998900D02*
X104724200Y-169011600D01*
X96886400Y-170232700D02*
X98120200Y-168998900D01*
X96886400Y-172859700D02*
X96886400Y-170232700D01*
X98120200Y-168998900D02*
X104711500Y-168998900D01*
X96962600Y-168998900D02*
X98120200Y-168998900D01*
%TD*%
D18*
%TO.N,GND*%
X70965620Y-166714898D02*
X70855306Y-166773863D01*
X70758615Y-166853215D01*
X70679263Y-166949906D01*
X70620298Y-167060220D01*
X70583988Y-167179918D01*
X70571728Y-167304400D01*
X70571728Y-169804400D01*
X70583988Y-169928882D01*
X70620298Y-170048580D01*
X70679263Y-170158894D01*
X70758615Y-170255585D01*
X70855306Y-170334937D01*
X70924800Y-170372083D01*
X70924800Y-170748648D01*
X70919309Y-170804400D01*
X70924800Y-170860151D01*
X70941223Y-171026898D01*
X71006124Y-171240846D01*
X71111516Y-171438023D01*
X71253351Y-171610849D01*
X71296665Y-171646396D01*
X73273109Y-173622841D01*
X73308651Y-173666149D01*
X73481477Y-173807984D01*
X73678653Y-173913376D01*
X73842805Y-173963171D01*
X73892600Y-173978277D01*
X74115099Y-174000191D01*
X74170851Y-173994700D01*
X94240439Y-173994700D01*
X94305513Y-174048105D01*
X94459048Y-174130172D01*
X94625644Y-174180708D01*
X94798898Y-174197772D01*
X95323902Y-174197772D01*
X95497156Y-174180708D01*
X95663752Y-174130172D01*
X95817287Y-174048105D01*
X95951862Y-173937662D01*
X95973900Y-173910809D01*
X95995938Y-173937662D01*
X96130513Y-174048105D01*
X96284048Y-174130172D01*
X96450644Y-174180708D01*
X96623898Y-174197772D01*
X97148902Y-174197772D01*
X97322156Y-174180708D01*
X97488752Y-174130172D01*
X97642287Y-174048105D01*
X97776862Y-173937662D01*
X97887305Y-173803087D01*
X97969372Y-173649552D01*
X98019908Y-173482956D01*
X98036972Y-173309702D01*
X98036972Y-172409698D01*
X98021400Y-172251593D01*
X98021400Y-170702832D01*
X98590332Y-170133900D01*
X103299729Y-170133900D01*
X103343663Y-170216094D01*
X103423015Y-170312785D01*
X103519706Y-170392137D01*
X103630020Y-170451102D01*
X103702580Y-170473113D01*
X103570725Y-170604968D01*
X103408210Y-170848189D01*
X103296268Y-171118442D01*
X103239200Y-171405340D01*
X103239200Y-171697860D01*
X103296268Y-171984758D01*
X103408210Y-172255011D01*
X103570725Y-172498232D01*
X103777568Y-172705075D01*
X103951960Y-172821600D01*
X103777568Y-172938125D01*
X103570725Y-173144968D01*
X103408210Y-173388189D01*
X103296268Y-173658442D01*
X103239200Y-173945340D01*
X103239200Y-174237860D01*
X103296268Y-174524758D01*
X103408210Y-174795011D01*
X103570725Y-175038232D01*
X103777568Y-175245075D01*
X103951960Y-175361600D01*
X103777568Y-175478125D01*
X103570725Y-175684968D01*
X103408210Y-175928189D01*
X103296268Y-176198442D01*
X103239200Y-176485340D01*
X103239200Y-176777860D01*
X103296268Y-177064758D01*
X103408210Y-177335011D01*
X103570725Y-177578232D01*
X103777568Y-177785075D01*
X104020789Y-177947590D01*
X104291042Y-178059532D01*
X104577940Y-178116600D01*
X104870460Y-178116600D01*
X105157358Y-178059532D01*
X105427611Y-177947590D01*
X105670832Y-177785075D01*
X105877675Y-177578232D01*
X106040190Y-177335011D01*
X106152132Y-177064758D01*
X106209200Y-176777860D01*
X106209200Y-176485340D01*
X106152132Y-176198442D01*
X106040190Y-175928189D01*
X105877675Y-175684968D01*
X105670832Y-175478125D01*
X105496440Y-175361600D01*
X105670832Y-175245075D01*
X105877675Y-175038232D01*
X106040190Y-174795011D01*
X106152132Y-174524758D01*
X106209200Y-174237860D01*
X106209200Y-173945340D01*
X106152132Y-173658442D01*
X106040190Y-173388189D01*
X105877675Y-173144968D01*
X105670832Y-172938125D01*
X105496440Y-172821600D01*
X105670832Y-172705075D01*
X105877675Y-172498232D01*
X106040190Y-172255011D01*
X106152132Y-171984758D01*
X106209200Y-171697860D01*
X106209200Y-171405340D01*
X106152132Y-171118442D01*
X106040190Y-170848189D01*
X105877675Y-170604968D01*
X105745820Y-170473113D01*
X105818380Y-170451102D01*
X105928694Y-170392137D01*
X106025385Y-170312785D01*
X106104737Y-170216094D01*
X106163702Y-170105780D01*
X106200012Y-169986082D01*
X106212272Y-169861600D01*
X106212272Y-168161600D01*
X106200012Y-168037118D01*
X106163702Y-167917420D01*
X106104737Y-167807106D01*
X106025385Y-167710415D01*
X105928694Y-167631063D01*
X105818380Y-167572098D01*
X105698682Y-167535788D01*
X105574200Y-167523528D01*
X103874200Y-167523528D01*
X103749718Y-167535788D01*
X103630020Y-167572098D01*
X103519706Y-167631063D01*
X103423015Y-167710415D01*
X103343663Y-167807106D01*
X103313305Y-167863900D01*
X98175952Y-167863900D01*
X98120200Y-167858409D01*
X98064448Y-167863900D01*
X97783561Y-167863900D01*
X97718487Y-167810495D01*
X97564952Y-167728428D01*
X97398356Y-167677892D01*
X97225102Y-167660828D01*
X96700098Y-167660828D01*
X96526844Y-167677892D01*
X96360248Y-167728428D01*
X96206713Y-167810495D01*
X96072138Y-167920938D01*
X96050100Y-167947791D01*
X96028062Y-167920938D01*
X95893487Y-167810495D01*
X95739952Y-167728428D01*
X95573356Y-167677892D01*
X95400102Y-167660828D01*
X94875098Y-167660828D01*
X94701844Y-167677892D01*
X94535248Y-167728428D01*
X94381713Y-167810495D01*
X94316639Y-167863900D01*
X92951533Y-167863900D01*
X91772631Y-166685000D01*
X115315000Y-166685000D01*
X115315001Y-179315000D01*
X101905107Y-179315000D01*
X102073475Y-179146632D01*
X102235990Y-178903411D01*
X102347932Y-178633158D01*
X102405000Y-178346260D01*
X102405000Y-178053740D01*
X102347932Y-177766842D01*
X102235990Y-177496589D01*
X102073475Y-177253368D01*
X101866632Y-177046525D01*
X101623411Y-176884010D01*
X101353158Y-176772068D01*
X101066260Y-176715000D01*
X100773740Y-176715000D01*
X100486842Y-176772068D01*
X100216589Y-176884010D01*
X99973368Y-177046525D01*
X99766525Y-177253368D01*
X99650000Y-177427760D01*
X99533475Y-177253368D01*
X99326632Y-177046525D01*
X99083411Y-176884010D01*
X98813158Y-176772068D01*
X98526260Y-176715000D01*
X98233740Y-176715000D01*
X97946842Y-176772068D01*
X97676589Y-176884010D01*
X97433368Y-177046525D01*
X97226525Y-177253368D01*
X97110000Y-177427760D01*
X96993475Y-177253368D01*
X96786632Y-177046525D01*
X96543411Y-176884010D01*
X96273158Y-176772068D01*
X95986260Y-176715000D01*
X95693740Y-176715000D01*
X95406842Y-176772068D01*
X95136589Y-176884010D01*
X94893368Y-177046525D01*
X94761513Y-177178380D01*
X94739502Y-177105820D01*
X94680537Y-176995506D01*
X94601185Y-176898815D01*
X94504494Y-176819463D01*
X94394180Y-176760498D01*
X94274482Y-176724188D01*
X94150000Y-176711928D01*
X92450000Y-176711928D01*
X92325518Y-176724188D01*
X92205820Y-176760498D01*
X92095506Y-176819463D01*
X91998815Y-176898815D01*
X91919463Y-176995506D01*
X91860498Y-177105820D01*
X91824188Y-177225518D01*
X91811928Y-177350000D01*
X91811928Y-179050000D01*
X91824188Y-179174482D01*
X91860498Y-179294180D01*
X91871627Y-179315000D01*
X53805107Y-179315000D01*
X53973475Y-179146632D01*
X54135990Y-178903411D01*
X54247932Y-178633158D01*
X54305000Y-178346260D01*
X54305000Y-178053740D01*
X54247932Y-177766842D01*
X54135990Y-177496589D01*
X53973475Y-177253368D01*
X53766632Y-177046525D01*
X53580000Y-176921822D01*
X53580000Y-175793323D01*
X53583676Y-175756000D01*
X53580000Y-175718677D01*
X53580000Y-175718667D01*
X53569003Y-175607014D01*
X53525546Y-175463753D01*
X53454974Y-175331724D01*
X53360001Y-175215999D01*
X53331004Y-175192202D01*
X51948004Y-173809203D01*
X51924201Y-173780199D01*
X51808476Y-173685226D01*
X51676447Y-173614654D01*
X51533186Y-173571197D01*
X51421533Y-173560200D01*
X51421522Y-173560200D01*
X51384200Y-173556524D01*
X51346878Y-173560200D01*
X42680178Y-173560200D01*
X42555475Y-173373568D01*
X42348632Y-173166725D01*
X42174240Y-173050200D01*
X42348632Y-172933675D01*
X42555475Y-172726832D01*
X42717990Y-172483611D01*
X42829932Y-172213358D01*
X42887000Y-171926460D01*
X42887000Y-171633940D01*
X42829932Y-171347042D01*
X42717990Y-171076789D01*
X42555475Y-170833568D01*
X42348632Y-170626725D01*
X42174240Y-170510200D01*
X42348632Y-170393675D01*
X42555475Y-170186832D01*
X42717990Y-169943611D01*
X42829932Y-169673358D01*
X42887000Y-169386460D01*
X42887000Y-169093940D01*
X42883273Y-169075200D01*
X58302728Y-169075200D01*
X58302728Y-170675200D01*
X58314988Y-170799682D01*
X58351298Y-170919380D01*
X58410263Y-171029694D01*
X58489615Y-171126385D01*
X58586306Y-171205737D01*
X58696620Y-171264702D01*
X58816318Y-171301012D01*
X58940800Y-171313272D01*
X60540800Y-171313272D01*
X60665282Y-171301012D01*
X60784980Y-171264702D01*
X60895294Y-171205737D01*
X60991985Y-171126385D01*
X61071337Y-171029694D01*
X61130302Y-170919380D01*
X61145917Y-170867902D01*
X61427703Y-170867902D01*
X61499286Y-171111871D01*
X61754796Y-171232771D01*
X62028984Y-171301500D01*
X62311312Y-171315417D01*
X62590930Y-171273987D01*
X62857092Y-171178803D01*
X62982314Y-171111871D01*
X63053897Y-170867902D01*
X62240800Y-170054805D01*
X61427703Y-170867902D01*
X61145917Y-170867902D01*
X61166612Y-170799682D01*
X61178872Y-170675200D01*
X61178872Y-170667985D01*
X61248098Y-170688297D01*
X62061195Y-169875200D01*
X62420405Y-169875200D01*
X63233502Y-170688297D01*
X63477471Y-170616714D01*
X63598371Y-170361204D01*
X63667100Y-170087016D01*
X63681017Y-169804688D01*
X63639587Y-169525070D01*
X63544403Y-169258908D01*
X63477471Y-169133686D01*
X63233502Y-169062103D01*
X62420405Y-169875200D01*
X62061195Y-169875200D01*
X61248098Y-169062103D01*
X61178872Y-169082415D01*
X61178872Y-169075200D01*
X61166612Y-168950718D01*
X61145918Y-168882498D01*
X61427703Y-168882498D01*
X62240800Y-169695595D01*
X63053897Y-168882498D01*
X62982314Y-168638529D01*
X62726804Y-168517629D01*
X62452616Y-168448900D01*
X62170288Y-168434983D01*
X61890670Y-168476413D01*
X61624508Y-168571597D01*
X61499286Y-168638529D01*
X61427703Y-168882498D01*
X61145918Y-168882498D01*
X61130302Y-168831020D01*
X61071337Y-168720706D01*
X60991985Y-168624015D01*
X60895294Y-168544663D01*
X60784980Y-168485698D01*
X60665282Y-168449388D01*
X60540800Y-168437128D01*
X58940800Y-168437128D01*
X58816318Y-168449388D01*
X58696620Y-168485698D01*
X58586306Y-168544663D01*
X58489615Y-168624015D01*
X58410263Y-168720706D01*
X58351298Y-168831020D01*
X58314988Y-168950718D01*
X58302728Y-169075200D01*
X42883273Y-169075200D01*
X42829932Y-168807042D01*
X42717990Y-168536789D01*
X42555475Y-168293568D01*
X42348632Y-168086725D01*
X42105411Y-167924210D01*
X41835158Y-167812268D01*
X41548260Y-167755200D01*
X41255740Y-167755200D01*
X40968842Y-167812268D01*
X40698589Y-167924210D01*
X40455368Y-168086725D01*
X40248525Y-168293568D01*
X40086010Y-168536789D01*
X39974068Y-168807042D01*
X39917000Y-169093940D01*
X39917000Y-169386460D01*
X39974068Y-169673358D01*
X40086010Y-169943611D01*
X40248525Y-170186832D01*
X40455368Y-170393675D01*
X40629760Y-170510200D01*
X40455368Y-170626725D01*
X40248525Y-170833568D01*
X40086010Y-171076789D01*
X39974068Y-171347042D01*
X39917000Y-171633940D01*
X39917000Y-171926460D01*
X39960791Y-172146608D01*
X39716002Y-172391397D01*
X39686998Y-172415200D01*
X39631870Y-172482375D01*
X39592025Y-172530925D01*
X39535219Y-172637201D01*
X39521453Y-172662955D01*
X39477996Y-172806216D01*
X39466999Y-172917869D01*
X39466999Y-172917879D01*
X39463323Y-172955201D01*
X39466999Y-172992524D01*
X39467000Y-177932869D01*
X39463323Y-177970201D01*
X39477997Y-178119186D01*
X39521453Y-178262447D01*
X39592025Y-178394477D01*
X39645370Y-178459477D01*
X39686999Y-178510202D01*
X39715997Y-178534000D01*
X39728195Y-178546198D01*
X39751998Y-178575202D01*
X39867723Y-178670175D01*
X39999752Y-178740747D01*
X40143013Y-178784204D01*
X40254666Y-178795201D01*
X40254677Y-178795201D01*
X40291999Y-178798877D01*
X40329322Y-178795201D01*
X43042475Y-178795201D01*
X43079797Y-178798877D01*
X43117119Y-178795201D01*
X43117130Y-178795201D01*
X43228783Y-178784204D01*
X43372044Y-178740747D01*
X43504073Y-178670175D01*
X43619798Y-178575202D01*
X43643601Y-178546199D01*
X43862798Y-178327002D01*
X43873748Y-178327002D01*
X43715000Y-178485750D01*
X43711928Y-179050000D01*
X43724188Y-179174482D01*
X43760498Y-179294180D01*
X43771627Y-179315000D01*
X30685000Y-179315000D01*
X30685000Y-166685000D01*
X71064180Y-166685000D01*
X70965620Y-166714898D01*
%TA.AperFunction,Conductor*%
D19*
G36*
X70965620Y-166714898D02*
G01*
X70855306Y-166773863D01*
X70758615Y-166853215D01*
X70679263Y-166949906D01*
X70620298Y-167060220D01*
X70583988Y-167179918D01*
X70571728Y-167304400D01*
X70571728Y-169804400D01*
X70583988Y-169928882D01*
X70620298Y-170048580D01*
X70679263Y-170158894D01*
X70758615Y-170255585D01*
X70855306Y-170334937D01*
X70924800Y-170372083D01*
X70924800Y-170748648D01*
X70919309Y-170804400D01*
X70924800Y-170860151D01*
X70941223Y-171026898D01*
X71006124Y-171240846D01*
X71111516Y-171438023D01*
X71253351Y-171610849D01*
X71296665Y-171646396D01*
X73273109Y-173622841D01*
X73308651Y-173666149D01*
X73481477Y-173807984D01*
X73678653Y-173913376D01*
X73842805Y-173963171D01*
X73892600Y-173978277D01*
X74115099Y-174000191D01*
X74170851Y-173994700D01*
X94240439Y-173994700D01*
X94305513Y-174048105D01*
X94459048Y-174130172D01*
X94625644Y-174180708D01*
X94798898Y-174197772D01*
X95323902Y-174197772D01*
X95497156Y-174180708D01*
X95663752Y-174130172D01*
X95817287Y-174048105D01*
X95951862Y-173937662D01*
X95973900Y-173910809D01*
X95995938Y-173937662D01*
X96130513Y-174048105D01*
X96284048Y-174130172D01*
X96450644Y-174180708D01*
X96623898Y-174197772D01*
X97148902Y-174197772D01*
X97322156Y-174180708D01*
X97488752Y-174130172D01*
X97642287Y-174048105D01*
X97776862Y-173937662D01*
X97887305Y-173803087D01*
X97969372Y-173649552D01*
X98019908Y-173482956D01*
X98036972Y-173309702D01*
X98036972Y-172409698D01*
X98021400Y-172251593D01*
X98021400Y-170702832D01*
X98590332Y-170133900D01*
X103299729Y-170133900D01*
X103343663Y-170216094D01*
X103423015Y-170312785D01*
X103519706Y-170392137D01*
X103630020Y-170451102D01*
X103702580Y-170473113D01*
X103570725Y-170604968D01*
X103408210Y-170848189D01*
X103296268Y-171118442D01*
X103239200Y-171405340D01*
X103239200Y-171697860D01*
X103296268Y-171984758D01*
X103408210Y-172255011D01*
X103570725Y-172498232D01*
X103777568Y-172705075D01*
X103951960Y-172821600D01*
X103777568Y-172938125D01*
X103570725Y-173144968D01*
X103408210Y-173388189D01*
X103296268Y-173658442D01*
X103239200Y-173945340D01*
X103239200Y-174237860D01*
X103296268Y-174524758D01*
X103408210Y-174795011D01*
X103570725Y-175038232D01*
X103777568Y-175245075D01*
X103951960Y-175361600D01*
X103777568Y-175478125D01*
X103570725Y-175684968D01*
X103408210Y-175928189D01*
X103296268Y-176198442D01*
X103239200Y-176485340D01*
X103239200Y-176777860D01*
X103296268Y-177064758D01*
X103408210Y-177335011D01*
X103570725Y-177578232D01*
X103777568Y-177785075D01*
X104020789Y-177947590D01*
X104291042Y-178059532D01*
X104577940Y-178116600D01*
X104870460Y-178116600D01*
X105157358Y-178059532D01*
X105427611Y-177947590D01*
X105670832Y-177785075D01*
X105877675Y-177578232D01*
X106040190Y-177335011D01*
X106152132Y-177064758D01*
X106209200Y-176777860D01*
X106209200Y-176485340D01*
X106152132Y-176198442D01*
X106040190Y-175928189D01*
X105877675Y-175684968D01*
X105670832Y-175478125D01*
X105496440Y-175361600D01*
X105670832Y-175245075D01*
X105877675Y-175038232D01*
X106040190Y-174795011D01*
X106152132Y-174524758D01*
X106209200Y-174237860D01*
X106209200Y-173945340D01*
X106152132Y-173658442D01*
X106040190Y-173388189D01*
X105877675Y-173144968D01*
X105670832Y-172938125D01*
X105496440Y-172821600D01*
X105670832Y-172705075D01*
X105877675Y-172498232D01*
X106040190Y-172255011D01*
X106152132Y-171984758D01*
X106209200Y-171697860D01*
X106209200Y-171405340D01*
X106152132Y-171118442D01*
X106040190Y-170848189D01*
X105877675Y-170604968D01*
X105745820Y-170473113D01*
X105818380Y-170451102D01*
X105928694Y-170392137D01*
X106025385Y-170312785D01*
X106104737Y-170216094D01*
X106163702Y-170105780D01*
X106200012Y-169986082D01*
X106212272Y-169861600D01*
X106212272Y-168161600D01*
X106200012Y-168037118D01*
X106163702Y-167917420D01*
X106104737Y-167807106D01*
X106025385Y-167710415D01*
X105928694Y-167631063D01*
X105818380Y-167572098D01*
X105698682Y-167535788D01*
X105574200Y-167523528D01*
X103874200Y-167523528D01*
X103749718Y-167535788D01*
X103630020Y-167572098D01*
X103519706Y-167631063D01*
X103423015Y-167710415D01*
X103343663Y-167807106D01*
X103313305Y-167863900D01*
X98175952Y-167863900D01*
X98120200Y-167858409D01*
X98064448Y-167863900D01*
X97783561Y-167863900D01*
X97718487Y-167810495D01*
X97564952Y-167728428D01*
X97398356Y-167677892D01*
X97225102Y-167660828D01*
X96700098Y-167660828D01*
X96526844Y-167677892D01*
X96360248Y-167728428D01*
X96206713Y-167810495D01*
X96072138Y-167920938D01*
X96050100Y-167947791D01*
X96028062Y-167920938D01*
X95893487Y-167810495D01*
X95739952Y-167728428D01*
X95573356Y-167677892D01*
X95400102Y-167660828D01*
X94875098Y-167660828D01*
X94701844Y-167677892D01*
X94535248Y-167728428D01*
X94381713Y-167810495D01*
X94316639Y-167863900D01*
X92951533Y-167863900D01*
X91772631Y-166685000D01*
X115315000Y-166685000D01*
X115315001Y-179315000D01*
X101905107Y-179315000D01*
X102073475Y-179146632D01*
X102235990Y-178903411D01*
X102347932Y-178633158D01*
X102405000Y-178346260D01*
X102405000Y-178053740D01*
X102347932Y-177766842D01*
X102235990Y-177496589D01*
X102073475Y-177253368D01*
X101866632Y-177046525D01*
X101623411Y-176884010D01*
X101353158Y-176772068D01*
X101066260Y-176715000D01*
X100773740Y-176715000D01*
X100486842Y-176772068D01*
X100216589Y-176884010D01*
X99973368Y-177046525D01*
X99766525Y-177253368D01*
X99650000Y-177427760D01*
X99533475Y-177253368D01*
X99326632Y-177046525D01*
X99083411Y-176884010D01*
X98813158Y-176772068D01*
X98526260Y-176715000D01*
X98233740Y-176715000D01*
X97946842Y-176772068D01*
X97676589Y-176884010D01*
X97433368Y-177046525D01*
X97226525Y-177253368D01*
X97110000Y-177427760D01*
X96993475Y-177253368D01*
X96786632Y-177046525D01*
X96543411Y-176884010D01*
X96273158Y-176772068D01*
X95986260Y-176715000D01*
X95693740Y-176715000D01*
X95406842Y-176772068D01*
X95136589Y-176884010D01*
X94893368Y-177046525D01*
X94761513Y-177178380D01*
X94739502Y-177105820D01*
X94680537Y-176995506D01*
X94601185Y-176898815D01*
X94504494Y-176819463D01*
X94394180Y-176760498D01*
X94274482Y-176724188D01*
X94150000Y-176711928D01*
X92450000Y-176711928D01*
X92325518Y-176724188D01*
X92205820Y-176760498D01*
X92095506Y-176819463D01*
X91998815Y-176898815D01*
X91919463Y-176995506D01*
X91860498Y-177105820D01*
X91824188Y-177225518D01*
X91811928Y-177350000D01*
X91811928Y-179050000D01*
X91824188Y-179174482D01*
X91860498Y-179294180D01*
X91871627Y-179315000D01*
X53805107Y-179315000D01*
X53973475Y-179146632D01*
X54135990Y-178903411D01*
X54247932Y-178633158D01*
X54305000Y-178346260D01*
X54305000Y-178053740D01*
X54247932Y-177766842D01*
X54135990Y-177496589D01*
X53973475Y-177253368D01*
X53766632Y-177046525D01*
X53580000Y-176921822D01*
X53580000Y-175793323D01*
X53583676Y-175756000D01*
X53580000Y-175718677D01*
X53580000Y-175718667D01*
X53569003Y-175607014D01*
X53525546Y-175463753D01*
X53454974Y-175331724D01*
X53360001Y-175215999D01*
X53331004Y-175192202D01*
X51948004Y-173809203D01*
X51924201Y-173780199D01*
X51808476Y-173685226D01*
X51676447Y-173614654D01*
X51533186Y-173571197D01*
X51421533Y-173560200D01*
X51421522Y-173560200D01*
X51384200Y-173556524D01*
X51346878Y-173560200D01*
X42680178Y-173560200D01*
X42555475Y-173373568D01*
X42348632Y-173166725D01*
X42174240Y-173050200D01*
X42348632Y-172933675D01*
X42555475Y-172726832D01*
X42717990Y-172483611D01*
X42829932Y-172213358D01*
X42887000Y-171926460D01*
X42887000Y-171633940D01*
X42829932Y-171347042D01*
X42717990Y-171076789D01*
X42555475Y-170833568D01*
X42348632Y-170626725D01*
X42174240Y-170510200D01*
X42348632Y-170393675D01*
X42555475Y-170186832D01*
X42717990Y-169943611D01*
X42829932Y-169673358D01*
X42887000Y-169386460D01*
X42887000Y-169093940D01*
X42883273Y-169075200D01*
X58302728Y-169075200D01*
X58302728Y-170675200D01*
X58314988Y-170799682D01*
X58351298Y-170919380D01*
X58410263Y-171029694D01*
X58489615Y-171126385D01*
X58586306Y-171205737D01*
X58696620Y-171264702D01*
X58816318Y-171301012D01*
X58940800Y-171313272D01*
X60540800Y-171313272D01*
X60665282Y-171301012D01*
X60784980Y-171264702D01*
X60895294Y-171205737D01*
X60991985Y-171126385D01*
X61071337Y-171029694D01*
X61130302Y-170919380D01*
X61145917Y-170867902D01*
X61427703Y-170867902D01*
X61499286Y-171111871D01*
X61754796Y-171232771D01*
X62028984Y-171301500D01*
X62311312Y-171315417D01*
X62590930Y-171273987D01*
X62857092Y-171178803D01*
X62982314Y-171111871D01*
X63053897Y-170867902D01*
X62240800Y-170054805D01*
X61427703Y-170867902D01*
X61145917Y-170867902D01*
X61166612Y-170799682D01*
X61178872Y-170675200D01*
X61178872Y-170667985D01*
X61248098Y-170688297D01*
X62061195Y-169875200D01*
X62420405Y-169875200D01*
X63233502Y-170688297D01*
X63477471Y-170616714D01*
X63598371Y-170361204D01*
X63667100Y-170087016D01*
X63681017Y-169804688D01*
X63639587Y-169525070D01*
X63544403Y-169258908D01*
X63477471Y-169133686D01*
X63233502Y-169062103D01*
X62420405Y-169875200D01*
X62061195Y-169875200D01*
X61248098Y-169062103D01*
X61178872Y-169082415D01*
X61178872Y-169075200D01*
X61166612Y-168950718D01*
X61145918Y-168882498D01*
X61427703Y-168882498D01*
X62240800Y-169695595D01*
X63053897Y-168882498D01*
X62982314Y-168638529D01*
X62726804Y-168517629D01*
X62452616Y-168448900D01*
X62170288Y-168434983D01*
X61890670Y-168476413D01*
X61624508Y-168571597D01*
X61499286Y-168638529D01*
X61427703Y-168882498D01*
X61145918Y-168882498D01*
X61130302Y-168831020D01*
X61071337Y-168720706D01*
X60991985Y-168624015D01*
X60895294Y-168544663D01*
X60784980Y-168485698D01*
X60665282Y-168449388D01*
X60540800Y-168437128D01*
X58940800Y-168437128D01*
X58816318Y-168449388D01*
X58696620Y-168485698D01*
X58586306Y-168544663D01*
X58489615Y-168624015D01*
X58410263Y-168720706D01*
X58351298Y-168831020D01*
X58314988Y-168950718D01*
X58302728Y-169075200D01*
X42883273Y-169075200D01*
X42829932Y-168807042D01*
X42717990Y-168536789D01*
X42555475Y-168293568D01*
X42348632Y-168086725D01*
X42105411Y-167924210D01*
X41835158Y-167812268D01*
X41548260Y-167755200D01*
X41255740Y-167755200D01*
X40968842Y-167812268D01*
X40698589Y-167924210D01*
X40455368Y-168086725D01*
X40248525Y-168293568D01*
X40086010Y-168536789D01*
X39974068Y-168807042D01*
X39917000Y-169093940D01*
X39917000Y-169386460D01*
X39974068Y-169673358D01*
X40086010Y-169943611D01*
X40248525Y-170186832D01*
X40455368Y-170393675D01*
X40629760Y-170510200D01*
X40455368Y-170626725D01*
X40248525Y-170833568D01*
X40086010Y-171076789D01*
X39974068Y-171347042D01*
X39917000Y-171633940D01*
X39917000Y-171926460D01*
X39960791Y-172146608D01*
X39716002Y-172391397D01*
X39686998Y-172415200D01*
X39631870Y-172482375D01*
X39592025Y-172530925D01*
X39535219Y-172637201D01*
X39521453Y-172662955D01*
X39477996Y-172806216D01*
X39466999Y-172917869D01*
X39466999Y-172917879D01*
X39463323Y-172955201D01*
X39466999Y-172992524D01*
X39467000Y-177932869D01*
X39463323Y-177970201D01*
X39477997Y-178119186D01*
X39521453Y-178262447D01*
X39592025Y-178394477D01*
X39645370Y-178459477D01*
X39686999Y-178510202D01*
X39715997Y-178534000D01*
X39728195Y-178546198D01*
X39751998Y-178575202D01*
X39867723Y-178670175D01*
X39999752Y-178740747D01*
X40143013Y-178784204D01*
X40254666Y-178795201D01*
X40254677Y-178795201D01*
X40291999Y-178798877D01*
X40329322Y-178795201D01*
X43042475Y-178795201D01*
X43079797Y-178798877D01*
X43117119Y-178795201D01*
X43117130Y-178795201D01*
X43228783Y-178784204D01*
X43372044Y-178740747D01*
X43504073Y-178670175D01*
X43619798Y-178575202D01*
X43643601Y-178546199D01*
X43862798Y-178327002D01*
X43873748Y-178327002D01*
X43715000Y-178485750D01*
X43711928Y-179050000D01*
X43724188Y-179174482D01*
X43760498Y-179294180D01*
X43771627Y-179315000D01*
X30685000Y-179315000D01*
X30685000Y-166685000D01*
X71064180Y-166685000D01*
X70965620Y-166714898D01*
G37*
%TD.AperFunction*%
D18*
X45327000Y-178073000D02*
X45347000Y-178073000D01*
X45347000Y-178327000D01*
X45327000Y-178327000D01*
X45327000Y-178347000D01*
X45073000Y-178347000D01*
X45073000Y-178327000D01*
X45053000Y-178327000D01*
X45053000Y-178073000D01*
X45073000Y-178073000D01*
X45073000Y-178053000D01*
X45327000Y-178053000D01*
X45327000Y-178073000D01*
%TA.AperFunction,Conductor*%
D19*
G36*
X45327000Y-178073000D02*
G01*
X45347000Y-178073000D01*
X45347000Y-178327000D01*
X45327000Y-178327000D01*
X45327000Y-178347000D01*
X45073000Y-178347000D01*
X45073000Y-178327000D01*
X45053000Y-178327000D01*
X45053000Y-178073000D01*
X45073000Y-178073000D01*
X45073000Y-178053000D01*
X45327000Y-178053000D01*
X45327000Y-178073000D01*
G37*
%TD.AperFunction*%
D18*
X52060000Y-176070802D02*
X52060000Y-176921821D01*
X51873368Y-177046525D01*
X51666525Y-177253368D01*
X51550000Y-177427760D01*
X51433475Y-177253368D01*
X51226632Y-177046525D01*
X50983411Y-176884010D01*
X50713158Y-176772068D01*
X50426260Y-176715000D01*
X50133740Y-176715000D01*
X49913592Y-176758791D01*
X49668803Y-176514002D01*
X49645000Y-176484998D01*
X49529275Y-176390025D01*
X49397246Y-176319453D01*
X49253985Y-176275996D01*
X49142332Y-176264999D01*
X49142321Y-176264999D01*
X49104999Y-176261323D01*
X49067677Y-176264999D01*
X44127321Y-176264999D01*
X44089998Y-176261323D01*
X44052675Y-176264999D01*
X44052666Y-176264999D01*
X43941013Y-176275996D01*
X43797752Y-176319453D01*
X43665723Y-176390025D01*
X43549998Y-176484998D01*
X43526200Y-176513996D01*
X42887039Y-177153157D01*
X42887000Y-177145950D01*
X42728250Y-176987200D01*
X41529000Y-176987200D01*
X41529000Y-177007200D01*
X41275000Y-177007200D01*
X41275000Y-176987200D01*
X41255000Y-176987200D01*
X41255000Y-176733200D01*
X41275000Y-176733200D01*
X41275000Y-176713200D01*
X41529000Y-176713200D01*
X41529000Y-176733200D01*
X42728250Y-176733200D01*
X42887000Y-176574450D01*
X42890072Y-176010200D01*
X42877812Y-175885718D01*
X42841502Y-175766020D01*
X42782537Y-175655706D01*
X42703185Y-175559015D01*
X42606494Y-175479663D01*
X42496180Y-175420698D01*
X42423620Y-175398687D01*
X42555475Y-175266832D01*
X42680178Y-175080200D01*
X51069399Y-175080200D01*
X52060000Y-176070802D01*
%TA.AperFunction,Conductor*%
D19*
G36*
X52060000Y-176070802D02*
G01*
X52060000Y-176921821D01*
X51873368Y-177046525D01*
X51666525Y-177253368D01*
X51550000Y-177427760D01*
X51433475Y-177253368D01*
X51226632Y-177046525D01*
X50983411Y-176884010D01*
X50713158Y-176772068D01*
X50426260Y-176715000D01*
X50133740Y-176715000D01*
X49913592Y-176758791D01*
X49668803Y-176514002D01*
X49645000Y-176484998D01*
X49529275Y-176390025D01*
X49397246Y-176319453D01*
X49253985Y-176275996D01*
X49142332Y-176264999D01*
X49142321Y-176264999D01*
X49104999Y-176261323D01*
X49067677Y-176264999D01*
X44127321Y-176264999D01*
X44089998Y-176261323D01*
X44052675Y-176264999D01*
X44052666Y-176264999D01*
X43941013Y-176275996D01*
X43797752Y-176319453D01*
X43665723Y-176390025D01*
X43549998Y-176484998D01*
X43526200Y-176513996D01*
X42887039Y-177153157D01*
X42887000Y-177145950D01*
X42728250Y-176987200D01*
X41529000Y-176987200D01*
X41529000Y-177007200D01*
X41275000Y-177007200D01*
X41275000Y-176987200D01*
X41255000Y-176987200D01*
X41255000Y-176733200D01*
X41275000Y-176733200D01*
X41275000Y-176713200D01*
X41529000Y-176713200D01*
X41529000Y-176733200D01*
X42728250Y-176733200D01*
X42887000Y-176574450D01*
X42890072Y-176010200D01*
X42877812Y-175885718D01*
X42841502Y-175766020D01*
X42782537Y-175655706D01*
X42703185Y-175559015D01*
X42606494Y-175479663D01*
X42496180Y-175420698D01*
X42423620Y-175398687D01*
X42555475Y-175266832D01*
X42680178Y-175080200D01*
X51069399Y-175080200D01*
X52060000Y-176070802D01*
G37*
%TD.AperFunction*%
D18*
X74726800Y-168427400D02*
X74746800Y-168427400D01*
X74746800Y-168681400D01*
X74726800Y-168681400D01*
X74726800Y-170274555D01*
X74956690Y-170395876D01*
X75050753Y-170374963D01*
X75319226Y-170259691D01*
X75560052Y-170094257D01*
X75763976Y-169885019D01*
X75867905Y-169725063D01*
X75899094Y-169783414D01*
X76084666Y-170009534D01*
X76310787Y-170195106D01*
X76568767Y-170332999D01*
X76848690Y-170417913D01*
X77139800Y-170446585D01*
X77430911Y-170417913D01*
X77710834Y-170332999D01*
X77968814Y-170195106D01*
X78194934Y-170009534D01*
X78380506Y-169783414D01*
X78430757Y-169689400D01*
X84234149Y-169689400D01*
X84289900Y-169694891D01*
X84345651Y-169689400D01*
X84345652Y-169689400D01*
X84512399Y-169672977D01*
X84566328Y-169656618D01*
X84566328Y-171005400D01*
X84578588Y-171129882D01*
X84614898Y-171249580D01*
X84673863Y-171359894D01*
X84753215Y-171456585D01*
X84849906Y-171535937D01*
X84960220Y-171594902D01*
X85079918Y-171631212D01*
X85204400Y-171643472D01*
X86804400Y-171643472D01*
X86928882Y-171631212D01*
X87048580Y-171594902D01*
X87158894Y-171535937D01*
X87255585Y-171456585D01*
X87334937Y-171359894D01*
X87393902Y-171249580D01*
X87409517Y-171198102D01*
X87691303Y-171198102D01*
X87762886Y-171442071D01*
X88018396Y-171562971D01*
X88292584Y-171631700D01*
X88574912Y-171645617D01*
X88854530Y-171604187D01*
X89120692Y-171509003D01*
X89245914Y-171442071D01*
X89317497Y-171198102D01*
X88504400Y-170385005D01*
X87691303Y-171198102D01*
X87409517Y-171198102D01*
X87430212Y-171129882D01*
X87442472Y-171005400D01*
X87442472Y-170998185D01*
X87511698Y-171018497D01*
X88324795Y-170205400D01*
X88684005Y-170205400D01*
X89497102Y-171018497D01*
X89741071Y-170946914D01*
X89861971Y-170691404D01*
X89930700Y-170417216D01*
X89944617Y-170134888D01*
X89903187Y-169855270D01*
X89808003Y-169589108D01*
X89741071Y-169463886D01*
X89497102Y-169392303D01*
X88684005Y-170205400D01*
X88324795Y-170205400D01*
X87511698Y-169392303D01*
X87442472Y-169412615D01*
X87442472Y-169405400D01*
X87430212Y-169280918D01*
X87409518Y-169212698D01*
X87691303Y-169212698D01*
X88504400Y-170025795D01*
X89317497Y-169212698D01*
X89245914Y-168968729D01*
X88990404Y-168847829D01*
X88716216Y-168779100D01*
X88433888Y-168765183D01*
X88154270Y-168806613D01*
X87888108Y-168901797D01*
X87762886Y-168968729D01*
X87691303Y-169212698D01*
X87409518Y-169212698D01*
X87393902Y-169161220D01*
X87334937Y-169050906D01*
X87255585Y-168954215D01*
X87158894Y-168874863D01*
X87048580Y-168815898D01*
X86928882Y-168779588D01*
X86804400Y-168767328D01*
X85682104Y-168767328D01*
X85890332Y-168559100D01*
X90436469Y-168559100D01*
X91639411Y-169762044D01*
X91674951Y-169805349D01*
X91718254Y-169840887D01*
X91718256Y-169840889D01*
X91760064Y-169875200D01*
X91847777Y-169947184D01*
X92044953Y-170052576D01*
X92258901Y-170117477D01*
X92387848Y-170130177D01*
X92481400Y-170139391D01*
X92537152Y-170133900D01*
X94316639Y-170133900D01*
X94381713Y-170187305D01*
X94535248Y-170269372D01*
X94701844Y-170319908D01*
X94875098Y-170336972D01*
X95400102Y-170336972D01*
X95573356Y-170319908D01*
X95739952Y-170269372D01*
X95749042Y-170264513D01*
X95751401Y-170288461D01*
X95751400Y-171636078D01*
X95663752Y-171589228D01*
X95497156Y-171538692D01*
X95323902Y-171521628D01*
X94798898Y-171521628D01*
X94625644Y-171538692D01*
X94459048Y-171589228D01*
X94305513Y-171671295D01*
X94240439Y-171724700D01*
X74585232Y-171724700D01*
X73219442Y-170358911D01*
X73264294Y-170334937D01*
X73360985Y-170255585D01*
X73440337Y-170158894D01*
X73499302Y-170048580D01*
X73522025Y-169973672D01*
X73639548Y-170094257D01*
X73880374Y-170259691D01*
X74148847Y-170374963D01*
X74242910Y-170395876D01*
X74472800Y-170274555D01*
X74472800Y-168681400D01*
X74452800Y-168681400D01*
X74452800Y-168427400D01*
X74472800Y-168427400D01*
X74472800Y-168407400D01*
X74726800Y-168407400D01*
X74726800Y-168427400D01*
%TA.AperFunction,Conductor*%
D19*
G36*
X74726800Y-168427400D02*
G01*
X74746800Y-168427400D01*
X74746800Y-168681400D01*
X74726800Y-168681400D01*
X74726800Y-170274555D01*
X74956690Y-170395876D01*
X75050753Y-170374963D01*
X75319226Y-170259691D01*
X75560052Y-170094257D01*
X75763976Y-169885019D01*
X75867905Y-169725063D01*
X75899094Y-169783414D01*
X76084666Y-170009534D01*
X76310787Y-170195106D01*
X76568767Y-170332999D01*
X76848690Y-170417913D01*
X77139800Y-170446585D01*
X77430911Y-170417913D01*
X77710834Y-170332999D01*
X77968814Y-170195106D01*
X78194934Y-170009534D01*
X78380506Y-169783414D01*
X78430757Y-169689400D01*
X84234149Y-169689400D01*
X84289900Y-169694891D01*
X84345651Y-169689400D01*
X84345652Y-169689400D01*
X84512399Y-169672977D01*
X84566328Y-169656618D01*
X84566328Y-171005400D01*
X84578588Y-171129882D01*
X84614898Y-171249580D01*
X84673863Y-171359894D01*
X84753215Y-171456585D01*
X84849906Y-171535937D01*
X84960220Y-171594902D01*
X85079918Y-171631212D01*
X85204400Y-171643472D01*
X86804400Y-171643472D01*
X86928882Y-171631212D01*
X87048580Y-171594902D01*
X87158894Y-171535937D01*
X87255585Y-171456585D01*
X87334937Y-171359894D01*
X87393902Y-171249580D01*
X87409517Y-171198102D01*
X87691303Y-171198102D01*
X87762886Y-171442071D01*
X88018396Y-171562971D01*
X88292584Y-171631700D01*
X88574912Y-171645617D01*
X88854530Y-171604187D01*
X89120692Y-171509003D01*
X89245914Y-171442071D01*
X89317497Y-171198102D01*
X88504400Y-170385005D01*
X87691303Y-171198102D01*
X87409517Y-171198102D01*
X87430212Y-171129882D01*
X87442472Y-171005400D01*
X87442472Y-170998185D01*
X87511698Y-171018497D01*
X88324795Y-170205400D01*
X88684005Y-170205400D01*
X89497102Y-171018497D01*
X89741071Y-170946914D01*
X89861971Y-170691404D01*
X89930700Y-170417216D01*
X89944617Y-170134888D01*
X89903187Y-169855270D01*
X89808003Y-169589108D01*
X89741071Y-169463886D01*
X89497102Y-169392303D01*
X88684005Y-170205400D01*
X88324795Y-170205400D01*
X87511698Y-169392303D01*
X87442472Y-169412615D01*
X87442472Y-169405400D01*
X87430212Y-169280918D01*
X87409518Y-169212698D01*
X87691303Y-169212698D01*
X88504400Y-170025795D01*
X89317497Y-169212698D01*
X89245914Y-168968729D01*
X88990404Y-168847829D01*
X88716216Y-168779100D01*
X88433888Y-168765183D01*
X88154270Y-168806613D01*
X87888108Y-168901797D01*
X87762886Y-168968729D01*
X87691303Y-169212698D01*
X87409518Y-169212698D01*
X87393902Y-169161220D01*
X87334937Y-169050906D01*
X87255585Y-168954215D01*
X87158894Y-168874863D01*
X87048580Y-168815898D01*
X86928882Y-168779588D01*
X86804400Y-168767328D01*
X85682104Y-168767328D01*
X85890332Y-168559100D01*
X90436469Y-168559100D01*
X91639411Y-169762044D01*
X91674951Y-169805349D01*
X91718254Y-169840887D01*
X91718256Y-169840889D01*
X91760064Y-169875200D01*
X91847777Y-169947184D01*
X92044953Y-170052576D01*
X92258901Y-170117477D01*
X92387848Y-170130177D01*
X92481400Y-170139391D01*
X92537152Y-170133900D01*
X94316639Y-170133900D01*
X94381713Y-170187305D01*
X94535248Y-170269372D01*
X94701844Y-170319908D01*
X94875098Y-170336972D01*
X95400102Y-170336972D01*
X95573356Y-170319908D01*
X95739952Y-170269372D01*
X95749042Y-170264513D01*
X95751401Y-170288461D01*
X95751400Y-171636078D01*
X95663752Y-171589228D01*
X95497156Y-171538692D01*
X95323902Y-171521628D01*
X94798898Y-171521628D01*
X94625644Y-171538692D01*
X94459048Y-171589228D01*
X94305513Y-171671295D01*
X94240439Y-171724700D01*
X74585232Y-171724700D01*
X73219442Y-170358911D01*
X73264294Y-170334937D01*
X73360985Y-170255585D01*
X73440337Y-170158894D01*
X73499302Y-170048580D01*
X73522025Y-169973672D01*
X73639548Y-170094257D01*
X73880374Y-170259691D01*
X74148847Y-170374963D01*
X74242910Y-170395876D01*
X74472800Y-170274555D01*
X74472800Y-168681400D01*
X74452800Y-168681400D01*
X74452800Y-168427400D01*
X74472800Y-168427400D01*
X74472800Y-168407400D01*
X74726800Y-168407400D01*
X74726800Y-168427400D01*
G37*
%TD.AperFunction*%
%TD*%
M02*
