M48
; DRILL file {KiCad 5.1.9+dfsg1-1} date Fri May 21 09:47:42 2021
; FORMAT={-:-/ absolute / inch / decimal}
; #@! TF.CreationDate,2021-05-21T09:47:42+02:00
; #@! TF.GenerationSoftware,Kicad,Pcbnew,5.1.9+dfsg1-1
; #@! TF.FileFunction,Plated,1,2,PTH
FMAT,2
INCH
T1C0.0315
T2C0.0394
T3C0.0472
%
G90
G05
T1
X2.352Y-6.688
X2.4504Y-6.688
X3.386Y-6.701
X3.4844Y-6.701
T2
X1.63Y-6.663
X1.63Y-6.763
X1.63Y-6.863
X1.63Y-6.963
X1.854Y-6.988
X1.954Y-6.988
X2.054Y-6.988
X2.154Y-6.988
X3.59Y-6.992
X3.69Y-6.992
X3.79Y-6.992
X3.89Y-6.992
X4.123Y-6.654
X4.123Y-6.754
X4.123Y-6.854
X4.123Y-6.954
T3
X2.837Y-6.636
X2.937Y-6.636
X3.037Y-6.636
T0
M30
