%TF.GenerationSoftware,KiCad,Pcbnew,6.0.2+dfsg-1*%
%TF.CreationDate,2022-06-15T15:21:32+02:00*%
%TF.ProjectId,single_din_bottom,73696e67-6c65-45f6-9469-6e5f626f7474,rev?*%
%TF.SameCoordinates,Original*%
%TF.FileFunction,Legend,Bot*%
%TF.FilePolarity,Positive*%
%FSLAX46Y46*%
G04 Gerber Fmt 4.6, Leading zero omitted, Abs format (unit mm)*
G04 Created by KiCad (PCBNEW 6.0.2+dfsg-1) date 2022-06-15 15:21:32*
%MOMM*%
%LPD*%
G01*
G04 APERTURE LIST*
%ADD10C,0.300000*%
%ADD11C,0.150000*%
%ADD12C,0.120000*%
G04 APERTURE END LIST*
D10*
X81499157Y-173208071D02*
X81499157Y-171708071D01*
X80856300Y-173208071D02*
X80856300Y-172422357D01*
X80927728Y-172279500D01*
X81070585Y-172208071D01*
X81284871Y-172208071D01*
X81427728Y-172279500D01*
X81499157Y-172350928D01*
X80356300Y-172208071D02*
X79784871Y-172208071D01*
X80142014Y-171708071D02*
X80142014Y-172993785D01*
X80070585Y-173136642D01*
X79927728Y-173208071D01*
X79784871Y-173208071D01*
X79499157Y-172208071D02*
X78927728Y-172208071D01*
X79284871Y-171708071D02*
X79284871Y-172993785D01*
X79213442Y-173136642D01*
X79070585Y-173208071D01*
X78927728Y-173208071D01*
X78427728Y-172208071D02*
X78427728Y-173708071D01*
X78427728Y-172279500D02*
X78284871Y-172208071D01*
X77999157Y-172208071D01*
X77856300Y-172279500D01*
X77784871Y-172350928D01*
X77713442Y-172493785D01*
X77713442Y-172922357D01*
X77784871Y-173065214D01*
X77856300Y-173136642D01*
X77999157Y-173208071D01*
X78284871Y-173208071D01*
X78427728Y-173136642D01*
X77142014Y-173136642D02*
X76999157Y-173208071D01*
X76713442Y-173208071D01*
X76570585Y-173136642D01*
X76499157Y-172993785D01*
X76499157Y-172922357D01*
X76570585Y-172779500D01*
X76713442Y-172708071D01*
X76927728Y-172708071D01*
X77070585Y-172636642D01*
X77142014Y-172493785D01*
X77142014Y-172422357D01*
X77070585Y-172279500D01*
X76927728Y-172208071D01*
X76713442Y-172208071D01*
X76570585Y-172279500D01*
X75856300Y-173065214D02*
X75784871Y-173136642D01*
X75856300Y-173208071D01*
X75927728Y-173136642D01*
X75856300Y-173065214D01*
X75856300Y-173208071D01*
X75856300Y-172279500D02*
X75784871Y-172350928D01*
X75856300Y-172422357D01*
X75927728Y-172350928D01*
X75856300Y-172279500D01*
X75856300Y-172422357D01*
X74070585Y-171636642D02*
X75356300Y-173565214D01*
X72499157Y-171636642D02*
X73784871Y-173565214D01*
X72142014Y-172208071D02*
X71856300Y-173208071D01*
X71570585Y-172493785D01*
X71284871Y-173208071D01*
X70999157Y-172208071D01*
X70570585Y-172208071D02*
X70284871Y-173208071D01*
X69999157Y-172493785D01*
X69713442Y-173208071D01*
X69427728Y-172208071D01*
X68999157Y-172208071D02*
X68713442Y-173208071D01*
X68427728Y-172493785D01*
X68142014Y-173208071D01*
X67856300Y-172208071D01*
X67284871Y-173065214D02*
X67213442Y-173136642D01*
X67284871Y-173208071D01*
X67356300Y-173136642D01*
X67284871Y-173065214D01*
X67284871Y-173208071D01*
X65927728Y-172208071D02*
X65927728Y-173422357D01*
X65999157Y-173565214D01*
X66070585Y-173636642D01*
X66213442Y-173708071D01*
X66427728Y-173708071D01*
X66570585Y-173636642D01*
X65927728Y-173136642D02*
X66070585Y-173208071D01*
X66356300Y-173208071D01*
X66499157Y-173136642D01*
X66570585Y-173065214D01*
X66642014Y-172922357D01*
X66642014Y-172493785D01*
X66570585Y-172350928D01*
X66499157Y-172279500D01*
X66356300Y-172208071D01*
X66070585Y-172208071D01*
X65927728Y-172279500D01*
X65213442Y-173208071D02*
X65213442Y-172208071D01*
X65213442Y-172493785D02*
X65142014Y-172350928D01*
X65070585Y-172279500D01*
X64927728Y-172208071D01*
X64784871Y-172208071D01*
X64070585Y-173208071D02*
X64213442Y-173136642D01*
X64284871Y-173065214D01*
X64356300Y-172922357D01*
X64356300Y-172493785D01*
X64284871Y-172350928D01*
X64213442Y-172279500D01*
X64070585Y-172208071D01*
X63856300Y-172208071D01*
X63713442Y-172279500D01*
X63642014Y-172350928D01*
X63570585Y-172493785D01*
X63570585Y-172922357D01*
X63642014Y-173065214D01*
X63713442Y-173136642D01*
X63856300Y-173208071D01*
X64070585Y-173208071D01*
X62284871Y-173208071D02*
X62284871Y-171708071D01*
X62284871Y-173136642D02*
X62427728Y-173208071D01*
X62713442Y-173208071D01*
X62856300Y-173136642D01*
X62927728Y-173065214D01*
X62999157Y-172922357D01*
X62999157Y-172493785D01*
X62927728Y-172350928D01*
X62856300Y-172279500D01*
X62713442Y-172208071D01*
X62427728Y-172208071D01*
X62284871Y-172279500D01*
X60927728Y-173208071D02*
X60927728Y-172422357D01*
X60999157Y-172279500D01*
X61142014Y-172208071D01*
X61427728Y-172208071D01*
X61570585Y-172279500D01*
X60927728Y-173136642D02*
X61070585Y-173208071D01*
X61427728Y-173208071D01*
X61570585Y-173136642D01*
X61642014Y-172993785D01*
X61642014Y-172850928D01*
X61570585Y-172708071D01*
X61427728Y-172636642D01*
X61070585Y-172636642D01*
X60927728Y-172565214D01*
X60213442Y-172208071D02*
X60213442Y-173208071D01*
X60213442Y-172350928D02*
X60142014Y-172279500D01*
X59999157Y-172208071D01*
X59784871Y-172208071D01*
X59642014Y-172279500D01*
X59570585Y-172422357D01*
X59570585Y-173208071D01*
X58927728Y-173136642D02*
X58784871Y-173208071D01*
X58499157Y-173208071D01*
X58356300Y-173136642D01*
X58284871Y-172993785D01*
X58284871Y-172922357D01*
X58356300Y-172779500D01*
X58499157Y-172708071D01*
X58713442Y-172708071D01*
X58856300Y-172636642D01*
X58927728Y-172493785D01*
X58927728Y-172422357D01*
X58856300Y-172279500D01*
X58713442Y-172208071D01*
X58499157Y-172208071D01*
X58356300Y-172279500D01*
X57642014Y-172208071D02*
X57642014Y-173708071D01*
X57642014Y-172279500D02*
X57499157Y-172208071D01*
X57213442Y-172208071D01*
X57070585Y-172279500D01*
X56999157Y-172350928D01*
X56927728Y-172493785D01*
X56927728Y-172922357D01*
X56999157Y-173065214D01*
X57070585Y-173136642D01*
X57213442Y-173208071D01*
X57499157Y-173208071D01*
X57642014Y-173136642D01*
X55642014Y-173208071D02*
X55642014Y-172422357D01*
X55713442Y-172279500D01*
X55856300Y-172208071D01*
X56142014Y-172208071D01*
X56284871Y-172279500D01*
X55642014Y-173136642D02*
X55784871Y-173208071D01*
X56142014Y-173208071D01*
X56284871Y-173136642D01*
X56356300Y-172993785D01*
X56356300Y-172850928D01*
X56284871Y-172708071D01*
X56142014Y-172636642D01*
X55784871Y-172636642D01*
X55642014Y-172565214D01*
X54927728Y-173208071D02*
X54927728Y-172208071D01*
X54927728Y-172493785D02*
X54856300Y-172350928D01*
X54784871Y-172279500D01*
X54642014Y-172208071D01*
X54499157Y-172208071D01*
X53356300Y-173208071D02*
X53356300Y-172422357D01*
X53427728Y-172279500D01*
X53570585Y-172208071D01*
X53856300Y-172208071D01*
X53999157Y-172279500D01*
X53356300Y-173136642D02*
X53499157Y-173208071D01*
X53856300Y-173208071D01*
X53999157Y-173136642D01*
X54070585Y-172993785D01*
X54070585Y-172850928D01*
X53999157Y-172708071D01*
X53856300Y-172636642D01*
X53499157Y-172636642D01*
X53356300Y-172565214D01*
X51999157Y-173208071D02*
X51999157Y-171708071D01*
X51999157Y-173136642D02*
X52142014Y-173208071D01*
X52427728Y-173208071D01*
X52570585Y-173136642D01*
X52642014Y-173065214D01*
X52713442Y-172922357D01*
X52713442Y-172493785D01*
X52642014Y-172350928D01*
X52570585Y-172279500D01*
X52427728Y-172208071D01*
X52142014Y-172208071D01*
X51999157Y-172279500D01*
X51284871Y-173208071D02*
X51284871Y-172208071D01*
X51284871Y-171708071D02*
X51356300Y-171779500D01*
X51284871Y-171850928D01*
X51213442Y-171779500D01*
X51284871Y-171708071D01*
X51284871Y-171850928D01*
X50642014Y-173136642D02*
X50499157Y-173208071D01*
X50213442Y-173208071D01*
X50070585Y-173136642D01*
X49999157Y-172993785D01*
X49999157Y-172922357D01*
X50070585Y-172779500D01*
X50213442Y-172708071D01*
X50427728Y-172708071D01*
X50570585Y-172636642D01*
X50642014Y-172493785D01*
X50642014Y-172422357D01*
X50570585Y-172279500D01*
X50427728Y-172208071D01*
X50213442Y-172208071D01*
X50070585Y-172279500D01*
X49356300Y-173065214D02*
X49284871Y-173136642D01*
X49356300Y-173208071D01*
X49427728Y-173136642D01*
X49356300Y-173065214D01*
X49356300Y-173208071D01*
X47999157Y-173136642D02*
X48142014Y-173208071D01*
X48427728Y-173208071D01*
X48570585Y-173136642D01*
X48642014Y-173065214D01*
X48713442Y-172922357D01*
X48713442Y-172493785D01*
X48642014Y-172350928D01*
X48570585Y-172279500D01*
X48427728Y-172208071D01*
X48142014Y-172208071D01*
X47999157Y-172279500D01*
X47142014Y-173208071D02*
X47284871Y-173136642D01*
X47356300Y-173065214D01*
X47427728Y-172922357D01*
X47427728Y-172493785D01*
X47356300Y-172350928D01*
X47284871Y-172279500D01*
X47142014Y-172208071D01*
X46927728Y-172208071D01*
X46784871Y-172279500D01*
X46713442Y-172350928D01*
X46642014Y-172493785D01*
X46642014Y-172922357D01*
X46713442Y-173065214D01*
X46784871Y-173136642D01*
X46927728Y-173208071D01*
X47142014Y-173208071D01*
X45999157Y-173208071D02*
X45999157Y-172208071D01*
X45999157Y-172350928D02*
X45927728Y-172279500D01*
X45784871Y-172208071D01*
X45570585Y-172208071D01*
X45427728Y-172279500D01*
X45356300Y-172422357D01*
X45356300Y-173208071D01*
X45356300Y-172422357D02*
X45284871Y-172279500D01*
X45142014Y-172208071D01*
X44927728Y-172208071D01*
X44784871Y-172279500D01*
X44713442Y-172422357D01*
X44713442Y-173208071D01*
X77315471Y-175924871D02*
X77315471Y-174424871D01*
X76958328Y-174424871D01*
X76744042Y-174496300D01*
X76601185Y-174639157D01*
X76529757Y-174782014D01*
X76458328Y-175067728D01*
X76458328Y-175282014D01*
X76529757Y-175567728D01*
X76601185Y-175710585D01*
X76744042Y-175853442D01*
X76958328Y-175924871D01*
X77315471Y-175924871D01*
X75815471Y-175924871D02*
X75815471Y-174424871D01*
X75101185Y-175924871D02*
X75101185Y-174424871D01*
X74244042Y-175924871D01*
X74244042Y-174424871D01*
X72386900Y-175924871D02*
X72386900Y-174424871D01*
X71886900Y-175496300D01*
X71386900Y-174424871D01*
X71386900Y-175924871D01*
X69886900Y-175924871D02*
X70744042Y-175924871D01*
X70315471Y-175924871D02*
X70315471Y-174424871D01*
X70458328Y-174639157D01*
X70601185Y-174782014D01*
X70744042Y-174853442D01*
X67601185Y-175139157D02*
X67386900Y-175210585D01*
X67315471Y-175282014D01*
X67244042Y-175424871D01*
X67244042Y-175639157D01*
X67315471Y-175782014D01*
X67386900Y-175853442D01*
X67529757Y-175924871D01*
X68101185Y-175924871D01*
X68101185Y-174424871D01*
X67601185Y-174424871D01*
X67458328Y-174496300D01*
X67386900Y-174567728D01*
X67315471Y-174710585D01*
X67315471Y-174853442D01*
X67386900Y-174996300D01*
X67458328Y-175067728D01*
X67601185Y-175139157D01*
X68101185Y-175139157D01*
X65958328Y-175924871D02*
X65958328Y-175139157D01*
X66029757Y-174996300D01*
X66172614Y-174924871D01*
X66458328Y-174924871D01*
X66601185Y-174996300D01*
X65958328Y-175853442D02*
X66101185Y-175924871D01*
X66458328Y-175924871D01*
X66601185Y-175853442D01*
X66672614Y-175710585D01*
X66672614Y-175567728D01*
X66601185Y-175424871D01*
X66458328Y-175353442D01*
X66101185Y-175353442D01*
X65958328Y-175282014D01*
X65315471Y-175853442D02*
X65172614Y-175924871D01*
X64886900Y-175924871D01*
X64744042Y-175853442D01*
X64672614Y-175710585D01*
X64672614Y-175639157D01*
X64744042Y-175496300D01*
X64886900Y-175424871D01*
X65101185Y-175424871D01*
X65244042Y-175353442D01*
X65315471Y-175210585D01*
X65315471Y-175139157D01*
X65244042Y-174996300D01*
X65101185Y-174924871D01*
X64886900Y-174924871D01*
X64744042Y-174996300D01*
X63458328Y-175853442D02*
X63601185Y-175924871D01*
X63886900Y-175924871D01*
X64029757Y-175853442D01*
X64101185Y-175710585D01*
X64101185Y-175139157D01*
X64029757Y-174996300D01*
X63886900Y-174924871D01*
X63601185Y-174924871D01*
X63458328Y-174996300D01*
X63386900Y-175139157D01*
X63386900Y-175282014D01*
X64101185Y-175424871D01*
X61601185Y-175924871D02*
X61601185Y-174424871D01*
X61601185Y-174996300D02*
X61458328Y-174924871D01*
X61172614Y-174924871D01*
X61029757Y-174996300D01*
X60958328Y-175067728D01*
X60886900Y-175210585D01*
X60886900Y-175639157D01*
X60958328Y-175782014D01*
X61029757Y-175853442D01*
X61172614Y-175924871D01*
X61458328Y-175924871D01*
X61601185Y-175853442D01*
X60029757Y-175924871D02*
X60172614Y-175853442D01*
X60244042Y-175782014D01*
X60315471Y-175639157D01*
X60315471Y-175210585D01*
X60244042Y-175067728D01*
X60172614Y-174996300D01*
X60029757Y-174924871D01*
X59815471Y-174924871D01*
X59672614Y-174996300D01*
X59601185Y-175067728D01*
X59529757Y-175210585D01*
X59529757Y-175639157D01*
X59601185Y-175782014D01*
X59672614Y-175853442D01*
X59815471Y-175924871D01*
X60029757Y-175924871D01*
X58244042Y-175924871D02*
X58244042Y-175139157D01*
X58315471Y-174996300D01*
X58458328Y-174924871D01*
X58744042Y-174924871D01*
X58886900Y-174996300D01*
X58244042Y-175853442D02*
X58386900Y-175924871D01*
X58744042Y-175924871D01*
X58886900Y-175853442D01*
X58958328Y-175710585D01*
X58958328Y-175567728D01*
X58886900Y-175424871D01*
X58744042Y-175353442D01*
X58386900Y-175353442D01*
X58244042Y-175282014D01*
X57529757Y-175924871D02*
X57529757Y-174924871D01*
X57529757Y-175210585D02*
X57458328Y-175067728D01*
X57386900Y-174996300D01*
X57244042Y-174924871D01*
X57101185Y-174924871D01*
X55958328Y-175924871D02*
X55958328Y-174424871D01*
X55958328Y-175853442D02*
X56101185Y-175924871D01*
X56386900Y-175924871D01*
X56529757Y-175853442D01*
X56601185Y-175782014D01*
X56672614Y-175639157D01*
X56672614Y-175210585D01*
X56601185Y-175067728D01*
X56529757Y-174996300D01*
X56386900Y-174924871D01*
X56101185Y-174924871D01*
X55958328Y-174996300D01*
X69279757Y-178339871D02*
X69279757Y-177339871D01*
X69279757Y-177625585D02*
X69208328Y-177482728D01*
X69136900Y-177411300D01*
X68994042Y-177339871D01*
X68851185Y-177339871D01*
X67779757Y-178268442D02*
X67922614Y-178339871D01*
X68208328Y-178339871D01*
X68351185Y-178268442D01*
X68422614Y-178125585D01*
X68422614Y-177554157D01*
X68351185Y-177411300D01*
X68208328Y-177339871D01*
X67922614Y-177339871D01*
X67779757Y-177411300D01*
X67708328Y-177554157D01*
X67708328Y-177697014D01*
X68422614Y-177839871D01*
X67208328Y-177339871D02*
X66851185Y-178339871D01*
X66494042Y-177339871D01*
X64279757Y-177554157D02*
X64065471Y-177625585D01*
X63994042Y-177697014D01*
X63922614Y-177839871D01*
X63922614Y-178054157D01*
X63994042Y-178197014D01*
X64065471Y-178268442D01*
X64208328Y-178339871D01*
X64779757Y-178339871D01*
X64779757Y-176839871D01*
X64279757Y-176839871D01*
X64136900Y-176911300D01*
X64065471Y-176982728D01*
X63994042Y-177125585D01*
X63994042Y-177268442D01*
X64065471Y-177411300D01*
X64136900Y-177482728D01*
X64279757Y-177554157D01*
X64779757Y-177554157D01*
D11*
%TO.C,R2*%
X96140566Y-171662080D02*
X96473900Y-171185890D01*
X96711995Y-171662080D02*
X96711995Y-170662080D01*
X96331042Y-170662080D01*
X96235804Y-170709700D01*
X96188185Y-170757319D01*
X96140566Y-170852557D01*
X96140566Y-170995414D01*
X96188185Y-171090652D01*
X96235804Y-171138271D01*
X96331042Y-171185890D01*
X96711995Y-171185890D01*
X95759614Y-170757319D02*
X95711995Y-170709700D01*
X95616757Y-170662080D01*
X95378661Y-170662080D01*
X95283423Y-170709700D01*
X95235804Y-170757319D01*
X95188185Y-170852557D01*
X95188185Y-170947795D01*
X95235804Y-171090652D01*
X95807233Y-171662080D01*
X95188185Y-171662080D01*
%TO.C,R1*%
X93359266Y-167813980D02*
X93692600Y-167337790D01*
X93930695Y-167813980D02*
X93930695Y-166813980D01*
X93549742Y-166813980D01*
X93454504Y-166861600D01*
X93406885Y-166909219D01*
X93359266Y-167004457D01*
X93359266Y-167147314D01*
X93406885Y-167242552D01*
X93454504Y-167290171D01*
X93549742Y-167337790D01*
X93930695Y-167337790D01*
X92406885Y-167813980D02*
X92978314Y-167813980D01*
X92692600Y-167813980D02*
X92692600Y-166813980D01*
X92787838Y-166956838D01*
X92883076Y-167052076D01*
X92978314Y-167099695D01*
D12*
%TO.C,R2*%
X96200964Y-172124700D02*
X95746836Y-172124700D01*
X96200964Y-173594700D02*
X95746836Y-173594700D01*
%TO.C,R1*%
X93419664Y-169746600D02*
X92965536Y-169746600D01*
X93419664Y-168276600D02*
X92965536Y-168276600D01*
%TD*%
M02*
