%TF.GenerationSoftware,KiCad,Pcbnew,6.0.2+dfsg-1*%
%TF.CreationDate,2022-06-15T15:21:31+02:00*%
%TF.ProjectId,single_din_bottom,73696e67-6c65-45f6-9469-6e5f626f7474,rev?*%
%TF.SameCoordinates,Original*%
%TF.FileFunction,Copper,L1,Top*%
%TF.FilePolarity,Positive*%
%FSLAX46Y46*%
G04 Gerber Fmt 4.6, Leading zero omitted, Abs format (unit mm)*
G04 Created by KiCad (PCBNEW 6.0.2+dfsg-1) date 2022-06-15 15:21:31*
%MOMM*%
%LPD*%
G01*
G04 APERTURE LIST*
%TA.AperFunction,ComponentPad*%
%ADD10O,1.700000X1.700000*%
%TD*%
%TA.AperFunction,ComponentPad*%
%ADD11R,1.700000X1.700000*%
%TD*%
%TA.AperFunction,ComponentPad*%
%ADD12O,1.700000X2.500000*%
%TD*%
%TA.AperFunction,ComponentPad*%
%ADD13R,1.700000X2.500000*%
%TD*%
%TA.AperFunction,ComponentPad*%
%ADD14C,1.600000*%
%TD*%
%TA.AperFunction,ComponentPad*%
%ADD15R,1.600000X1.600000*%
%TD*%
%TA.AperFunction,ViaPad*%
%ADD16C,0.800000*%
%TD*%
%TA.AperFunction,Conductor*%
%ADD17C,1.000000*%
%TD*%
G04 APERTURE END LIST*
D10*
%TO.P,J2,4*%
%TO.N,/IO4*%
X107797600Y-176682400D03*
%TO.P,J2,3*%
%TO.N,/IO3*%
X107797600Y-174142400D03*
%TO.P,J2,2*%
%TO.N,/IO2*%
X107797600Y-171602400D03*
D11*
%TO.P,J2,1*%
%TO.N,/IO1*%
X107797600Y-169062400D03*
%TD*%
D10*
%TO.P,J1,4*%
%TO.N,/Vin*%
X37820600Y-169240200D03*
%TO.P,J1,3*%
%TO.N,Net-(J1-Pad3)*%
X37820600Y-171780200D03*
%TO.P,J1,2*%
%TO.N,Net-(J1-Pad2)*%
X37820600Y-174320200D03*
D11*
%TO.P,J1,1*%
%TO.N,GND*%
X37820600Y-176860200D03*
%TD*%
D10*
%TO.P,J4,4*%
%TO.N,/IO4*%
X92011500Y-177901600D03*
%TO.P,J4,3*%
%TO.N,/IO3*%
X89471500Y-177901600D03*
%TO.P,J4,2*%
%TO.N,/IO2*%
X86931500Y-177901600D03*
D11*
%TO.P,J4,1*%
%TO.N,/IO1*%
X84391500Y-177901600D03*
%TD*%
D12*
%TO.P,U1,3*%
%TO.N,/Vout*%
X77139800Y-168554400D03*
%TO.P,U1,2*%
%TO.N,GND*%
X74599800Y-168554400D03*
D13*
%TO.P,U1,1*%
%TO.N,/Vin*%
X72059800Y-168554400D03*
%TD*%
D10*
%TO.P,J3,4*%
%TO.N,Net-(J1-Pad2)*%
X61480700Y-177622200D03*
%TO.P,J3,3*%
%TO.N,Net-(J1-Pad3)*%
X58940700Y-177622200D03*
%TO.P,J3,2*%
%TO.N,/Vout*%
X56400700Y-177622200D03*
D11*
%TO.P,J3,1*%
%TO.N,GND*%
X53860700Y-177622200D03*
%TD*%
D14*
%TO.P,C2,2*%
%TO.N,GND*%
X88504400Y-170205400D03*
D15*
%TO.P,C2,1*%
%TO.N,/Vout*%
X86004400Y-170205400D03*
%TD*%
D14*
%TO.P,C1,2*%
%TO.N,GND*%
X62240800Y-169875200D03*
D15*
%TO.P,C1,1*%
%TO.N,/Vin*%
X59740800Y-169875200D03*
%TD*%
D16*
%TO.N,GND*%
X112344200Y-177546000D03*
X52311300Y-167500300D03*
%TO.N,/Vout*%
X75184000Y-174752000D03*
%TD*%
D17*
%TO.N,/Vin*%
X59105800Y-169240200D02*
X59740800Y-169875200D01*
X72059800Y-168554400D02*
X65976500Y-168554400D01*
X65976500Y-168554400D02*
X64833500Y-167411400D01*
X64833500Y-167411400D02*
X60871100Y-167411400D01*
X59740800Y-168541700D02*
X59740800Y-169875200D01*
X60871100Y-167411400D02*
X59740800Y-168541700D01*
X50609500Y-169875200D02*
X59740800Y-169875200D01*
X42011600Y-170319700D02*
X50165000Y-170319700D01*
X50165000Y-170319700D02*
X50609500Y-169875200D01*
X40932100Y-169240200D02*
X42011600Y-170319700D01*
X37820600Y-169240200D02*
X40932100Y-169240200D01*
%TO.N,/Vout*%
X84353400Y-168554400D02*
X86004400Y-170205400D01*
X77139800Y-168554400D02*
X84353400Y-168554400D01*
X77139800Y-168554400D02*
X77139800Y-172796200D01*
X77139800Y-172796200D02*
X75184000Y-174752000D01*
%TO.N,Net-(J1-Pad3)*%
X37820600Y-171780200D02*
X56464200Y-171780200D01*
X58940700Y-174256700D02*
X58940700Y-177622200D01*
X56464200Y-171780200D02*
X58940700Y-174256700D01*
%TO.N,Net-(J1-Pad2)*%
X59930699Y-179172201D02*
X61480700Y-177622200D01*
X52450699Y-179172201D02*
X59930699Y-179172201D01*
X47598698Y-174320200D02*
X52450699Y-179172201D01*
X37820600Y-174320200D02*
X47598698Y-174320200D01*
%TO.N,/IO4*%
X92011500Y-177901600D02*
X94678500Y-177901600D01*
X107215159Y-176099959D02*
X107797600Y-176682400D01*
X96480141Y-176099959D02*
X107215159Y-176099959D01*
X94678500Y-177901600D02*
X96480141Y-176099959D01*
%TO.N,/IO3*%
X89471500Y-177901600D02*
X89471500Y-177584100D01*
X89471500Y-177584100D02*
X92189300Y-174866300D01*
X92189300Y-174866300D02*
X95072200Y-174866300D01*
X95796100Y-174142400D02*
X107797600Y-174142400D01*
X95072200Y-174866300D02*
X95796100Y-174142400D01*
%TO.N,/IO2*%
X107797600Y-171602400D02*
X95034100Y-171602400D01*
X94881700Y-171653200D02*
X93268800Y-173266100D01*
X93421200Y-173215300D02*
X91719400Y-173215300D01*
X91719400Y-173215300D02*
X89674700Y-175260000D01*
X89674700Y-175260000D02*
X87490300Y-175260000D01*
X86931500Y-175818800D02*
X86931500Y-177901600D01*
X87490300Y-175260000D02*
X86931500Y-175818800D01*
%TO.N,/IO1*%
X91928400Y-170860000D02*
X88988900Y-173799500D01*
X88988900Y-173799500D02*
X85813900Y-173799500D01*
X84391500Y-175221900D02*
X84391500Y-177901600D01*
X85813900Y-173799500D02*
X84391500Y-175221900D01*
X91928400Y-170860000D02*
X92055400Y-170860000D01*
X106980801Y-169879199D02*
X107797600Y-169062400D01*
X93036201Y-169879199D02*
X106980801Y-169879199D01*
X92055400Y-170860000D02*
X93036201Y-169879199D01*
%TD*%
%TA.AperFunction,Conductor*%
%TO.N,GND*%
G36*
X41468851Y-166528002D02*
G01*
X41515344Y-166581658D01*
X41525795Y-166618676D01*
X41537555Y-166714652D01*
X41538069Y-166718851D01*
X41538795Y-166722016D01*
X41538796Y-166722023D01*
X41568287Y-166850633D01*
X41620433Y-167078043D01*
X41739464Y-167426805D01*
X41893887Y-167761405D01*
X41895548Y-167764201D01*
X41895549Y-167764204D01*
X41942792Y-167843758D01*
X42082051Y-168078261D01*
X42301941Y-168373983D01*
X42304152Y-168376390D01*
X42304154Y-168376393D01*
X42476290Y-168563832D01*
X42551205Y-168645407D01*
X42602519Y-168690817D01*
X42822661Y-168885632D01*
X42827175Y-168889627D01*
X43073713Y-169065986D01*
X43097107Y-169082721D01*
X43140874Y-169138622D01*
X43147470Y-169209312D01*
X43114802Y-169272346D01*
X43053241Y-169307712D01*
X43023799Y-169311200D01*
X42481524Y-169311200D01*
X42413403Y-169291198D01*
X42392429Y-169274295D01*
X41688955Y-168570821D01*
X41679853Y-168560678D01*
X41659997Y-168535982D01*
X41656132Y-168531175D01*
X41617678Y-168498908D01*
X41614031Y-168495728D01*
X41612219Y-168494085D01*
X41610025Y-168491891D01*
X41576751Y-168464558D01*
X41575953Y-168463896D01*
X41504626Y-168404046D01*
X41499956Y-168401478D01*
X41495839Y-168398097D01*
X41414014Y-168354223D01*
X41412855Y-168353594D01*
X41336719Y-168311738D01*
X41336711Y-168311735D01*
X41331313Y-168308767D01*
X41326231Y-168307155D01*
X41321537Y-168304638D01*
X41232569Y-168277438D01*
X41231541Y-168277118D01*
X41142794Y-168248965D01*
X41137498Y-168248371D01*
X41132402Y-168246813D01*
X41039843Y-168237410D01*
X41038707Y-168237289D01*
X41005092Y-168233519D01*
X40992370Y-168232092D01*
X40992366Y-168232092D01*
X40988873Y-168231700D01*
X40985346Y-168231700D01*
X40984361Y-168231645D01*
X40978681Y-168231198D01*
X40949275Y-168228211D01*
X40941763Y-168227448D01*
X40941761Y-168227448D01*
X40935638Y-168226826D01*
X40893359Y-168230823D01*
X40889991Y-168231141D01*
X40878133Y-168231700D01*
X38779399Y-168231700D01*
X38711278Y-168211698D01*
X38701307Y-168204582D01*
X38579014Y-168108000D01*
X38579010Y-168107998D01*
X38574959Y-168104798D01*
X38379389Y-167996838D01*
X38374520Y-167995114D01*
X38374516Y-167995112D01*
X38173687Y-167923995D01*
X38173683Y-167923994D01*
X38168812Y-167922269D01*
X38163719Y-167921362D01*
X38163716Y-167921361D01*
X37953973Y-167884000D01*
X37953967Y-167883999D01*
X37948884Y-167883094D01*
X37875052Y-167882192D01*
X37730681Y-167880428D01*
X37730679Y-167880428D01*
X37725511Y-167880365D01*
X37504691Y-167914155D01*
X37292356Y-167983557D01*
X37262043Y-167999337D01*
X37110432Y-168078261D01*
X37094207Y-168086707D01*
X37090074Y-168089810D01*
X37090071Y-168089812D01*
X36937212Y-168204582D01*
X36915565Y-168220835D01*
X36907958Y-168228795D01*
X36767051Y-168376246D01*
X36761229Y-168382338D01*
X36758315Y-168386610D01*
X36758314Y-168386611D01*
X36696696Y-168476940D01*
X36635343Y-168566880D01*
X36633164Y-168571575D01*
X36552803Y-168744699D01*
X36541288Y-168769505D01*
X36481589Y-168984770D01*
X36457851Y-169206895D01*
X36458148Y-169212048D01*
X36458148Y-169212051D01*
X36468791Y-169396626D01*
X36470710Y-169429915D01*
X36471847Y-169434961D01*
X36471848Y-169434967D01*
X36484486Y-169491044D01*
X36519822Y-169647839D01*
X36553498Y-169730773D01*
X36598200Y-169840861D01*
X36603866Y-169854816D01*
X36636502Y-169908073D01*
X36702834Y-170016317D01*
X36720587Y-170045288D01*
X36866850Y-170214138D01*
X37038726Y-170356832D01*
X37049307Y-170363015D01*
X37112045Y-170399676D01*
X37160769Y-170451314D01*
X37173840Y-170521097D01*
X37147109Y-170586869D01*
X37106655Y-170620227D01*
X37094207Y-170626707D01*
X37090074Y-170629810D01*
X37090071Y-170629812D01*
X36927734Y-170751698D01*
X36915565Y-170760835D01*
X36761229Y-170922338D01*
X36758315Y-170926610D01*
X36758314Y-170926611D01*
X36726481Y-170973277D01*
X36635343Y-171106880D01*
X36597820Y-171187717D01*
X36555464Y-171278966D01*
X36541288Y-171309505D01*
X36481589Y-171524770D01*
X36457851Y-171746895D01*
X36458148Y-171752048D01*
X36458148Y-171752051D01*
X36462650Y-171830124D01*
X36470710Y-171969915D01*
X36471847Y-171974961D01*
X36471848Y-171974967D01*
X36477104Y-171998288D01*
X36519822Y-172187839D01*
X36568889Y-172308677D01*
X36597227Y-172378465D01*
X36603866Y-172394816D01*
X36655542Y-172479144D01*
X36657104Y-172481692D01*
X36720587Y-172585288D01*
X36866850Y-172754138D01*
X37038726Y-172896832D01*
X37055314Y-172906525D01*
X37112045Y-172939676D01*
X37160769Y-172991314D01*
X37173840Y-173061097D01*
X37147109Y-173126869D01*
X37106655Y-173160227D01*
X37094207Y-173166707D01*
X37090074Y-173169810D01*
X37090071Y-173169812D01*
X36921637Y-173296276D01*
X36915565Y-173300835D01*
X36761229Y-173462338D01*
X36758315Y-173466610D01*
X36758314Y-173466611D01*
X36699346Y-173553055D01*
X36635343Y-173646880D01*
X36605929Y-173710247D01*
X36570175Y-173787274D01*
X36541288Y-173849505D01*
X36481589Y-174064770D01*
X36457851Y-174286895D01*
X36458148Y-174292048D01*
X36458148Y-174292051D01*
X36462214Y-174362563D01*
X36470710Y-174509915D01*
X36471847Y-174514961D01*
X36471848Y-174514967D01*
X36478797Y-174545800D01*
X36519822Y-174727839D01*
X36568889Y-174848677D01*
X36598370Y-174921280D01*
X36603866Y-174934816D01*
X36610329Y-174945362D01*
X36657104Y-175021692D01*
X36720587Y-175125288D01*
X36866850Y-175294138D01*
X36870825Y-175297438D01*
X36870831Y-175297444D01*
X36876025Y-175301756D01*
X36915659Y-175360660D01*
X36917155Y-175431641D01*
X36880039Y-175492162D01*
X36839768Y-175516680D01*
X36732546Y-175556876D01*
X36716951Y-175565414D01*
X36614876Y-175641915D01*
X36602315Y-175654476D01*
X36525814Y-175756551D01*
X36517276Y-175772146D01*
X36472122Y-175892594D01*
X36468495Y-175907849D01*
X36462969Y-175958714D01*
X36462600Y-175965528D01*
X36462600Y-176588085D01*
X36467075Y-176603324D01*
X36468465Y-176604529D01*
X36476148Y-176606200D01*
X39160484Y-176606200D01*
X39175723Y-176601725D01*
X39176928Y-176600335D01*
X39178599Y-176592652D01*
X39178599Y-175965531D01*
X39178229Y-175958710D01*
X39172705Y-175907848D01*
X39169079Y-175892596D01*
X39123924Y-175772146D01*
X39115386Y-175756551D01*
X39038885Y-175654476D01*
X39026324Y-175641915D01*
X38924246Y-175565412D01*
X38923895Y-175565220D01*
X38923614Y-175564939D01*
X38917062Y-175560028D01*
X38917771Y-175559082D01*
X38873749Y-175514962D01*
X38858735Y-175445571D01*
X38883620Y-175379079D01*
X38940503Y-175336595D01*
X38984404Y-175328700D01*
X47128773Y-175328700D01*
X47196894Y-175348702D01*
X47217868Y-175365605D01*
X49265292Y-177413028D01*
X51151633Y-179299369D01*
X51185659Y-179361681D01*
X51180594Y-179432496D01*
X51138047Y-179489332D01*
X51071527Y-179514143D01*
X51062538Y-179514464D01*
X48742833Y-179514464D01*
X48674712Y-179494462D01*
X48628219Y-179440806D01*
X48618135Y-179406533D01*
X48614631Y-179382347D01*
X48603792Y-179307550D01*
X48515876Y-178956706D01*
X48392822Y-178616591D01*
X48235897Y-178290714D01*
X48136448Y-178128653D01*
X48048397Y-177985165D01*
X48048392Y-177985157D01*
X48046723Y-177982438D01*
X47949875Y-177855573D01*
X47829199Y-177697495D01*
X47829193Y-177697488D01*
X47827251Y-177694944D01*
X47709566Y-177569537D01*
X47581932Y-177433528D01*
X47581927Y-177433523D01*
X47579745Y-177431198D01*
X47577339Y-177429106D01*
X47577333Y-177429101D01*
X47309176Y-177196023D01*
X47306759Y-177193922D01*
X47011111Y-176985564D01*
X46695850Y-176808274D01*
X46692908Y-176806993D01*
X46692904Y-176806991D01*
X46552001Y-176745640D01*
X46364230Y-176663882D01*
X46019672Y-176553877D01*
X46016535Y-176553217D01*
X46016528Y-176553215D01*
X45668875Y-176480055D01*
X45668871Y-176480054D01*
X45665733Y-176479394D01*
X45306063Y-176441202D01*
X45126284Y-176440453D01*
X44947578Y-176439708D01*
X44947571Y-176439708D01*
X44944374Y-176439695D01*
X44584399Y-176474888D01*
X44229851Y-176546419D01*
X43884388Y-176653549D01*
X43881444Y-176654802D01*
X43881438Y-176654804D01*
X43710540Y-176727528D01*
X43551577Y-176795173D01*
X43548786Y-176796712D01*
X43548782Y-176796714D01*
X43484852Y-176831968D01*
X43234850Y-176969830D01*
X42937475Y-177175717D01*
X42790397Y-177301420D01*
X42677327Y-177398057D01*
X42662522Y-177410710D01*
X42492494Y-177588895D01*
X42424988Y-177659640D01*
X42412827Y-177672384D01*
X42410869Y-177674905D01*
X42198566Y-177948254D01*
X42190966Y-177958039D01*
X41999230Y-178264728D01*
X41986449Y-178290714D01*
X41843787Y-178580764D01*
X41839595Y-178589286D01*
X41814433Y-178657062D01*
X41718947Y-178914259D01*
X41713710Y-178928364D01*
X41622874Y-179278464D01*
X41609467Y-179365848D01*
X41606936Y-179382347D01*
X41576835Y-179446646D01*
X41516749Y-179484465D01*
X41482423Y-179489239D01*
X30634029Y-179491848D01*
X30565905Y-179471862D01*
X30519399Y-179418218D01*
X30508000Y-179365848D01*
X30508000Y-177754869D01*
X36462601Y-177754869D01*
X36462971Y-177761690D01*
X36468495Y-177812552D01*
X36472121Y-177827804D01*
X36517276Y-177948254D01*
X36525814Y-177963849D01*
X36602315Y-178065924D01*
X36614876Y-178078485D01*
X36716951Y-178154986D01*
X36732546Y-178163524D01*
X36852994Y-178208678D01*
X36868249Y-178212305D01*
X36919114Y-178217831D01*
X36925928Y-178218200D01*
X37548485Y-178218200D01*
X37563724Y-178213725D01*
X37564929Y-178212335D01*
X37566600Y-178204652D01*
X37566600Y-178200084D01*
X38074600Y-178200084D01*
X38079075Y-178215323D01*
X38080465Y-178216528D01*
X38088148Y-178218199D01*
X38715269Y-178218199D01*
X38722090Y-178217829D01*
X38772952Y-178212305D01*
X38788204Y-178208679D01*
X38908654Y-178163524D01*
X38924249Y-178154986D01*
X39026324Y-178078485D01*
X39038885Y-178065924D01*
X39115386Y-177963849D01*
X39123924Y-177948254D01*
X39169078Y-177827806D01*
X39172705Y-177812551D01*
X39178231Y-177761686D01*
X39178600Y-177754872D01*
X39178600Y-177132315D01*
X39174125Y-177117076D01*
X39172735Y-177115871D01*
X39165052Y-177114200D01*
X38092715Y-177114200D01*
X38077476Y-177118675D01*
X38076271Y-177120065D01*
X38074600Y-177127748D01*
X38074600Y-178200084D01*
X37566600Y-178200084D01*
X37566600Y-177132315D01*
X37562125Y-177117076D01*
X37560735Y-177115871D01*
X37553052Y-177114200D01*
X36480716Y-177114200D01*
X36465477Y-177118675D01*
X36464272Y-177120065D01*
X36462601Y-177127748D01*
X36462601Y-177754869D01*
X30508000Y-177754869D01*
X30508000Y-166634000D01*
X30528002Y-166565879D01*
X30581658Y-166519386D01*
X30634000Y-166508000D01*
X41400730Y-166508000D01*
X41468851Y-166528002D01*
G37*
%TD.AperFunction*%
%TA.AperFunction,Conductor*%
G36*
X97374506Y-166529702D02*
G01*
X97420999Y-166583358D01*
X97431449Y-166620367D01*
X97443523Y-166718849D01*
X97525908Y-167078014D01*
X97644956Y-167426748D01*
X97646318Y-167429700D01*
X97646319Y-167429701D01*
X97700136Y-167546292D01*
X97799391Y-167761319D01*
X97987561Y-168078146D01*
X98207453Y-168373840D01*
X98456715Y-168645237D01*
X98462478Y-168650337D01*
X98500240Y-168710456D01*
X98499504Y-168781449D01*
X98460503Y-168840774D01*
X98395620Y-168869596D01*
X98378982Y-168870699D01*
X93098043Y-168870699D01*
X93084436Y-168869962D01*
X93052938Y-168866540D01*
X93052933Y-168866540D01*
X93046812Y-168865875D01*
X93028812Y-168867450D01*
X92996810Y-168870249D01*
X92991985Y-168870578D01*
X92989514Y-168870699D01*
X92986432Y-168870699D01*
X92963964Y-168872902D01*
X92943690Y-168874890D01*
X92942375Y-168875012D01*
X92910114Y-168877835D01*
X92849788Y-168883112D01*
X92844669Y-168884599D01*
X92839368Y-168885119D01*
X92750367Y-168911990D01*
X92749234Y-168912325D01*
X92665787Y-168936569D01*
X92665783Y-168936571D01*
X92659865Y-168938290D01*
X92655133Y-168940743D01*
X92650032Y-168942283D01*
X92644589Y-168945177D01*
X92567941Y-168985930D01*
X92566775Y-168986542D01*
X92492200Y-169025199D01*
X92484275Y-169029307D01*
X92480112Y-169032630D01*
X92475405Y-169035133D01*
X92403283Y-169093954D01*
X92402427Y-169094645D01*
X92363228Y-169125937D01*
X92360724Y-169128441D01*
X92360006Y-169129083D01*
X92355673Y-169132784D01*
X92322139Y-169160134D01*
X92292910Y-169195466D01*
X92284929Y-169204236D01*
X91935277Y-169553889D01*
X91599289Y-169889877D01*
X91557276Y-169917577D01*
X91552064Y-169919091D01*
X91547332Y-169921544D01*
X91542231Y-169923084D01*
X91536788Y-169925978D01*
X91460140Y-169966731D01*
X91458974Y-169967343D01*
X91428999Y-169982881D01*
X91376474Y-170010108D01*
X91372311Y-170013431D01*
X91367604Y-170015934D01*
X91362829Y-170019828D01*
X91362828Y-170019829D01*
X91295502Y-170074739D01*
X91294475Y-170075567D01*
X91258192Y-170104531D01*
X91258187Y-170104536D01*
X91255428Y-170106738D01*
X91252927Y-170109239D01*
X91252209Y-170109881D01*
X91247861Y-170113594D01*
X91238341Y-170121358D01*
X91214338Y-170140935D01*
X91210415Y-170145677D01*
X91210413Y-170145679D01*
X91185103Y-170176273D01*
X91177113Y-170185053D01*
X88608071Y-172754095D01*
X88545759Y-172788121D01*
X88518976Y-172791000D01*
X85875740Y-172791000D01*
X85862132Y-172790263D01*
X85830636Y-172786841D01*
X85830632Y-172786841D01*
X85824511Y-172786176D01*
X85806511Y-172787751D01*
X85774509Y-172790550D01*
X85769684Y-172790879D01*
X85767213Y-172791000D01*
X85764131Y-172791000D01*
X85741663Y-172793203D01*
X85721389Y-172795191D01*
X85720074Y-172795313D01*
X85690322Y-172797916D01*
X85627487Y-172803413D01*
X85622368Y-172804900D01*
X85617067Y-172805420D01*
X85528094Y-172832282D01*
X85526954Y-172832620D01*
X85437563Y-172858591D01*
X85432829Y-172861045D01*
X85427731Y-172862584D01*
X85422287Y-172865478D01*
X85422286Y-172865479D01*
X85345731Y-172906184D01*
X85344563Y-172906798D01*
X85261974Y-172949608D01*
X85257811Y-172952931D01*
X85253104Y-172955434D01*
X85248330Y-172959328D01*
X85248328Y-172959329D01*
X85181005Y-173014237D01*
X85180060Y-173015000D01*
X85140927Y-173046239D01*
X85138436Y-173048730D01*
X85137709Y-173049380D01*
X85133363Y-173053092D01*
X85120532Y-173063557D01*
X85099838Y-173080435D01*
X85095915Y-173085177D01*
X85095913Y-173085179D01*
X85070603Y-173115773D01*
X85062613Y-173124553D01*
X83722121Y-174465045D01*
X83711978Y-174474147D01*
X83682475Y-174497868D01*
X83668127Y-174514967D01*
X83650209Y-174536321D01*
X83647028Y-174539969D01*
X83645385Y-174541781D01*
X83643191Y-174543975D01*
X83615858Y-174577249D01*
X83615196Y-174578047D01*
X83555346Y-174649374D01*
X83552778Y-174654044D01*
X83549397Y-174658161D01*
X83540672Y-174674434D01*
X83505523Y-174739986D01*
X83504894Y-174741145D01*
X83463038Y-174817281D01*
X83463035Y-174817289D01*
X83460067Y-174822687D01*
X83458455Y-174827769D01*
X83455938Y-174832463D01*
X83428738Y-174921431D01*
X83428418Y-174922459D01*
X83400265Y-175011206D01*
X83399671Y-175016502D01*
X83398113Y-175021598D01*
X83397490Y-175027734D01*
X83388718Y-175114087D01*
X83388589Y-175115293D01*
X83383000Y-175165127D01*
X83383000Y-175168654D01*
X83382945Y-175169639D01*
X83382498Y-175175319D01*
X83378126Y-175218362D01*
X83378706Y-175224493D01*
X83382441Y-175264009D01*
X83383000Y-175275867D01*
X83383000Y-176480591D01*
X83362998Y-176548712D01*
X83309342Y-176595205D01*
X83303806Y-176597503D01*
X83303204Y-176597832D01*
X83294795Y-176600985D01*
X83178239Y-176688339D01*
X83090885Y-176804895D01*
X83039755Y-176941284D01*
X83033000Y-177003466D01*
X83033000Y-178799734D01*
X83039755Y-178861916D01*
X83090885Y-178998305D01*
X83178239Y-179114861D01*
X83294795Y-179202215D01*
X83431184Y-179253345D01*
X83493366Y-179260100D01*
X85289634Y-179260100D01*
X85351816Y-179253345D01*
X85488205Y-179202215D01*
X85604761Y-179114861D01*
X85692115Y-178998305D01*
X85706236Y-178960637D01*
X85736098Y-178880982D01*
X85778740Y-178824218D01*
X85845302Y-178799518D01*
X85914650Y-178814726D01*
X85949317Y-178842714D01*
X85977750Y-178875538D01*
X86149626Y-179018232D01*
X86342500Y-179130938D01*
X86551192Y-179210630D01*
X86556260Y-179211661D01*
X86556263Y-179211662D01*
X86663517Y-179233483D01*
X86770097Y-179255167D01*
X86775272Y-179255357D01*
X86775274Y-179255357D01*
X86971411Y-179262549D01*
X86981275Y-179265842D01*
X86993397Y-179263818D01*
X86993337Y-179263353D01*
X87209788Y-179235625D01*
X87209789Y-179235625D01*
X87214916Y-179234968D01*
X87219866Y-179233483D01*
X87423929Y-179172261D01*
X87423934Y-179172259D01*
X87428884Y-179170774D01*
X87629494Y-179072496D01*
X87811360Y-178942773D01*
X87825820Y-178928364D01*
X87939855Y-178814726D01*
X87969596Y-178785089D01*
X87993660Y-178751601D01*
X88099953Y-178603677D01*
X88101276Y-178604628D01*
X88148145Y-178561457D01*
X88218080Y-178549225D01*
X88283526Y-178576744D01*
X88311375Y-178608594D01*
X88371487Y-178706688D01*
X88517750Y-178875538D01*
X88689626Y-179018232D01*
X88882500Y-179130938D01*
X89091192Y-179210630D01*
X89096260Y-179211661D01*
X89096263Y-179211662D01*
X89203517Y-179233483D01*
X89310097Y-179255167D01*
X89315272Y-179255357D01*
X89315274Y-179255357D01*
X89511411Y-179262549D01*
X89521275Y-179265842D01*
X89533397Y-179263818D01*
X89533337Y-179263353D01*
X89749788Y-179235625D01*
X89749789Y-179235625D01*
X89754916Y-179234968D01*
X89759866Y-179233483D01*
X89963929Y-179172261D01*
X89963934Y-179172259D01*
X89968884Y-179170774D01*
X90169494Y-179072496D01*
X90351360Y-178942773D01*
X90365820Y-178928364D01*
X90479855Y-178814726D01*
X90509596Y-178785089D01*
X90533660Y-178751601D01*
X90639953Y-178603677D01*
X90641276Y-178604628D01*
X90688145Y-178561457D01*
X90758080Y-178549225D01*
X90823526Y-178576744D01*
X90851375Y-178608594D01*
X90911487Y-178706688D01*
X91057750Y-178875538D01*
X91229626Y-179018232D01*
X91422500Y-179130938D01*
X91631192Y-179210630D01*
X91636260Y-179211661D01*
X91636263Y-179211662D01*
X91743517Y-179233483D01*
X91850097Y-179255167D01*
X91855272Y-179255357D01*
X91855274Y-179255357D01*
X92051411Y-179262549D01*
X92061275Y-179265842D01*
X92073397Y-179263818D01*
X92073337Y-179263353D01*
X92289788Y-179235625D01*
X92289789Y-179235625D01*
X92294916Y-179234968D01*
X92299866Y-179233483D01*
X92503929Y-179172261D01*
X92503934Y-179172259D01*
X92508884Y-179170774D01*
X92709494Y-179072496D01*
X92891360Y-178942773D01*
X92894386Y-178939757D01*
X92959088Y-178911170D01*
X92975476Y-178910100D01*
X94616657Y-178910100D01*
X94630264Y-178910837D01*
X94661762Y-178914259D01*
X94661767Y-178914259D01*
X94667888Y-178914924D01*
X94694138Y-178912627D01*
X94717888Y-178910550D01*
X94722714Y-178910221D01*
X94725186Y-178910100D01*
X94728269Y-178910100D01*
X94740238Y-178908926D01*
X94771006Y-178905910D01*
X94772319Y-178905788D01*
X94816584Y-178901915D01*
X94864913Y-178897687D01*
X94870032Y-178896200D01*
X94875333Y-178895680D01*
X94964334Y-178868809D01*
X94965467Y-178868474D01*
X95048914Y-178844230D01*
X95048918Y-178844228D01*
X95054836Y-178842509D01*
X95059568Y-178840056D01*
X95064669Y-178838516D01*
X95076456Y-178832249D01*
X95146760Y-178794869D01*
X95147926Y-178794257D01*
X95224953Y-178754329D01*
X95230426Y-178751492D01*
X95234589Y-178748169D01*
X95239296Y-178745666D01*
X95311418Y-178686845D01*
X95312274Y-178686154D01*
X95351473Y-178654862D01*
X95353977Y-178652358D01*
X95354695Y-178651716D01*
X95359028Y-178648015D01*
X95392562Y-178620665D01*
X95421788Y-178585337D01*
X95429777Y-178576558D01*
X96141521Y-177864814D01*
X96860970Y-177145364D01*
X96923282Y-177111339D01*
X96950065Y-177108459D01*
X98349441Y-177108459D01*
X98417562Y-177128461D01*
X98464055Y-177182117D01*
X98474159Y-177252391D01*
X98444665Y-177316971D01*
X98436499Y-177325547D01*
X98359059Y-177399561D01*
X98349393Y-177408799D01*
X98243128Y-177533287D01*
X98124780Y-177671931D01*
X98114776Y-177683650D01*
X97909195Y-177980844D01*
X97904377Y-177989585D01*
X97736303Y-178294529D01*
X97736298Y-178294538D01*
X97734762Y-178297326D01*
X97593270Y-178629844D01*
X97557449Y-178745283D01*
X97490625Y-178960637D01*
X97486174Y-178974980D01*
X97414574Y-179329185D01*
X97410969Y-179365848D01*
X97407532Y-179400795D01*
X97380960Y-179466631D01*
X97323011Y-179507650D01*
X97282137Y-179514464D01*
X92086438Y-179514464D01*
X92074593Y-179510986D01*
X92046794Y-179514464D01*
X89546438Y-179514464D01*
X89534593Y-179510986D01*
X89506794Y-179514464D01*
X87006438Y-179514464D01*
X86994593Y-179510986D01*
X86966794Y-179514464D01*
X61318862Y-179514464D01*
X61250741Y-179494462D01*
X61204248Y-179440806D01*
X61194144Y-179370532D01*
X61223638Y-179305952D01*
X61229766Y-179299369D01*
X61515152Y-179013982D01*
X61577465Y-178979957D01*
X61588234Y-178978099D01*
X61663831Y-178968415D01*
X61758989Y-178956225D01*
X61758992Y-178956224D01*
X61764116Y-178955568D01*
X61806764Y-178942773D01*
X61973129Y-178892861D01*
X61973134Y-178892859D01*
X61978084Y-178891374D01*
X62178694Y-178793096D01*
X62360560Y-178663373D01*
X62394207Y-178629844D01*
X62473869Y-178550459D01*
X62518796Y-178505689D01*
X62649153Y-178324277D01*
X62663856Y-178294529D01*
X62745836Y-178128653D01*
X62745837Y-178128651D01*
X62748130Y-178124011D01*
X62794598Y-177971067D01*
X62811565Y-177915223D01*
X62811565Y-177915221D01*
X62813070Y-177910269D01*
X62842229Y-177688790D01*
X62843022Y-177656338D01*
X62843774Y-177625565D01*
X62843774Y-177625561D01*
X62843856Y-177622200D01*
X62825552Y-177399561D01*
X62771131Y-177182902D01*
X62682054Y-176978040D01*
X62614164Y-176873098D01*
X62563522Y-176794817D01*
X62563520Y-176794814D01*
X62560714Y-176790477D01*
X62410370Y-176625251D01*
X62406319Y-176622052D01*
X62406315Y-176622048D01*
X62239114Y-176490000D01*
X62239110Y-176489998D01*
X62235059Y-176486798D01*
X62221035Y-176479056D01*
X62153074Y-176441540D01*
X62039489Y-176378838D01*
X62034620Y-176377114D01*
X62034616Y-176377112D01*
X61833787Y-176305995D01*
X61833783Y-176305994D01*
X61828912Y-176304269D01*
X61823819Y-176303362D01*
X61823816Y-176303361D01*
X61614073Y-176266000D01*
X61614067Y-176265999D01*
X61608984Y-176265094D01*
X61535152Y-176264192D01*
X61390781Y-176262428D01*
X61390779Y-176262428D01*
X61385611Y-176262365D01*
X61164791Y-176296155D01*
X60952456Y-176365557D01*
X60896857Y-176394500D01*
X60764066Y-176463627D01*
X60754307Y-176468707D01*
X60750174Y-176471810D01*
X60750171Y-176471812D01*
X60579800Y-176599730D01*
X60575665Y-176602835D01*
X60572093Y-176606573D01*
X60433873Y-176751212D01*
X60421329Y-176764338D01*
X60313901Y-176921821D01*
X60258993Y-176966821D01*
X60188468Y-176974992D01*
X60124721Y-176943738D01*
X60104024Y-176919254D01*
X60023525Y-176794821D01*
X60023520Y-176794815D01*
X60020714Y-176790477D01*
X60017232Y-176786650D01*
X59982006Y-176747937D01*
X59950954Y-176684091D01*
X59949200Y-176663138D01*
X59949200Y-174748462D01*
X74170626Y-174748462D01*
X74177568Y-174821899D01*
X74187790Y-174930029D01*
X74189239Y-174945362D01*
X74190999Y-174951265D01*
X74239538Y-175114087D01*
X74245741Y-175134896D01*
X74337982Y-175309846D01*
X74341858Y-175314632D01*
X74341859Y-175314634D01*
X74442600Y-175439038D01*
X74462447Y-175463547D01*
X74467182Y-175467492D01*
X74584712Y-175565414D01*
X74614396Y-175590146D01*
X74788041Y-175684822D01*
X74871534Y-175710987D01*
X74970886Y-175742122D01*
X74970889Y-175742123D01*
X74976768Y-175743965D01*
X74982891Y-175744630D01*
X74982895Y-175744631D01*
X75167263Y-175764659D01*
X75167267Y-175764659D01*
X75173388Y-175765324D01*
X75370413Y-175748087D01*
X75376330Y-175746368D01*
X75376335Y-175746367D01*
X75507064Y-175708386D01*
X75560336Y-175692909D01*
X75735926Y-175601892D01*
X75770037Y-175574662D01*
X75854223Y-175507458D01*
X75854230Y-175507451D01*
X75856973Y-175505262D01*
X77809179Y-173553055D01*
X77819322Y-173543953D01*
X77844018Y-173524097D01*
X77848825Y-173520232D01*
X77881092Y-173481778D01*
X77884272Y-173478131D01*
X77885915Y-173476319D01*
X77888109Y-173474125D01*
X77915442Y-173440851D01*
X77916148Y-173440000D01*
X77920996Y-173434223D01*
X77975954Y-173368726D01*
X77978522Y-173364056D01*
X77981903Y-173359939D01*
X78015259Y-173297730D01*
X78025777Y-173278114D01*
X78026406Y-173276955D01*
X78068262Y-173200819D01*
X78068265Y-173200811D01*
X78071233Y-173195413D01*
X78072845Y-173190331D01*
X78075362Y-173185637D01*
X78102547Y-173096723D01*
X78102939Y-173095465D01*
X78129172Y-173012767D01*
X78131035Y-173006894D01*
X78131629Y-173001603D01*
X78133188Y-172996502D01*
X78142590Y-172903937D01*
X78142725Y-172902670D01*
X78143088Y-172899442D01*
X78147609Y-172859135D01*
X78147908Y-172856470D01*
X78147908Y-172856465D01*
X78148300Y-172852973D01*
X78148300Y-172849448D01*
X78148355Y-172848463D01*
X78148804Y-172842759D01*
X78152552Y-172805866D01*
X78152552Y-172805861D01*
X78153174Y-172799738D01*
X78148859Y-172754091D01*
X78148300Y-172742233D01*
X78148300Y-169912101D01*
X78168302Y-169843980D01*
X78176866Y-169832210D01*
X78260040Y-169730773D01*
X78260044Y-169730767D01*
X78263424Y-169726645D01*
X78320391Y-169626568D01*
X78371473Y-169577262D01*
X78429893Y-169562900D01*
X83883474Y-169562900D01*
X83951595Y-169582902D01*
X83972569Y-169599804D01*
X84658995Y-170286229D01*
X84693020Y-170348542D01*
X84695900Y-170375325D01*
X84695900Y-171053534D01*
X84702655Y-171115716D01*
X84753785Y-171252105D01*
X84841139Y-171368661D01*
X84957695Y-171456015D01*
X85094084Y-171507145D01*
X85156266Y-171513900D01*
X86852534Y-171513900D01*
X86914716Y-171507145D01*
X87051105Y-171456015D01*
X87167661Y-171368661D01*
X87225519Y-171291462D01*
X87782893Y-171291462D01*
X87792189Y-171303477D01*
X87843394Y-171339331D01*
X87852889Y-171344814D01*
X88050347Y-171436890D01*
X88060639Y-171440636D01*
X88271088Y-171497025D01*
X88281881Y-171498928D01*
X88498925Y-171517917D01*
X88509875Y-171517917D01*
X88726919Y-171498928D01*
X88737712Y-171497025D01*
X88948161Y-171440636D01*
X88958453Y-171436890D01*
X89155911Y-171344814D01*
X89165406Y-171339331D01*
X89217448Y-171302891D01*
X89225824Y-171292412D01*
X89218756Y-171278966D01*
X88517212Y-170577422D01*
X88503268Y-170569808D01*
X88501435Y-170569939D01*
X88494820Y-170574190D01*
X87789323Y-171279687D01*
X87782893Y-171291462D01*
X87225519Y-171291462D01*
X87255015Y-171252105D01*
X87306145Y-171115716D01*
X87312900Y-171053534D01*
X87312900Y-171050215D01*
X87336553Y-170983290D01*
X87382556Y-170947596D01*
X87381541Y-170945666D01*
X87392400Y-170939958D01*
X87392645Y-170939768D01*
X87392803Y-170939747D01*
X87430834Y-170919756D01*
X88132378Y-170218212D01*
X88138756Y-170206532D01*
X88868808Y-170206532D01*
X88868939Y-170208365D01*
X88873190Y-170214980D01*
X89578687Y-170920477D01*
X89590462Y-170926907D01*
X89602477Y-170917611D01*
X89638331Y-170866406D01*
X89643814Y-170856911D01*
X89735890Y-170659453D01*
X89739636Y-170649161D01*
X89796025Y-170438712D01*
X89797928Y-170427919D01*
X89816917Y-170210875D01*
X89816917Y-170199925D01*
X89797928Y-169982881D01*
X89796025Y-169972088D01*
X89739636Y-169761639D01*
X89735890Y-169751347D01*
X89643814Y-169553889D01*
X89638331Y-169544394D01*
X89601891Y-169492352D01*
X89591412Y-169483976D01*
X89577966Y-169491044D01*
X88876422Y-170192588D01*
X88868808Y-170206532D01*
X88138756Y-170206532D01*
X88139992Y-170204268D01*
X88139861Y-170202435D01*
X88135610Y-170195820D01*
X87430113Y-169490323D01*
X87388371Y-169467529D01*
X87378371Y-169465353D01*
X87328173Y-169415147D01*
X87312949Y-169361586D01*
X87312900Y-169360681D01*
X87312900Y-169357266D01*
X87306145Y-169295084D01*
X87255015Y-169158695D01*
X87224807Y-169118388D01*
X87782976Y-169118388D01*
X87790044Y-169131834D01*
X88491588Y-169833378D01*
X88505532Y-169840992D01*
X88507365Y-169840861D01*
X88513980Y-169836610D01*
X89219477Y-169131113D01*
X89225907Y-169119338D01*
X89216611Y-169107323D01*
X89165406Y-169071469D01*
X89155911Y-169065986D01*
X88958453Y-168973910D01*
X88948161Y-168970164D01*
X88737712Y-168913775D01*
X88726919Y-168911872D01*
X88509875Y-168892883D01*
X88498925Y-168892883D01*
X88281881Y-168911872D01*
X88271088Y-168913775D01*
X88060639Y-168970164D01*
X88050347Y-168973910D01*
X87852889Y-169065986D01*
X87843394Y-169071469D01*
X87791352Y-169107909D01*
X87782976Y-169118388D01*
X87224807Y-169118388D01*
X87167661Y-169042139D01*
X87051105Y-168954785D01*
X86914716Y-168903655D01*
X86852534Y-168896900D01*
X86174324Y-168896900D01*
X86106203Y-168876898D01*
X86085229Y-168859995D01*
X85110255Y-167885021D01*
X85101153Y-167874878D01*
X85081297Y-167850182D01*
X85077432Y-167845375D01*
X85038978Y-167813108D01*
X85035331Y-167809928D01*
X85033519Y-167808285D01*
X85031325Y-167806091D01*
X84998051Y-167778758D01*
X84997253Y-167778096D01*
X84925926Y-167718246D01*
X84921256Y-167715678D01*
X84917139Y-167712297D01*
X84835314Y-167668423D01*
X84834155Y-167667794D01*
X84758019Y-167625938D01*
X84758011Y-167625935D01*
X84752613Y-167622967D01*
X84747531Y-167621355D01*
X84742837Y-167618838D01*
X84653869Y-167591638D01*
X84652841Y-167591318D01*
X84564094Y-167563165D01*
X84558798Y-167562571D01*
X84553702Y-167561013D01*
X84461143Y-167551610D01*
X84460007Y-167551489D01*
X84426392Y-167547719D01*
X84413670Y-167546292D01*
X84413666Y-167546292D01*
X84410173Y-167545900D01*
X84406646Y-167545900D01*
X84405661Y-167545845D01*
X84399981Y-167545398D01*
X84370575Y-167542411D01*
X84363063Y-167541648D01*
X84363061Y-167541648D01*
X84356938Y-167541026D01*
X84314659Y-167545023D01*
X84311291Y-167545341D01*
X84299433Y-167545900D01*
X78434920Y-167545900D01*
X78366799Y-167525898D01*
X78330400Y-167490267D01*
X78254835Y-167378027D01*
X78202359Y-167300081D01*
X78160562Y-167256266D01*
X78118503Y-167212178D01*
X78043224Y-167133265D01*
X77858258Y-166995646D01*
X77853507Y-166993230D01*
X77853503Y-166993228D01*
X77755504Y-166943403D01*
X77652749Y-166891160D01*
X77647655Y-166889578D01*
X77647652Y-166889577D01*
X77437671Y-166824376D01*
X77432573Y-166822793D01*
X77427284Y-166822092D01*
X77209311Y-166793202D01*
X77209306Y-166793202D01*
X77204026Y-166792502D01*
X77198697Y-166792702D01*
X77198695Y-166792702D01*
X77103684Y-166796269D01*
X76973642Y-166801151D01*
X76748009Y-166848493D01*
X76743050Y-166850451D01*
X76743048Y-166850452D01*
X76538544Y-166931215D01*
X76538542Y-166931216D01*
X76533579Y-166933176D01*
X76529020Y-166935943D01*
X76529017Y-166935944D01*
X76433913Y-166993655D01*
X76336483Y-167052777D01*
X76332453Y-167056274D01*
X76177838Y-167190442D01*
X76162355Y-167203877D01*
X76128284Y-167245430D01*
X76019560Y-167378027D01*
X76019556Y-167378033D01*
X76016176Y-167382155D01*
X75989071Y-167429773D01*
X75979647Y-167446328D01*
X75928565Y-167495634D01*
X75858935Y-167509496D01*
X75792864Y-167483513D01*
X75765625Y-167454363D01*
X75664950Y-167304825D01*
X75658281Y-167296530D01*
X75506572Y-167137500D01*
X75498614Y-167130459D01*
X75322275Y-166999259D01*
X75313238Y-166993655D01*
X75117316Y-166894043D01*
X75107465Y-166890043D01*
X74897560Y-166824866D01*
X74887176Y-166822583D01*
X74871757Y-166820539D01*
X74857593Y-166822735D01*
X74853800Y-166835922D01*
X74853800Y-170270592D01*
X74857773Y-170284123D01*
X74868380Y-170285648D01*
X74986221Y-170260923D01*
X74996417Y-170257863D01*
X75200829Y-170177137D01*
X75210361Y-170172406D01*
X75398262Y-170058384D01*
X75406852Y-170052120D01*
X75572852Y-169908073D01*
X75580272Y-169900442D01*
X75719626Y-169730489D01*
X75725650Y-169721722D01*
X75759365Y-169662494D01*
X75810447Y-169613188D01*
X75880077Y-169599326D01*
X75946148Y-169625309D01*
X75973387Y-169654459D01*
X76074258Y-169804289D01*
X76074261Y-169804293D01*
X76077241Y-169808719D01*
X76080928Y-169812584D01*
X76096469Y-169828875D01*
X76129017Y-169891971D01*
X76131300Y-169915847D01*
X76131300Y-172326275D01*
X76111298Y-172394396D01*
X76094395Y-172415370D01*
X74435691Y-174074075D01*
X74341897Y-174188261D01*
X74248438Y-174362563D01*
X74246636Y-174368458D01*
X74204968Y-174504747D01*
X74190613Y-174551698D01*
X74189990Y-174557833D01*
X74171422Y-174740628D01*
X74170626Y-174748462D01*
X59949200Y-174748462D01*
X59949200Y-174318543D01*
X59949937Y-174304936D01*
X59953359Y-174273438D01*
X59953359Y-174273433D01*
X59954024Y-174267312D01*
X59949650Y-174217312D01*
X59949321Y-174212486D01*
X59949200Y-174210014D01*
X59949200Y-174206931D01*
X59946902Y-174183498D01*
X59945010Y-174164194D01*
X59944888Y-174162881D01*
X59941015Y-174118616D01*
X59936787Y-174070287D01*
X59935300Y-174065168D01*
X59934780Y-174059867D01*
X59907909Y-173970866D01*
X59907574Y-173969733D01*
X59883330Y-173886286D01*
X59883328Y-173886282D01*
X59881609Y-173880364D01*
X59879156Y-173875632D01*
X59877616Y-173870531D01*
X59833969Y-173788440D01*
X59833357Y-173787274D01*
X59793429Y-173710247D01*
X59790592Y-173704774D01*
X59787269Y-173700611D01*
X59784766Y-173695904D01*
X59725945Y-173623782D01*
X59725254Y-173622926D01*
X59693962Y-173583727D01*
X59691458Y-173581223D01*
X59690816Y-173580505D01*
X59687115Y-173576172D01*
X59659765Y-173542638D01*
X59624437Y-173513412D01*
X59615658Y-173505423D01*
X57221055Y-171110821D01*
X57211953Y-171100677D01*
X57202284Y-171088651D01*
X57175188Y-171023029D01*
X57187872Y-170953174D01*
X57236308Y-170901266D01*
X57300481Y-170883700D01*
X58398525Y-170883700D01*
X58466646Y-170903702D01*
X58499351Y-170934135D01*
X58577539Y-171038461D01*
X58694095Y-171125815D01*
X58830484Y-171176945D01*
X58892666Y-171183700D01*
X60588934Y-171183700D01*
X60651116Y-171176945D01*
X60787505Y-171125815D01*
X60904061Y-171038461D01*
X60961919Y-170961262D01*
X61519293Y-170961262D01*
X61528589Y-170973277D01*
X61579794Y-171009131D01*
X61589289Y-171014614D01*
X61786747Y-171106690D01*
X61797039Y-171110436D01*
X62007488Y-171166825D01*
X62018281Y-171168728D01*
X62235325Y-171187717D01*
X62246275Y-171187717D01*
X62463319Y-171168728D01*
X62474112Y-171166825D01*
X62684561Y-171110436D01*
X62694853Y-171106690D01*
X62892311Y-171014614D01*
X62901806Y-171009131D01*
X62953848Y-170972691D01*
X62962224Y-170962212D01*
X62955156Y-170948766D01*
X62253612Y-170247222D01*
X62239668Y-170239608D01*
X62237835Y-170239739D01*
X62231220Y-170243990D01*
X61525723Y-170949487D01*
X61519293Y-170961262D01*
X60961919Y-170961262D01*
X60991415Y-170921905D01*
X61042545Y-170785516D01*
X61049300Y-170723334D01*
X61049300Y-170720015D01*
X61072953Y-170653090D01*
X61118956Y-170617396D01*
X61117941Y-170615466D01*
X61128800Y-170609758D01*
X61129045Y-170609568D01*
X61129203Y-170609547D01*
X61167234Y-170589556D01*
X61868778Y-169888012D01*
X61875156Y-169876332D01*
X62605208Y-169876332D01*
X62605339Y-169878165D01*
X62609590Y-169884780D01*
X63315087Y-170590277D01*
X63326862Y-170596707D01*
X63338877Y-170587411D01*
X63374731Y-170536206D01*
X63380214Y-170526711D01*
X63472290Y-170329253D01*
X63476036Y-170318961D01*
X63532425Y-170108512D01*
X63534328Y-170097719D01*
X63553317Y-169880675D01*
X63553317Y-169869725D01*
X63534328Y-169652681D01*
X63532425Y-169641888D01*
X63476036Y-169431439D01*
X63472290Y-169421147D01*
X63380214Y-169223689D01*
X63374731Y-169214194D01*
X63338291Y-169162152D01*
X63327812Y-169153776D01*
X63314366Y-169160844D01*
X62612822Y-169862388D01*
X62605208Y-169876332D01*
X61875156Y-169876332D01*
X61876392Y-169874068D01*
X61876261Y-169872235D01*
X61872010Y-169865620D01*
X61166513Y-169160123D01*
X61124771Y-169137329D01*
X61114771Y-169135153D01*
X61064573Y-169084947D01*
X61049349Y-169031386D01*
X61049300Y-169030481D01*
X61049300Y-169027066D01*
X61042545Y-168964884D01*
X60991415Y-168828495D01*
X60993697Y-168827639D01*
X60981325Y-168771058D01*
X61006065Y-168704512D01*
X61017918Y-168690817D01*
X61251929Y-168456805D01*
X61314242Y-168422780D01*
X61341025Y-168419900D01*
X61698360Y-168419900D01*
X61766481Y-168439902D01*
X61812974Y-168493558D01*
X61823078Y-168563832D01*
X61793584Y-168628412D01*
X61751610Y-168660095D01*
X61589289Y-168735786D01*
X61579794Y-168741269D01*
X61527752Y-168777709D01*
X61519376Y-168788188D01*
X61526444Y-168801634D01*
X62227988Y-169503178D01*
X62241932Y-169510792D01*
X62243765Y-169510661D01*
X62250380Y-169506410D01*
X62955877Y-168800913D01*
X62962307Y-168789138D01*
X62953011Y-168777123D01*
X62901806Y-168741269D01*
X62892311Y-168735786D01*
X62729990Y-168660095D01*
X62676705Y-168613178D01*
X62657244Y-168544900D01*
X62677786Y-168476940D01*
X62731809Y-168430875D01*
X62783240Y-168419900D01*
X64363574Y-168419900D01*
X64431695Y-168439902D01*
X64452669Y-168456804D01*
X65219649Y-169223783D01*
X65228751Y-169233927D01*
X65252468Y-169263425D01*
X65290198Y-169295084D01*
X65290921Y-169295691D01*
X65294569Y-169298872D01*
X65296381Y-169300515D01*
X65298575Y-169302709D01*
X65331849Y-169330042D01*
X65332647Y-169330704D01*
X65403974Y-169390554D01*
X65408644Y-169393122D01*
X65412761Y-169396503D01*
X65465436Y-169424747D01*
X65494586Y-169440377D01*
X65495745Y-169441006D01*
X65571881Y-169482862D01*
X65571889Y-169482865D01*
X65577287Y-169485833D01*
X65582369Y-169487445D01*
X65587063Y-169489962D01*
X65676031Y-169517162D01*
X65677059Y-169517482D01*
X65765806Y-169545635D01*
X65771102Y-169546229D01*
X65776198Y-169547787D01*
X65868757Y-169557190D01*
X65869893Y-169557311D01*
X65903508Y-169561081D01*
X65916230Y-169562508D01*
X65916234Y-169562508D01*
X65919727Y-169562900D01*
X65923254Y-169562900D01*
X65924239Y-169562955D01*
X65929919Y-169563402D01*
X65959325Y-169566389D01*
X65966837Y-169567152D01*
X65966839Y-169567152D01*
X65972962Y-169567774D01*
X66018608Y-169563459D01*
X66030467Y-169562900D01*
X70575300Y-169562900D01*
X70643421Y-169582902D01*
X70689914Y-169636558D01*
X70701300Y-169688900D01*
X70701300Y-169852534D01*
X70708055Y-169914716D01*
X70759185Y-170051105D01*
X70846539Y-170167661D01*
X70963095Y-170255015D01*
X71099484Y-170306145D01*
X71161666Y-170312900D01*
X72957934Y-170312900D01*
X73020116Y-170306145D01*
X73156505Y-170255015D01*
X73273061Y-170167661D01*
X73360415Y-170051105D01*
X73373179Y-170017056D01*
X73405220Y-169931589D01*
X73447862Y-169874825D01*
X73514423Y-169850125D01*
X73583772Y-169865333D01*
X73614372Y-169888847D01*
X73693034Y-169971306D01*
X73700986Y-169978341D01*
X73877325Y-170109541D01*
X73886362Y-170115145D01*
X74082284Y-170214757D01*
X74092135Y-170218757D01*
X74302040Y-170283934D01*
X74312424Y-170286217D01*
X74327843Y-170288261D01*
X74342007Y-170286065D01*
X74345800Y-170272878D01*
X74345800Y-166838208D01*
X74341827Y-166824677D01*
X74331220Y-166823152D01*
X74213379Y-166847877D01*
X74203183Y-166850937D01*
X73998771Y-166931663D01*
X73989239Y-166936394D01*
X73801338Y-167050416D01*
X73792748Y-167056680D01*
X73626748Y-167200727D01*
X73619333Y-167208353D01*
X73619067Y-167208677D01*
X73618920Y-167208777D01*
X73615613Y-167212178D01*
X73614920Y-167211504D01*
X73560408Y-167248673D01*
X73489438Y-167250607D01*
X73428688Y-167213865D01*
X73403648Y-167173018D01*
X73363568Y-167066105D01*
X73363567Y-167066103D01*
X73360415Y-167057695D01*
X73273061Y-166941139D01*
X73156505Y-166853785D01*
X73020116Y-166802655D01*
X72957934Y-166795900D01*
X71161666Y-166795900D01*
X71099484Y-166802655D01*
X70963095Y-166853785D01*
X70846539Y-166941139D01*
X70759185Y-167057695D01*
X70708055Y-167194084D01*
X70701300Y-167256266D01*
X70701300Y-167419900D01*
X70681298Y-167488021D01*
X70627642Y-167534514D01*
X70575300Y-167545900D01*
X66446426Y-167545900D01*
X66378305Y-167525898D01*
X66357331Y-167508996D01*
X65590351Y-166742017D01*
X65581249Y-166731873D01*
X65567403Y-166714652D01*
X65540307Y-166649029D01*
X65552990Y-166579175D01*
X65601427Y-166527267D01*
X65665600Y-166509700D01*
X97306385Y-166509700D01*
X97374506Y-166529702D01*
G37*
%TD.AperFunction*%
%TA.AperFunction,Conductor*%
G36*
X115434106Y-166528082D02*
G01*
X115480606Y-166581731D01*
X115492000Y-166634090D01*
X115492000Y-179375800D01*
X115471998Y-179443921D01*
X115418342Y-179490414D01*
X115366000Y-179501800D01*
X104595343Y-179501800D01*
X104527222Y-179481798D01*
X104480729Y-179428142D01*
X104470000Y-179388652D01*
X104462728Y-179317727D01*
X104462727Y-179317719D01*
X104462401Y-179314542D01*
X104460628Y-179305952D01*
X104416833Y-179093842D01*
X104389330Y-178960637D01*
X104323512Y-178751601D01*
X104281763Y-178619007D01*
X104281760Y-178618999D01*
X104280800Y-178615950D01*
X104275927Y-178604628D01*
X104139190Y-178286954D01*
X104139187Y-178286947D01*
X104137928Y-178284023D01*
X104098027Y-178212335D01*
X103963740Y-177971067D01*
X103963739Y-177971065D01*
X103962182Y-177968268D01*
X103755367Y-177671931D01*
X103602010Y-177493779D01*
X103521693Y-177400476D01*
X103521686Y-177400469D01*
X103519610Y-177398057D01*
X103443490Y-177325907D01*
X103407809Y-177264529D01*
X103410976Y-177193603D01*
X103451986Y-177135649D01*
X103517818Y-177109066D01*
X103530168Y-177108459D01*
X106419473Y-177108459D01*
X106487594Y-177128461D01*
X106536216Y-177187055D01*
X106567675Y-177264529D01*
X106580866Y-177297016D01*
X106594037Y-177318509D01*
X106663093Y-177431198D01*
X106697587Y-177487488D01*
X106843850Y-177656338D01*
X107015726Y-177799032D01*
X107208600Y-177911738D01*
X107213425Y-177913580D01*
X107213426Y-177913581D01*
X107217726Y-177915223D01*
X107417292Y-177991430D01*
X107422360Y-177992461D01*
X107422363Y-177992462D01*
X107529617Y-178014283D01*
X107636197Y-178035967D01*
X107641372Y-178036157D01*
X107641374Y-178036157D01*
X107854273Y-178043964D01*
X107854277Y-178043964D01*
X107859437Y-178044153D01*
X107864557Y-178043497D01*
X107864559Y-178043497D01*
X108075888Y-178016425D01*
X108075889Y-178016425D01*
X108081016Y-178015768D01*
X108085966Y-178014283D01*
X108290029Y-177953061D01*
X108290034Y-177953059D01*
X108294984Y-177951574D01*
X108495594Y-177853296D01*
X108677460Y-177723573D01*
X108708537Y-177692605D01*
X108812609Y-177588895D01*
X108835696Y-177565889D01*
X108895194Y-177483089D01*
X108963035Y-177388677D01*
X108966053Y-177384477D01*
X108974805Y-177366770D01*
X109062736Y-177188853D01*
X109062737Y-177188851D01*
X109065030Y-177184211D01*
X109107709Y-177043738D01*
X109128465Y-176975423D01*
X109128465Y-176975421D01*
X109129970Y-176970469D01*
X109159129Y-176748990D01*
X109159625Y-176728702D01*
X109160674Y-176685765D01*
X109160674Y-176685761D01*
X109160756Y-176682400D01*
X109142452Y-176459761D01*
X109088031Y-176243102D01*
X108998954Y-176038240D01*
X108951916Y-175965531D01*
X108880422Y-175855017D01*
X108880420Y-175855014D01*
X108877614Y-175850677D01*
X108727270Y-175685451D01*
X108723219Y-175682252D01*
X108723215Y-175682248D01*
X108556014Y-175550200D01*
X108556010Y-175550198D01*
X108551959Y-175546998D01*
X108510653Y-175524196D01*
X108460684Y-175473764D01*
X108445912Y-175404321D01*
X108471028Y-175337916D01*
X108498380Y-175311309D01*
X108577237Y-175255061D01*
X108677460Y-175183573D01*
X108688454Y-175172618D01*
X108832035Y-175029537D01*
X108835696Y-175025889D01*
X108838780Y-175021598D01*
X108963035Y-174848677D01*
X108966053Y-174844477D01*
X108974639Y-174827106D01*
X109062736Y-174648853D01*
X109062737Y-174648851D01*
X109065030Y-174644211D01*
X109129970Y-174430469D01*
X109159129Y-174208990D01*
X109159503Y-174193694D01*
X109160674Y-174145765D01*
X109160674Y-174145761D01*
X109160756Y-174142400D01*
X109142452Y-173919761D01*
X109088031Y-173703102D01*
X108998954Y-173498240D01*
X108930055Y-173391738D01*
X108880422Y-173315017D01*
X108880420Y-173315014D01*
X108877614Y-173310677D01*
X108727270Y-173145451D01*
X108723219Y-173142252D01*
X108723215Y-173142248D01*
X108556014Y-173010200D01*
X108556010Y-173010198D01*
X108551959Y-173006998D01*
X108510653Y-172984196D01*
X108460684Y-172933764D01*
X108445912Y-172864321D01*
X108471028Y-172797916D01*
X108498380Y-172771309D01*
X108542203Y-172740050D01*
X108677460Y-172643573D01*
X108690176Y-172630902D01*
X108832035Y-172489537D01*
X108835696Y-172485889D01*
X108966053Y-172304477D01*
X109021334Y-172192625D01*
X109062736Y-172108853D01*
X109062737Y-172108851D01*
X109065030Y-172104211D01*
X109129970Y-171890469D01*
X109159129Y-171668990D01*
X109160491Y-171613262D01*
X109160674Y-171605765D01*
X109160674Y-171605761D01*
X109160756Y-171602400D01*
X109142452Y-171379761D01*
X109088031Y-171163102D01*
X108998954Y-170958240D01*
X108933401Y-170856911D01*
X108880422Y-170775017D01*
X108880420Y-170775014D01*
X108877614Y-170770677D01*
X108872060Y-170764573D01*
X108730398Y-170608888D01*
X108699346Y-170545042D01*
X108707741Y-170474543D01*
X108752917Y-170419775D01*
X108779361Y-170406106D01*
X108885897Y-170366167D01*
X108894305Y-170363015D01*
X109010861Y-170275661D01*
X109098215Y-170159105D01*
X109149345Y-170022716D01*
X109156100Y-169960534D01*
X109156100Y-168164266D01*
X109149345Y-168102084D01*
X109098215Y-167965695D01*
X109010861Y-167849139D01*
X108894305Y-167761785D01*
X108757916Y-167710655D01*
X108695734Y-167703900D01*
X106899466Y-167703900D01*
X106837284Y-167710655D01*
X106700895Y-167761785D01*
X106584339Y-167849139D01*
X106496985Y-167965695D01*
X106445855Y-168102084D01*
X106439100Y-168164266D01*
X106439100Y-168744699D01*
X106419098Y-168812820D01*
X106365442Y-168859313D01*
X106313100Y-168870699D01*
X103525606Y-168870699D01*
X103457485Y-168850697D01*
X103410992Y-168797041D01*
X103400888Y-168726767D01*
X103430382Y-168662187D01*
X103442105Y-168650341D01*
X103447873Y-168645237D01*
X103697135Y-168373840D01*
X103917027Y-168078146D01*
X104105197Y-167761319D01*
X104204452Y-167546292D01*
X104258269Y-167429701D01*
X104258270Y-167429700D01*
X104259632Y-167426748D01*
X104378680Y-167078014D01*
X104461065Y-166718849D01*
X104464316Y-166692335D01*
X104473151Y-166620281D01*
X104501294Y-166555101D01*
X104560209Y-166515483D01*
X104598195Y-166509615D01*
X110880496Y-166508725D01*
X115365982Y-166508090D01*
X115434106Y-166528082D01*
G37*
%TD.AperFunction*%
%TA.AperFunction,Conductor*%
G36*
X56062396Y-172808702D02*
G01*
X56083370Y-172825605D01*
X57895295Y-174637529D01*
X57929320Y-174699841D01*
X57932200Y-174726624D01*
X57932200Y-176660581D01*
X57912198Y-176728702D01*
X57897294Y-176747632D01*
X57881329Y-176764338D01*
X57773901Y-176921821D01*
X57718993Y-176966821D01*
X57648468Y-176974992D01*
X57584721Y-176943738D01*
X57564024Y-176919254D01*
X57483522Y-176794817D01*
X57483520Y-176794814D01*
X57480714Y-176790477D01*
X57330370Y-176625251D01*
X57326319Y-176622052D01*
X57326315Y-176622048D01*
X57159114Y-176490000D01*
X57159110Y-176489998D01*
X57155059Y-176486798D01*
X57141035Y-176479056D01*
X57073074Y-176441540D01*
X56959489Y-176378838D01*
X56954620Y-176377114D01*
X56954616Y-176377112D01*
X56753787Y-176305995D01*
X56753783Y-176305994D01*
X56748912Y-176304269D01*
X56743819Y-176303362D01*
X56743816Y-176303361D01*
X56534073Y-176266000D01*
X56534067Y-176265999D01*
X56528984Y-176265094D01*
X56455152Y-176264192D01*
X56310781Y-176262428D01*
X56310779Y-176262428D01*
X56305611Y-176262365D01*
X56084791Y-176296155D01*
X55872456Y-176365557D01*
X55816857Y-176394500D01*
X55684066Y-176463627D01*
X55674307Y-176468707D01*
X55670174Y-176471810D01*
X55670171Y-176471812D01*
X55499800Y-176599730D01*
X55495665Y-176602835D01*
X55492093Y-176606573D01*
X55414598Y-176687666D01*
X55353074Y-176723095D01*
X55282162Y-176719638D01*
X55224376Y-176678392D01*
X55205523Y-176644844D01*
X55164024Y-176534146D01*
X55155486Y-176518551D01*
X55078985Y-176416476D01*
X55066424Y-176403915D01*
X54964349Y-176327414D01*
X54948754Y-176318876D01*
X54828306Y-176273722D01*
X54813051Y-176270095D01*
X54762186Y-176264569D01*
X54755372Y-176264200D01*
X54132815Y-176264200D01*
X54117576Y-176268675D01*
X54116371Y-176270065D01*
X54114700Y-176277748D01*
X54114700Y-177750200D01*
X54094698Y-177818321D01*
X54041042Y-177864814D01*
X53988700Y-177876200D01*
X53732700Y-177876200D01*
X53664579Y-177856198D01*
X53618086Y-177802542D01*
X53606700Y-177750200D01*
X53606700Y-176282316D01*
X53602225Y-176267077D01*
X53600835Y-176265872D01*
X53593152Y-176264201D01*
X52966031Y-176264201D01*
X52959210Y-176264571D01*
X52908348Y-176270095D01*
X52893096Y-176273721D01*
X52772646Y-176318876D01*
X52757051Y-176327414D01*
X52654976Y-176403915D01*
X52642415Y-176416476D01*
X52565914Y-176518551D01*
X52557376Y-176534146D01*
X52512222Y-176654594D01*
X52508595Y-176669849D01*
X52503069Y-176720714D01*
X52502700Y-176727528D01*
X52502701Y-177493779D01*
X52482699Y-177561900D01*
X52429043Y-177608393D01*
X52358769Y-177618497D01*
X52294189Y-177589004D01*
X52287606Y-177582874D01*
X48355553Y-173650821D01*
X48346451Y-173640678D01*
X48326595Y-173615982D01*
X48322730Y-173611175D01*
X48284276Y-173578908D01*
X48280629Y-173575728D01*
X48278817Y-173574085D01*
X48276623Y-173571891D01*
X48243349Y-173544558D01*
X48242551Y-173543896D01*
X48171224Y-173484046D01*
X48166554Y-173481478D01*
X48162437Y-173478097D01*
X48080612Y-173434223D01*
X48079453Y-173433594D01*
X48003317Y-173391738D01*
X48003309Y-173391735D01*
X47997911Y-173388767D01*
X47992829Y-173387155D01*
X47988135Y-173384638D01*
X47899167Y-173357438D01*
X47898095Y-173357104D01*
X47809392Y-173328965D01*
X47804096Y-173328371D01*
X47799000Y-173326813D01*
X47706441Y-173317410D01*
X47705305Y-173317289D01*
X47671690Y-173313519D01*
X47658968Y-173312092D01*
X47658964Y-173312092D01*
X47655471Y-173311700D01*
X47651944Y-173311700D01*
X47650959Y-173311645D01*
X47645279Y-173311198D01*
X47615873Y-173308211D01*
X47608361Y-173307448D01*
X47608359Y-173307448D01*
X47602236Y-173306826D01*
X47561498Y-173310677D01*
X47556589Y-173311141D01*
X47544731Y-173311700D01*
X38779399Y-173311700D01*
X38711278Y-173291698D01*
X38701307Y-173284582D01*
X38579014Y-173188000D01*
X38579010Y-173187998D01*
X38574959Y-173184798D01*
X38533653Y-173161996D01*
X38483684Y-173111564D01*
X38468912Y-173042121D01*
X38494028Y-172975716D01*
X38521380Y-172949109D01*
X38640249Y-172864321D01*
X38700460Y-172821373D01*
X38703486Y-172818357D01*
X38768188Y-172789770D01*
X38784576Y-172788700D01*
X55994275Y-172788700D01*
X56062396Y-172808702D01*
G37*
%TD.AperFunction*%
%TA.AperFunction,Conductor*%
G36*
X60108483Y-166529702D02*
G01*
X60154976Y-166583358D01*
X60165080Y-166653632D01*
X60137448Y-166716014D01*
X60127804Y-166727672D01*
X60119813Y-166736453D01*
X59071421Y-167784845D01*
X59061278Y-167793947D01*
X59031775Y-167817668D01*
X59027808Y-167822396D01*
X58999509Y-167856121D01*
X58996328Y-167859769D01*
X58994685Y-167861581D01*
X58992491Y-167863775D01*
X58965158Y-167897049D01*
X58964496Y-167897847D01*
X58904646Y-167969174D01*
X58902078Y-167973844D01*
X58898697Y-167977961D01*
X58872890Y-168026092D01*
X58854823Y-168059786D01*
X58854194Y-168060945D01*
X58812338Y-168137081D01*
X58812335Y-168137089D01*
X58809367Y-168142487D01*
X58807755Y-168147569D01*
X58805238Y-168152263D01*
X58781839Y-168228798D01*
X58742796Y-168288092D01*
X58720114Y-168303412D01*
X58547954Y-168394182D01*
X58543168Y-168398058D01*
X58543166Y-168398059D01*
X58418627Y-168498909D01*
X58394253Y-168518647D01*
X58390308Y-168523382D01*
X58288641Y-168645407D01*
X58267654Y-168670596D01*
X58264703Y-168676009D01*
X58196545Y-168801016D01*
X58146374Y-168851250D01*
X58085920Y-168866700D01*
X50671343Y-168866700D01*
X50657736Y-168865963D01*
X50626238Y-168862541D01*
X50626233Y-168862541D01*
X50620112Y-168861876D01*
X50593862Y-168864173D01*
X50570112Y-168866250D01*
X50565286Y-168866579D01*
X50562814Y-168866700D01*
X50559731Y-168866700D01*
X50547762Y-168867874D01*
X50516994Y-168870890D01*
X50515681Y-168871012D01*
X50471416Y-168874885D01*
X50423087Y-168879113D01*
X50417968Y-168880600D01*
X50412667Y-168881120D01*
X50323666Y-168907991D01*
X50322533Y-168908326D01*
X50239086Y-168932570D01*
X50239082Y-168932572D01*
X50233164Y-168934291D01*
X50228432Y-168936744D01*
X50223331Y-168938284D01*
X50217888Y-168941178D01*
X50141240Y-168981931D01*
X50140074Y-168982543D01*
X50125868Y-168989907D01*
X50057574Y-169025308D01*
X50053411Y-169028631D01*
X50048704Y-169031134D01*
X49976582Y-169089955D01*
X49975726Y-169090646D01*
X49936527Y-169121938D01*
X49934023Y-169124442D01*
X49933305Y-169125084D01*
X49928972Y-169128785D01*
X49895438Y-169156135D01*
X49891510Y-169160883D01*
X49891509Y-169160884D01*
X49866212Y-169191463D01*
X49858223Y-169200242D01*
X49784170Y-169274295D01*
X49721858Y-169308321D01*
X49695075Y-169311200D01*
X47070001Y-169311200D01*
X47001880Y-169291198D01*
X46955387Y-169237542D01*
X46945283Y-169167268D01*
X46974777Y-169102688D01*
X46996693Y-169082721D01*
X47020088Y-169065986D01*
X47266625Y-168889627D01*
X47271140Y-168885632D01*
X47491281Y-168690817D01*
X47542595Y-168645407D01*
X47617510Y-168563832D01*
X47789646Y-168376393D01*
X47789648Y-168376390D01*
X47791859Y-168373983D01*
X48011749Y-168078261D01*
X48151008Y-167843758D01*
X48198251Y-167764204D01*
X48198252Y-167764201D01*
X48199913Y-167761405D01*
X48354336Y-167426805D01*
X48473367Y-167078043D01*
X48525513Y-166850633D01*
X48555004Y-166722023D01*
X48555005Y-166722016D01*
X48555731Y-166718851D01*
X48556246Y-166714652D01*
X48567796Y-166620377D01*
X48595934Y-166555194D01*
X48654845Y-166515572D01*
X48692861Y-166509700D01*
X60040362Y-166509700D01*
X60108483Y-166529702D01*
G37*
%TD.AperFunction*%
%TD*%
M02*
