M48
; DRILL file {KiCad 5.1.9+dfsg1-1} date Tue May 25 15:49:55 2021
; FORMAT={-:-/ absolute / inch / decimal}
; #@! TF.CreationDate,2021-05-25T15:49:55+02:00
; #@! TF.GenerationSoftware,Kicad,Pcbnew,5.1.9+dfsg1-1
; #@! TF.FileFunction,Plated,1,2,PTH
FMAT,2
INCH
T1C0.0315
T2C0.0394
T3C0.0472
%
G90
G05
T1
X2.352Y-6.688
X2.4504Y-6.688
X3.386Y-6.701
X3.4844Y-6.701
T2
X1.63Y-6.663
X1.63Y-6.763
X1.63Y-6.863
X1.63Y-6.963
X1.7795Y-7.0157
X1.8795Y-7.0157
X1.9795Y-7.0157
X2.0795Y-7.0157
X3.6732Y-7.0157
X3.7732Y-7.0157
X3.8732Y-7.0157
X3.9732Y-7.0157
X4.123Y-6.654
X4.123Y-6.754
X4.123Y-6.854
X4.123Y-6.954
T3
X2.837Y-6.636
X2.937Y-6.636
X3.037Y-6.636
T0
M30
