%TF.GenerationSoftware,KiCad,Pcbnew,5.1.9+dfsg1-1*%
%TF.CreationDate,2021-05-21T09:47:45+02:00*%
%TF.ProjectId,single_din_bottom_rev_a,73696e67-6c65-45f6-9469-6e5f626f7474,rev?*%
%TF.SameCoordinates,Original*%
%TF.FileFunction,Legend,Top*%
%TF.FilePolarity,Positive*%
%FSLAX46Y46*%
G04 Gerber Fmt 4.6, Leading zero omitted, Abs format (unit mm)*
G04 Created by KiCad (PCBNEW 5.1.9+dfsg1-1) date 2021-05-21 09:47:45*
%MOMM*%
%LPD*%
G01*
G04 APERTURE LIST*
%ADD10C,0.300000*%
%ADD11C,0.120000*%
%ADD12C,0.150000*%
G04 APERTURE END LIST*
D10*
X44332442Y-174541571D02*
X44332442Y-173041571D01*
X44975300Y-174541571D02*
X44975300Y-173755857D01*
X44903871Y-173613000D01*
X44761014Y-173541571D01*
X44546728Y-173541571D01*
X44403871Y-173613000D01*
X44332442Y-173684428D01*
X45475300Y-173541571D02*
X46046728Y-173541571D01*
X45689585Y-173041571D02*
X45689585Y-174327285D01*
X45761014Y-174470142D01*
X45903871Y-174541571D01*
X46046728Y-174541571D01*
X46332442Y-173541571D02*
X46903871Y-173541571D01*
X46546728Y-173041571D02*
X46546728Y-174327285D01*
X46618157Y-174470142D01*
X46761014Y-174541571D01*
X46903871Y-174541571D01*
X47403871Y-173541571D02*
X47403871Y-175041571D01*
X47403871Y-173613000D02*
X47546728Y-173541571D01*
X47832442Y-173541571D01*
X47975300Y-173613000D01*
X48046728Y-173684428D01*
X48118157Y-173827285D01*
X48118157Y-174255857D01*
X48046728Y-174398714D01*
X47975300Y-174470142D01*
X47832442Y-174541571D01*
X47546728Y-174541571D01*
X47403871Y-174470142D01*
X48689585Y-174470142D02*
X48832442Y-174541571D01*
X49118157Y-174541571D01*
X49261014Y-174470142D01*
X49332442Y-174327285D01*
X49332442Y-174255857D01*
X49261014Y-174113000D01*
X49118157Y-174041571D01*
X48903871Y-174041571D01*
X48761014Y-173970142D01*
X48689585Y-173827285D01*
X48689585Y-173755857D01*
X48761014Y-173613000D01*
X48903871Y-173541571D01*
X49118157Y-173541571D01*
X49261014Y-173613000D01*
X49975300Y-174398714D02*
X50046728Y-174470142D01*
X49975300Y-174541571D01*
X49903871Y-174470142D01*
X49975300Y-174398714D01*
X49975300Y-174541571D01*
X49975300Y-173613000D02*
X50046728Y-173684428D01*
X49975300Y-173755857D01*
X49903871Y-173684428D01*
X49975300Y-173613000D01*
X49975300Y-173755857D01*
X51761014Y-172970142D02*
X50475300Y-174898714D01*
X53332442Y-172970142D02*
X52046728Y-174898714D01*
X53689585Y-173541571D02*
X53975300Y-174541571D01*
X54261014Y-173827285D01*
X54546728Y-174541571D01*
X54832442Y-173541571D01*
X55261014Y-173541571D02*
X55546728Y-174541571D01*
X55832442Y-173827285D01*
X56118157Y-174541571D01*
X56403871Y-173541571D01*
X56832442Y-173541571D02*
X57118157Y-174541571D01*
X57403871Y-173827285D01*
X57689585Y-174541571D01*
X57975300Y-173541571D01*
X58546728Y-174398714D02*
X58618157Y-174470142D01*
X58546728Y-174541571D01*
X58475300Y-174470142D01*
X58546728Y-174398714D01*
X58546728Y-174541571D01*
X59903871Y-173541571D02*
X59903871Y-174755857D01*
X59832442Y-174898714D01*
X59761014Y-174970142D01*
X59618157Y-175041571D01*
X59403871Y-175041571D01*
X59261014Y-174970142D01*
X59903871Y-174470142D02*
X59761014Y-174541571D01*
X59475300Y-174541571D01*
X59332442Y-174470142D01*
X59261014Y-174398714D01*
X59189585Y-174255857D01*
X59189585Y-173827285D01*
X59261014Y-173684428D01*
X59332442Y-173613000D01*
X59475300Y-173541571D01*
X59761014Y-173541571D01*
X59903871Y-173613000D01*
X60618157Y-174541571D02*
X60618157Y-173541571D01*
X60618157Y-173827285D02*
X60689585Y-173684428D01*
X60761014Y-173613000D01*
X60903871Y-173541571D01*
X61046728Y-173541571D01*
X61761014Y-174541571D02*
X61618157Y-174470142D01*
X61546728Y-174398714D01*
X61475300Y-174255857D01*
X61475300Y-173827285D01*
X61546728Y-173684428D01*
X61618157Y-173613000D01*
X61761014Y-173541571D01*
X61975300Y-173541571D01*
X62118157Y-173613000D01*
X62189585Y-173684428D01*
X62261014Y-173827285D01*
X62261014Y-174255857D01*
X62189585Y-174398714D01*
X62118157Y-174470142D01*
X61975300Y-174541571D01*
X61761014Y-174541571D01*
X63546728Y-174541571D02*
X63546728Y-173041571D01*
X63546728Y-174470142D02*
X63403871Y-174541571D01*
X63118157Y-174541571D01*
X62975300Y-174470142D01*
X62903871Y-174398714D01*
X62832442Y-174255857D01*
X62832442Y-173827285D01*
X62903871Y-173684428D01*
X62975300Y-173613000D01*
X63118157Y-173541571D01*
X63403871Y-173541571D01*
X63546728Y-173613000D01*
X64903871Y-174541571D02*
X64903871Y-173755857D01*
X64832442Y-173613000D01*
X64689585Y-173541571D01*
X64403871Y-173541571D01*
X64261014Y-173613000D01*
X64903871Y-174470142D02*
X64761014Y-174541571D01*
X64403871Y-174541571D01*
X64261014Y-174470142D01*
X64189585Y-174327285D01*
X64189585Y-174184428D01*
X64261014Y-174041571D01*
X64403871Y-173970142D01*
X64761014Y-173970142D01*
X64903871Y-173898714D01*
X65618157Y-173541571D02*
X65618157Y-174541571D01*
X65618157Y-173684428D02*
X65689585Y-173613000D01*
X65832442Y-173541571D01*
X66046728Y-173541571D01*
X66189585Y-173613000D01*
X66261014Y-173755857D01*
X66261014Y-174541571D01*
X66903871Y-174470142D02*
X67046728Y-174541571D01*
X67332442Y-174541571D01*
X67475300Y-174470142D01*
X67546728Y-174327285D01*
X67546728Y-174255857D01*
X67475300Y-174113000D01*
X67332442Y-174041571D01*
X67118157Y-174041571D01*
X66975300Y-173970142D01*
X66903871Y-173827285D01*
X66903871Y-173755857D01*
X66975300Y-173613000D01*
X67118157Y-173541571D01*
X67332442Y-173541571D01*
X67475300Y-173613000D01*
X68189585Y-173541571D02*
X68189585Y-175041571D01*
X68189585Y-173613000D02*
X68332442Y-173541571D01*
X68618157Y-173541571D01*
X68761014Y-173613000D01*
X68832442Y-173684428D01*
X68903871Y-173827285D01*
X68903871Y-174255857D01*
X68832442Y-174398714D01*
X68761014Y-174470142D01*
X68618157Y-174541571D01*
X68332442Y-174541571D01*
X68189585Y-174470142D01*
X70189585Y-174541571D02*
X70189585Y-173755857D01*
X70118157Y-173613000D01*
X69975300Y-173541571D01*
X69689585Y-173541571D01*
X69546728Y-173613000D01*
X70189585Y-174470142D02*
X70046728Y-174541571D01*
X69689585Y-174541571D01*
X69546728Y-174470142D01*
X69475300Y-174327285D01*
X69475300Y-174184428D01*
X69546728Y-174041571D01*
X69689585Y-173970142D01*
X70046728Y-173970142D01*
X70189585Y-173898714D01*
X70903871Y-174541571D02*
X70903871Y-173541571D01*
X70903871Y-173827285D02*
X70975300Y-173684428D01*
X71046728Y-173613000D01*
X71189585Y-173541571D01*
X71332442Y-173541571D01*
X72475300Y-174541571D02*
X72475300Y-173755857D01*
X72403871Y-173613000D01*
X72261014Y-173541571D01*
X71975300Y-173541571D01*
X71832442Y-173613000D01*
X72475300Y-174470142D02*
X72332442Y-174541571D01*
X71975300Y-174541571D01*
X71832442Y-174470142D01*
X71761014Y-174327285D01*
X71761014Y-174184428D01*
X71832442Y-174041571D01*
X71975300Y-173970142D01*
X72332442Y-173970142D01*
X72475300Y-173898714D01*
X73832442Y-174541571D02*
X73832442Y-173041571D01*
X73832442Y-174470142D02*
X73689585Y-174541571D01*
X73403871Y-174541571D01*
X73261014Y-174470142D01*
X73189585Y-174398714D01*
X73118157Y-174255857D01*
X73118157Y-173827285D01*
X73189585Y-173684428D01*
X73261014Y-173613000D01*
X73403871Y-173541571D01*
X73689585Y-173541571D01*
X73832442Y-173613000D01*
X74546728Y-174541571D02*
X74546728Y-173541571D01*
X74546728Y-173041571D02*
X74475300Y-173113000D01*
X74546728Y-173184428D01*
X74618157Y-173113000D01*
X74546728Y-173041571D01*
X74546728Y-173184428D01*
X75189585Y-174470142D02*
X75332442Y-174541571D01*
X75618157Y-174541571D01*
X75761014Y-174470142D01*
X75832442Y-174327285D01*
X75832442Y-174255857D01*
X75761014Y-174113000D01*
X75618157Y-174041571D01*
X75403871Y-174041571D01*
X75261014Y-173970142D01*
X75189585Y-173827285D01*
X75189585Y-173755857D01*
X75261014Y-173613000D01*
X75403871Y-173541571D01*
X75618157Y-173541571D01*
X75761014Y-173613000D01*
X76475300Y-174398714D02*
X76546728Y-174470142D01*
X76475300Y-174541571D01*
X76403871Y-174470142D01*
X76475300Y-174398714D01*
X76475300Y-174541571D01*
X77832442Y-174470142D02*
X77689585Y-174541571D01*
X77403871Y-174541571D01*
X77261014Y-174470142D01*
X77189585Y-174398714D01*
X77118157Y-174255857D01*
X77118157Y-173827285D01*
X77189585Y-173684428D01*
X77261014Y-173613000D01*
X77403871Y-173541571D01*
X77689585Y-173541571D01*
X77832442Y-173613000D01*
X78689585Y-174541571D02*
X78546728Y-174470142D01*
X78475300Y-174398714D01*
X78403871Y-174255857D01*
X78403871Y-173827285D01*
X78475300Y-173684428D01*
X78546728Y-173613000D01*
X78689585Y-173541571D01*
X78903871Y-173541571D01*
X79046728Y-173613000D01*
X79118157Y-173684428D01*
X79189585Y-173827285D01*
X79189585Y-174255857D01*
X79118157Y-174398714D01*
X79046728Y-174470142D01*
X78903871Y-174541571D01*
X78689585Y-174541571D01*
X79832442Y-174541571D02*
X79832442Y-173541571D01*
X79832442Y-173684428D02*
X79903871Y-173613000D01*
X80046728Y-173541571D01*
X80261014Y-173541571D01*
X80403871Y-173613000D01*
X80475300Y-173755857D01*
X80475300Y-174541571D01*
X80475300Y-173755857D02*
X80546728Y-173613000D01*
X80689585Y-173541571D01*
X80903871Y-173541571D01*
X81046728Y-173613000D01*
X81118157Y-173755857D01*
X81118157Y-174541571D01*
D11*
%TO.C,U1*%
X68789800Y-166494400D02*
X80409800Y-166494400D01*
X68789800Y-175114400D02*
X80409800Y-175114400D01*
X68789800Y-166494400D02*
X68789800Y-175114400D01*
X80409800Y-166494400D02*
X80409800Y-175114400D01*
X68549800Y-167494400D02*
X68549800Y-166254400D01*
X68549800Y-166254400D02*
X69789800Y-166254400D01*
%TO.C,J4*%
X100136000Y-178926800D02*
X100136000Y-176266800D01*
X92456000Y-178926800D02*
X100136000Y-178926800D01*
X92456000Y-176266800D02*
X100136000Y-176266800D01*
X92456000Y-178926800D02*
X92456000Y-176266800D01*
X91186000Y-178926800D02*
X89856000Y-178926800D01*
X89856000Y-178926800D02*
X89856000Y-177596800D01*
%TO.C,J3*%
X56041600Y-178825200D02*
X56041600Y-176165200D01*
X48361600Y-178825200D02*
X56041600Y-178825200D01*
X48361600Y-176165200D02*
X56041600Y-176165200D01*
X48361600Y-178825200D02*
X48361600Y-176165200D01*
X47091600Y-178825200D02*
X45761600Y-178825200D01*
X45761600Y-178825200D02*
X45761600Y-177495200D01*
%TO.C,J2*%
X106164200Y-167681600D02*
X106164200Y-177961600D01*
X106164200Y-177961600D02*
X108824200Y-177961600D01*
X108824200Y-177961600D02*
X108824200Y-167681600D01*
X108824200Y-167681600D02*
X106164200Y-167681600D01*
X108824200Y-168631600D02*
X114824200Y-168631600D01*
X114824200Y-168631600D02*
X114824200Y-169391600D01*
X114824200Y-169391600D02*
X108824200Y-169391600D01*
X108824200Y-168691600D02*
X114824200Y-168691600D01*
X108824200Y-168811600D02*
X114824200Y-168811600D01*
X108824200Y-168931600D02*
X114824200Y-168931600D01*
X108824200Y-169051600D02*
X114824200Y-169051600D01*
X108824200Y-169171600D02*
X114824200Y-169171600D01*
X108824200Y-169291600D02*
X114824200Y-169291600D01*
X105834200Y-168631600D02*
X106164200Y-168631600D01*
X105834200Y-169391600D02*
X106164200Y-169391600D01*
X106164200Y-170281600D02*
X108824200Y-170281600D01*
X108824200Y-171171600D02*
X114824200Y-171171600D01*
X114824200Y-171171600D02*
X114824200Y-171931600D01*
X114824200Y-171931600D02*
X108824200Y-171931600D01*
X105767129Y-171171600D02*
X106164200Y-171171600D01*
X105767129Y-171931600D02*
X106164200Y-171931600D01*
X106164200Y-172821600D02*
X108824200Y-172821600D01*
X108824200Y-173711600D02*
X114824200Y-173711600D01*
X114824200Y-173711600D02*
X114824200Y-174471600D01*
X114824200Y-174471600D02*
X108824200Y-174471600D01*
X105767129Y-173711600D02*
X106164200Y-173711600D01*
X105767129Y-174471600D02*
X106164200Y-174471600D01*
X106164200Y-175361600D02*
X108824200Y-175361600D01*
X108824200Y-176251600D02*
X114824200Y-176251600D01*
X114824200Y-176251600D02*
X114824200Y-177011600D01*
X114824200Y-177011600D02*
X108824200Y-177011600D01*
X105767129Y-176251600D02*
X106164200Y-176251600D01*
X105767129Y-177011600D02*
X106164200Y-177011600D01*
X103454200Y-169011600D02*
X103454200Y-167741600D01*
X103454200Y-167741600D02*
X104724200Y-167741600D01*
%TO.C,J1*%
X39962000Y-178190200D02*
X39962000Y-167910200D01*
X39962000Y-167910200D02*
X37302000Y-167910200D01*
X37302000Y-167910200D02*
X37302000Y-178190200D01*
X37302000Y-178190200D02*
X39962000Y-178190200D01*
X37302000Y-177240200D02*
X31302000Y-177240200D01*
X31302000Y-177240200D02*
X31302000Y-176480200D01*
X31302000Y-176480200D02*
X37302000Y-176480200D01*
X37302000Y-177180200D02*
X31302000Y-177180200D01*
X37302000Y-177060200D02*
X31302000Y-177060200D01*
X37302000Y-176940200D02*
X31302000Y-176940200D01*
X37302000Y-176820200D02*
X31302000Y-176820200D01*
X37302000Y-176700200D02*
X31302000Y-176700200D01*
X37302000Y-176580200D02*
X31302000Y-176580200D01*
X40292000Y-177240200D02*
X39962000Y-177240200D01*
X40292000Y-176480200D02*
X39962000Y-176480200D01*
X39962000Y-175590200D02*
X37302000Y-175590200D01*
X37302000Y-174700200D02*
X31302000Y-174700200D01*
X31302000Y-174700200D02*
X31302000Y-173940200D01*
X31302000Y-173940200D02*
X37302000Y-173940200D01*
X40359071Y-174700200D02*
X39962000Y-174700200D01*
X40359071Y-173940200D02*
X39962000Y-173940200D01*
X39962000Y-173050200D02*
X37302000Y-173050200D01*
X37302000Y-172160200D02*
X31302000Y-172160200D01*
X31302000Y-172160200D02*
X31302000Y-171400200D01*
X31302000Y-171400200D02*
X37302000Y-171400200D01*
X40359071Y-172160200D02*
X39962000Y-172160200D01*
X40359071Y-171400200D02*
X39962000Y-171400200D01*
X39962000Y-170510200D02*
X37302000Y-170510200D01*
X37302000Y-169620200D02*
X31302000Y-169620200D01*
X31302000Y-169620200D02*
X31302000Y-168860200D01*
X31302000Y-168860200D02*
X37302000Y-168860200D01*
X40359071Y-169620200D02*
X39962000Y-169620200D01*
X40359071Y-168860200D02*
X39962000Y-168860200D01*
X42672000Y-176860200D02*
X42672000Y-178130200D01*
X42672000Y-178130200D02*
X41402000Y-178130200D01*
%TO.C,C2*%
X89874400Y-170205400D02*
G75*
G03*
X89874400Y-170205400I-2620000J0D01*
G01*
X87254400Y-167625400D02*
X87254400Y-172785400D01*
X87294400Y-167625400D02*
X87294400Y-172785400D01*
X87334400Y-167626400D02*
X87334400Y-172784400D01*
X87374400Y-167627400D02*
X87374400Y-172783400D01*
X87414400Y-167629400D02*
X87414400Y-172781400D01*
X87454400Y-167632400D02*
X87454400Y-172778400D01*
X87494400Y-167636400D02*
X87494400Y-169165400D01*
X87494400Y-171245400D02*
X87494400Y-172774400D01*
X87534400Y-167640400D02*
X87534400Y-169165400D01*
X87534400Y-171245400D02*
X87534400Y-172770400D01*
X87574400Y-167644400D02*
X87574400Y-169165400D01*
X87574400Y-171245400D02*
X87574400Y-172766400D01*
X87614400Y-167649400D02*
X87614400Y-169165400D01*
X87614400Y-171245400D02*
X87614400Y-172761400D01*
X87654400Y-167655400D02*
X87654400Y-169165400D01*
X87654400Y-171245400D02*
X87654400Y-172755400D01*
X87694400Y-167662400D02*
X87694400Y-169165400D01*
X87694400Y-171245400D02*
X87694400Y-172748400D01*
X87734400Y-167669400D02*
X87734400Y-169165400D01*
X87734400Y-171245400D02*
X87734400Y-172741400D01*
X87774400Y-167677400D02*
X87774400Y-169165400D01*
X87774400Y-171245400D02*
X87774400Y-172733400D01*
X87814400Y-167685400D02*
X87814400Y-169165400D01*
X87814400Y-171245400D02*
X87814400Y-172725400D01*
X87854400Y-167694400D02*
X87854400Y-169165400D01*
X87854400Y-171245400D02*
X87854400Y-172716400D01*
X87894400Y-167704400D02*
X87894400Y-169165400D01*
X87894400Y-171245400D02*
X87894400Y-172706400D01*
X87934400Y-167714400D02*
X87934400Y-169165400D01*
X87934400Y-171245400D02*
X87934400Y-172696400D01*
X87975400Y-167725400D02*
X87975400Y-169165400D01*
X87975400Y-171245400D02*
X87975400Y-172685400D01*
X88015400Y-167737400D02*
X88015400Y-169165400D01*
X88015400Y-171245400D02*
X88015400Y-172673400D01*
X88055400Y-167750400D02*
X88055400Y-169165400D01*
X88055400Y-171245400D02*
X88055400Y-172660400D01*
X88095400Y-167763400D02*
X88095400Y-169165400D01*
X88095400Y-171245400D02*
X88095400Y-172647400D01*
X88135400Y-167777400D02*
X88135400Y-169165400D01*
X88135400Y-171245400D02*
X88135400Y-172633400D01*
X88175400Y-167791400D02*
X88175400Y-169165400D01*
X88175400Y-171245400D02*
X88175400Y-172619400D01*
X88215400Y-167807400D02*
X88215400Y-169165400D01*
X88215400Y-171245400D02*
X88215400Y-172603400D01*
X88255400Y-167823400D02*
X88255400Y-169165400D01*
X88255400Y-171245400D02*
X88255400Y-172587400D01*
X88295400Y-167840400D02*
X88295400Y-169165400D01*
X88295400Y-171245400D02*
X88295400Y-172570400D01*
X88335400Y-167857400D02*
X88335400Y-169165400D01*
X88335400Y-171245400D02*
X88335400Y-172553400D01*
X88375400Y-167876400D02*
X88375400Y-169165400D01*
X88375400Y-171245400D02*
X88375400Y-172534400D01*
X88415400Y-167895400D02*
X88415400Y-169165400D01*
X88415400Y-171245400D02*
X88415400Y-172515400D01*
X88455400Y-167915400D02*
X88455400Y-169165400D01*
X88455400Y-171245400D02*
X88455400Y-172495400D01*
X88495400Y-167937400D02*
X88495400Y-169165400D01*
X88495400Y-171245400D02*
X88495400Y-172473400D01*
X88535400Y-167958400D02*
X88535400Y-169165400D01*
X88535400Y-171245400D02*
X88535400Y-172452400D01*
X88575400Y-167981400D02*
X88575400Y-169165400D01*
X88575400Y-171245400D02*
X88575400Y-172429400D01*
X88615400Y-168005400D02*
X88615400Y-169165400D01*
X88615400Y-171245400D02*
X88615400Y-172405400D01*
X88655400Y-168030400D02*
X88655400Y-169165400D01*
X88655400Y-171245400D02*
X88655400Y-172380400D01*
X88695400Y-168056400D02*
X88695400Y-169165400D01*
X88695400Y-171245400D02*
X88695400Y-172354400D01*
X88735400Y-168083400D02*
X88735400Y-169165400D01*
X88735400Y-171245400D02*
X88735400Y-172327400D01*
X88775400Y-168110400D02*
X88775400Y-169165400D01*
X88775400Y-171245400D02*
X88775400Y-172300400D01*
X88815400Y-168140400D02*
X88815400Y-169165400D01*
X88815400Y-171245400D02*
X88815400Y-172270400D01*
X88855400Y-168170400D02*
X88855400Y-169165400D01*
X88855400Y-171245400D02*
X88855400Y-172240400D01*
X88895400Y-168201400D02*
X88895400Y-169165400D01*
X88895400Y-171245400D02*
X88895400Y-172209400D01*
X88935400Y-168234400D02*
X88935400Y-169165400D01*
X88935400Y-171245400D02*
X88935400Y-172176400D01*
X88975400Y-168268400D02*
X88975400Y-169165400D01*
X88975400Y-171245400D02*
X88975400Y-172142400D01*
X89015400Y-168304400D02*
X89015400Y-169165400D01*
X89015400Y-171245400D02*
X89015400Y-172106400D01*
X89055400Y-168341400D02*
X89055400Y-169165400D01*
X89055400Y-171245400D02*
X89055400Y-172069400D01*
X89095400Y-168379400D02*
X89095400Y-169165400D01*
X89095400Y-171245400D02*
X89095400Y-172031400D01*
X89135400Y-168420400D02*
X89135400Y-169165400D01*
X89135400Y-171245400D02*
X89135400Y-171990400D01*
X89175400Y-168462400D02*
X89175400Y-169165400D01*
X89175400Y-171245400D02*
X89175400Y-171948400D01*
X89215400Y-168506400D02*
X89215400Y-169165400D01*
X89215400Y-171245400D02*
X89215400Y-171904400D01*
X89255400Y-168552400D02*
X89255400Y-169165400D01*
X89255400Y-171245400D02*
X89255400Y-171858400D01*
X89295400Y-168600400D02*
X89295400Y-169165400D01*
X89295400Y-171245400D02*
X89295400Y-171810400D01*
X89335400Y-168651400D02*
X89335400Y-169165400D01*
X89335400Y-171245400D02*
X89335400Y-171759400D01*
X89375400Y-168705400D02*
X89375400Y-169165400D01*
X89375400Y-171245400D02*
X89375400Y-171705400D01*
X89415400Y-168762400D02*
X89415400Y-169165400D01*
X89415400Y-171245400D02*
X89415400Y-171648400D01*
X89455400Y-168822400D02*
X89455400Y-169165400D01*
X89455400Y-171245400D02*
X89455400Y-171588400D01*
X89495400Y-168886400D02*
X89495400Y-169165400D01*
X89495400Y-171245400D02*
X89495400Y-171524400D01*
X89535400Y-168954400D02*
X89535400Y-169165400D01*
X89535400Y-171245400D02*
X89535400Y-171456400D01*
X89575400Y-169027400D02*
X89575400Y-171383400D01*
X89615400Y-169107400D02*
X89615400Y-171303400D01*
X89655400Y-169194400D02*
X89655400Y-171216400D01*
X89695400Y-169290400D02*
X89695400Y-171120400D01*
X89735400Y-169400400D02*
X89735400Y-171010400D01*
X89775400Y-169528400D02*
X89775400Y-170882400D01*
X89815400Y-169687400D02*
X89815400Y-170723400D01*
X89855400Y-169921400D02*
X89855400Y-170489400D01*
X84449625Y-168730400D02*
X84949625Y-168730400D01*
X84699625Y-168480400D02*
X84699625Y-168980400D01*
%TO.C,C1*%
X63610800Y-169875200D02*
G75*
G03*
X63610800Y-169875200I-2620000J0D01*
G01*
X60990800Y-167295200D02*
X60990800Y-172455200D01*
X61030800Y-167295200D02*
X61030800Y-172455200D01*
X61070800Y-167296200D02*
X61070800Y-172454200D01*
X61110800Y-167297200D02*
X61110800Y-172453200D01*
X61150800Y-167299200D02*
X61150800Y-172451200D01*
X61190800Y-167302200D02*
X61190800Y-172448200D01*
X61230800Y-167306200D02*
X61230800Y-168835200D01*
X61230800Y-170915200D02*
X61230800Y-172444200D01*
X61270800Y-167310200D02*
X61270800Y-168835200D01*
X61270800Y-170915200D02*
X61270800Y-172440200D01*
X61310800Y-167314200D02*
X61310800Y-168835200D01*
X61310800Y-170915200D02*
X61310800Y-172436200D01*
X61350800Y-167319200D02*
X61350800Y-168835200D01*
X61350800Y-170915200D02*
X61350800Y-172431200D01*
X61390800Y-167325200D02*
X61390800Y-168835200D01*
X61390800Y-170915200D02*
X61390800Y-172425200D01*
X61430800Y-167332200D02*
X61430800Y-168835200D01*
X61430800Y-170915200D02*
X61430800Y-172418200D01*
X61470800Y-167339200D02*
X61470800Y-168835200D01*
X61470800Y-170915200D02*
X61470800Y-172411200D01*
X61510800Y-167347200D02*
X61510800Y-168835200D01*
X61510800Y-170915200D02*
X61510800Y-172403200D01*
X61550800Y-167355200D02*
X61550800Y-168835200D01*
X61550800Y-170915200D02*
X61550800Y-172395200D01*
X61590800Y-167364200D02*
X61590800Y-168835200D01*
X61590800Y-170915200D02*
X61590800Y-172386200D01*
X61630800Y-167374200D02*
X61630800Y-168835200D01*
X61630800Y-170915200D02*
X61630800Y-172376200D01*
X61670800Y-167384200D02*
X61670800Y-168835200D01*
X61670800Y-170915200D02*
X61670800Y-172366200D01*
X61711800Y-167395200D02*
X61711800Y-168835200D01*
X61711800Y-170915200D02*
X61711800Y-172355200D01*
X61751800Y-167407200D02*
X61751800Y-168835200D01*
X61751800Y-170915200D02*
X61751800Y-172343200D01*
X61791800Y-167420200D02*
X61791800Y-168835200D01*
X61791800Y-170915200D02*
X61791800Y-172330200D01*
X61831800Y-167433200D02*
X61831800Y-168835200D01*
X61831800Y-170915200D02*
X61831800Y-172317200D01*
X61871800Y-167447200D02*
X61871800Y-168835200D01*
X61871800Y-170915200D02*
X61871800Y-172303200D01*
X61911800Y-167461200D02*
X61911800Y-168835200D01*
X61911800Y-170915200D02*
X61911800Y-172289200D01*
X61951800Y-167477200D02*
X61951800Y-168835200D01*
X61951800Y-170915200D02*
X61951800Y-172273200D01*
X61991800Y-167493200D02*
X61991800Y-168835200D01*
X61991800Y-170915200D02*
X61991800Y-172257200D01*
X62031800Y-167510200D02*
X62031800Y-168835200D01*
X62031800Y-170915200D02*
X62031800Y-172240200D01*
X62071800Y-167527200D02*
X62071800Y-168835200D01*
X62071800Y-170915200D02*
X62071800Y-172223200D01*
X62111800Y-167546200D02*
X62111800Y-168835200D01*
X62111800Y-170915200D02*
X62111800Y-172204200D01*
X62151800Y-167565200D02*
X62151800Y-168835200D01*
X62151800Y-170915200D02*
X62151800Y-172185200D01*
X62191800Y-167585200D02*
X62191800Y-168835200D01*
X62191800Y-170915200D02*
X62191800Y-172165200D01*
X62231800Y-167607200D02*
X62231800Y-168835200D01*
X62231800Y-170915200D02*
X62231800Y-172143200D01*
X62271800Y-167628200D02*
X62271800Y-168835200D01*
X62271800Y-170915200D02*
X62271800Y-172122200D01*
X62311800Y-167651200D02*
X62311800Y-168835200D01*
X62311800Y-170915200D02*
X62311800Y-172099200D01*
X62351800Y-167675200D02*
X62351800Y-168835200D01*
X62351800Y-170915200D02*
X62351800Y-172075200D01*
X62391800Y-167700200D02*
X62391800Y-168835200D01*
X62391800Y-170915200D02*
X62391800Y-172050200D01*
X62431800Y-167726200D02*
X62431800Y-168835200D01*
X62431800Y-170915200D02*
X62431800Y-172024200D01*
X62471800Y-167753200D02*
X62471800Y-168835200D01*
X62471800Y-170915200D02*
X62471800Y-171997200D01*
X62511800Y-167780200D02*
X62511800Y-168835200D01*
X62511800Y-170915200D02*
X62511800Y-171970200D01*
X62551800Y-167810200D02*
X62551800Y-168835200D01*
X62551800Y-170915200D02*
X62551800Y-171940200D01*
X62591800Y-167840200D02*
X62591800Y-168835200D01*
X62591800Y-170915200D02*
X62591800Y-171910200D01*
X62631800Y-167871200D02*
X62631800Y-168835200D01*
X62631800Y-170915200D02*
X62631800Y-171879200D01*
X62671800Y-167904200D02*
X62671800Y-168835200D01*
X62671800Y-170915200D02*
X62671800Y-171846200D01*
X62711800Y-167938200D02*
X62711800Y-168835200D01*
X62711800Y-170915200D02*
X62711800Y-171812200D01*
X62751800Y-167974200D02*
X62751800Y-168835200D01*
X62751800Y-170915200D02*
X62751800Y-171776200D01*
X62791800Y-168011200D02*
X62791800Y-168835200D01*
X62791800Y-170915200D02*
X62791800Y-171739200D01*
X62831800Y-168049200D02*
X62831800Y-168835200D01*
X62831800Y-170915200D02*
X62831800Y-171701200D01*
X62871800Y-168090200D02*
X62871800Y-168835200D01*
X62871800Y-170915200D02*
X62871800Y-171660200D01*
X62911800Y-168132200D02*
X62911800Y-168835200D01*
X62911800Y-170915200D02*
X62911800Y-171618200D01*
X62951800Y-168176200D02*
X62951800Y-168835200D01*
X62951800Y-170915200D02*
X62951800Y-171574200D01*
X62991800Y-168222200D02*
X62991800Y-168835200D01*
X62991800Y-170915200D02*
X62991800Y-171528200D01*
X63031800Y-168270200D02*
X63031800Y-168835200D01*
X63031800Y-170915200D02*
X63031800Y-171480200D01*
X63071800Y-168321200D02*
X63071800Y-168835200D01*
X63071800Y-170915200D02*
X63071800Y-171429200D01*
X63111800Y-168375200D02*
X63111800Y-168835200D01*
X63111800Y-170915200D02*
X63111800Y-171375200D01*
X63151800Y-168432200D02*
X63151800Y-168835200D01*
X63151800Y-170915200D02*
X63151800Y-171318200D01*
X63191800Y-168492200D02*
X63191800Y-168835200D01*
X63191800Y-170915200D02*
X63191800Y-171258200D01*
X63231800Y-168556200D02*
X63231800Y-168835200D01*
X63231800Y-170915200D02*
X63231800Y-171194200D01*
X63271800Y-168624200D02*
X63271800Y-168835200D01*
X63271800Y-170915200D02*
X63271800Y-171126200D01*
X63311800Y-168697200D02*
X63311800Y-171053200D01*
X63351800Y-168777200D02*
X63351800Y-170973200D01*
X63391800Y-168864200D02*
X63391800Y-170886200D01*
X63431800Y-168960200D02*
X63431800Y-170790200D01*
X63471800Y-169070200D02*
X63471800Y-170680200D01*
X63511800Y-169198200D02*
X63511800Y-170552200D01*
X63551800Y-169357200D02*
X63551800Y-170393200D01*
X63591800Y-169591200D02*
X63591800Y-170159200D01*
X58186025Y-168400200D02*
X58686025Y-168400200D01*
X58436025Y-168150200D02*
X58436025Y-168650200D01*
%TO.C,U1*%
D12*
X73634695Y-177252380D02*
X73634695Y-178061904D01*
X73682314Y-178157142D01*
X73729933Y-178204761D01*
X73825171Y-178252380D01*
X74015647Y-178252380D01*
X74110885Y-178204761D01*
X74158504Y-178157142D01*
X74206123Y-178061904D01*
X74206123Y-177252380D01*
X75206123Y-178252380D02*
X74634695Y-178252380D01*
X74920409Y-178252380D02*
X74920409Y-177252380D01*
X74825171Y-177395238D01*
X74729933Y-177490476D01*
X74634695Y-177538095D01*
%TO.C,J4*%
X88308380Y-177930133D02*
X89022666Y-177930133D01*
X89165523Y-177977752D01*
X89260761Y-178072990D01*
X89308380Y-178215847D01*
X89308380Y-178311085D01*
X88641714Y-177025371D02*
X89308380Y-177025371D01*
X88260761Y-177263466D02*
X88975047Y-177501561D01*
X88975047Y-176882514D01*
%TO.C,J3*%
X44213980Y-177828533D02*
X44928266Y-177828533D01*
X45071123Y-177876152D01*
X45166361Y-177971390D01*
X45213980Y-178114247D01*
X45213980Y-178209485D01*
X44213980Y-177447580D02*
X44213980Y-176828533D01*
X44594933Y-177161866D01*
X44594933Y-177019009D01*
X44642552Y-176923771D01*
X44690171Y-176876152D01*
X44785409Y-176828533D01*
X45023504Y-176828533D01*
X45118742Y-176876152D01*
X45166361Y-176923771D01*
X45213980Y-177019009D01*
X45213980Y-177304723D01*
X45166361Y-177399961D01*
X45118742Y-177447580D01*
%TO.C,J2*%
X100987266Y-167422580D02*
X100987266Y-168136866D01*
X100939647Y-168279723D01*
X100844409Y-168374961D01*
X100701552Y-168422580D01*
X100606314Y-168422580D01*
X101415838Y-167517819D02*
X101463457Y-167470200D01*
X101558695Y-167422580D01*
X101796790Y-167422580D01*
X101892028Y-167470200D01*
X101939647Y-167517819D01*
X101987266Y-167613057D01*
X101987266Y-167708295D01*
X101939647Y-167851152D01*
X101368219Y-168422580D01*
X101987266Y-168422580D01*
%TO.C,J1*%
X44472266Y-167676580D02*
X44472266Y-168390866D01*
X44424647Y-168533723D01*
X44329409Y-168628961D01*
X44186552Y-168676580D01*
X44091314Y-168676580D01*
X45472266Y-168676580D02*
X44900838Y-168676580D01*
X45186552Y-168676580D02*
X45186552Y-167676580D01*
X45091314Y-167819438D01*
X44996076Y-167914676D01*
X44900838Y-167962295D01*
%TO.C,C2*%
X83551733Y-173102542D02*
X83504114Y-173150161D01*
X83361257Y-173197780D01*
X83266019Y-173197780D01*
X83123161Y-173150161D01*
X83027923Y-173054923D01*
X82980304Y-172959685D01*
X82932685Y-172769209D01*
X82932685Y-172626352D01*
X82980304Y-172435876D01*
X83027923Y-172340638D01*
X83123161Y-172245400D01*
X83266019Y-172197780D01*
X83361257Y-172197780D01*
X83504114Y-172245400D01*
X83551733Y-172293019D01*
X83932685Y-172293019D02*
X83980304Y-172245400D01*
X84075542Y-172197780D01*
X84313638Y-172197780D01*
X84408876Y-172245400D01*
X84456495Y-172293019D01*
X84504114Y-172388257D01*
X84504114Y-172483495D01*
X84456495Y-172626352D01*
X83885066Y-173197780D01*
X84504114Y-173197780D01*
%TO.C,C1*%
X65466933Y-169038542D02*
X65419314Y-169086161D01*
X65276457Y-169133780D01*
X65181219Y-169133780D01*
X65038361Y-169086161D01*
X64943123Y-168990923D01*
X64895504Y-168895685D01*
X64847885Y-168705209D01*
X64847885Y-168562352D01*
X64895504Y-168371876D01*
X64943123Y-168276638D01*
X65038361Y-168181400D01*
X65181219Y-168133780D01*
X65276457Y-168133780D01*
X65419314Y-168181400D01*
X65466933Y-168229019D01*
X66419314Y-169133780D02*
X65847885Y-169133780D01*
X66133600Y-169133780D02*
X66133600Y-168133780D01*
X66038361Y-168276638D01*
X65943123Y-168371876D01*
X65847885Y-168419495D01*
%TD*%
M02*
