%TF.GenerationSoftware,KiCad,Pcbnew,5.1.9+dfsg1-1*%
%TF.CreationDate,2021-05-25T15:49:57+02:00*%
%TF.ProjectId,single_din_bottom_rev_a,73696e67-6c65-45f6-9469-6e5f626f7474,rev?*%
%TF.SameCoordinates,Original*%
%TF.FileFunction,Legend,Bot*%
%TF.FilePolarity,Positive*%
%FSLAX46Y46*%
G04 Gerber Fmt 4.6, Leading zero omitted, Abs format (unit mm)*
G04 Created by KiCad (PCBNEW 5.1.9+dfsg1-1) date 2021-05-25 15:49:57*
%MOMM*%
%LPD*%
G01*
G04 APERTURE LIST*
%ADD10C,0.300000*%
%ADD11C,0.120000*%
%ADD12C,0.150000*%
G04 APERTURE END LIST*
D10*
X82179571Y-174193671D02*
X82179571Y-172693671D01*
X81822428Y-172693671D01*
X81608142Y-172765100D01*
X81465285Y-172907957D01*
X81393857Y-173050814D01*
X81322428Y-173336528D01*
X81322428Y-173550814D01*
X81393857Y-173836528D01*
X81465285Y-173979385D01*
X81608142Y-174122242D01*
X81822428Y-174193671D01*
X82179571Y-174193671D01*
X80679571Y-174193671D02*
X80679571Y-172693671D01*
X79965285Y-174193671D02*
X79965285Y-172693671D01*
X79108142Y-174193671D01*
X79108142Y-172693671D01*
X77251000Y-174193671D02*
X77251000Y-172693671D01*
X76751000Y-173765100D01*
X76251000Y-172693671D01*
X76251000Y-174193671D01*
X74751000Y-174193671D02*
X75608142Y-174193671D01*
X75179571Y-174193671D02*
X75179571Y-172693671D01*
X75322428Y-172907957D01*
X75465285Y-173050814D01*
X75608142Y-173122242D01*
X72465285Y-173407957D02*
X72251000Y-173479385D01*
X72179571Y-173550814D01*
X72108142Y-173693671D01*
X72108142Y-173907957D01*
X72179571Y-174050814D01*
X72251000Y-174122242D01*
X72393857Y-174193671D01*
X72965285Y-174193671D01*
X72965285Y-172693671D01*
X72465285Y-172693671D01*
X72322428Y-172765100D01*
X72251000Y-172836528D01*
X72179571Y-172979385D01*
X72179571Y-173122242D01*
X72251000Y-173265100D01*
X72322428Y-173336528D01*
X72465285Y-173407957D01*
X72965285Y-173407957D01*
X70822428Y-174193671D02*
X70822428Y-173407957D01*
X70893857Y-173265100D01*
X71036714Y-173193671D01*
X71322428Y-173193671D01*
X71465285Y-173265100D01*
X70822428Y-174122242D02*
X70965285Y-174193671D01*
X71322428Y-174193671D01*
X71465285Y-174122242D01*
X71536714Y-173979385D01*
X71536714Y-173836528D01*
X71465285Y-173693671D01*
X71322428Y-173622242D01*
X70965285Y-173622242D01*
X70822428Y-173550814D01*
X70179571Y-174122242D02*
X70036714Y-174193671D01*
X69751000Y-174193671D01*
X69608142Y-174122242D01*
X69536714Y-173979385D01*
X69536714Y-173907957D01*
X69608142Y-173765100D01*
X69751000Y-173693671D01*
X69965285Y-173693671D01*
X70108142Y-173622242D01*
X70179571Y-173479385D01*
X70179571Y-173407957D01*
X70108142Y-173265100D01*
X69965285Y-173193671D01*
X69751000Y-173193671D01*
X69608142Y-173265100D01*
X68322428Y-174122242D02*
X68465285Y-174193671D01*
X68751000Y-174193671D01*
X68893857Y-174122242D01*
X68965285Y-173979385D01*
X68965285Y-173407957D01*
X68893857Y-173265100D01*
X68751000Y-173193671D01*
X68465285Y-173193671D01*
X68322428Y-173265100D01*
X68251000Y-173407957D01*
X68251000Y-173550814D01*
X68965285Y-173693671D01*
X66465285Y-174193671D02*
X66465285Y-172693671D01*
X66465285Y-173265100D02*
X66322428Y-173193671D01*
X66036714Y-173193671D01*
X65893857Y-173265100D01*
X65822428Y-173336528D01*
X65751000Y-173479385D01*
X65751000Y-173907957D01*
X65822428Y-174050814D01*
X65893857Y-174122242D01*
X66036714Y-174193671D01*
X66322428Y-174193671D01*
X66465285Y-174122242D01*
X64893857Y-174193671D02*
X65036714Y-174122242D01*
X65108142Y-174050814D01*
X65179571Y-173907957D01*
X65179571Y-173479385D01*
X65108142Y-173336528D01*
X65036714Y-173265100D01*
X64893857Y-173193671D01*
X64679571Y-173193671D01*
X64536714Y-173265100D01*
X64465285Y-173336528D01*
X64393857Y-173479385D01*
X64393857Y-173907957D01*
X64465285Y-174050814D01*
X64536714Y-174122242D01*
X64679571Y-174193671D01*
X64893857Y-174193671D01*
X63108142Y-174193671D02*
X63108142Y-173407957D01*
X63179571Y-173265100D01*
X63322428Y-173193671D01*
X63608142Y-173193671D01*
X63751000Y-173265100D01*
X63108142Y-174122242D02*
X63251000Y-174193671D01*
X63608142Y-174193671D01*
X63751000Y-174122242D01*
X63822428Y-173979385D01*
X63822428Y-173836528D01*
X63751000Y-173693671D01*
X63608142Y-173622242D01*
X63251000Y-173622242D01*
X63108142Y-173550814D01*
X62393857Y-174193671D02*
X62393857Y-173193671D01*
X62393857Y-173479385D02*
X62322428Y-173336528D01*
X62251000Y-173265100D01*
X62108142Y-173193671D01*
X61965285Y-173193671D01*
X60822428Y-174193671D02*
X60822428Y-172693671D01*
X60822428Y-174122242D02*
X60965285Y-174193671D01*
X61251000Y-174193671D01*
X61393857Y-174122242D01*
X61465285Y-174050814D01*
X61536714Y-173907957D01*
X61536714Y-173479385D01*
X61465285Y-173336528D01*
X61393857Y-173265100D01*
X61251000Y-173193671D01*
X60965285Y-173193671D01*
X60822428Y-173265100D01*
X74036714Y-176743671D02*
X74036714Y-175743671D01*
X74036714Y-176029385D02*
X73965285Y-175886528D01*
X73893857Y-175815100D01*
X73751000Y-175743671D01*
X73608142Y-175743671D01*
X72536714Y-176672242D02*
X72679571Y-176743671D01*
X72965285Y-176743671D01*
X73108142Y-176672242D01*
X73179571Y-176529385D01*
X73179571Y-175957957D01*
X73108142Y-175815100D01*
X72965285Y-175743671D01*
X72679571Y-175743671D01*
X72536714Y-175815100D01*
X72465285Y-175957957D01*
X72465285Y-176100814D01*
X73179571Y-176243671D01*
X71965285Y-175743671D02*
X71608142Y-176743671D01*
X71251000Y-175743671D01*
X69608142Y-176315100D02*
X68893857Y-176315100D01*
X69751000Y-176743671D02*
X69251000Y-175243671D01*
X68751000Y-176743671D01*
D11*
%TO.C,R2*%
X96200964Y-173594700D02*
X95746836Y-173594700D01*
X96200964Y-172124700D02*
X95746836Y-172124700D01*
%TO.C,R1*%
X96277164Y-168263900D02*
X95823036Y-168263900D01*
X96277164Y-169733900D02*
X95823036Y-169733900D01*
%TO.C,R2*%
D12*
X96140566Y-171662080D02*
X96473900Y-171185890D01*
X96711995Y-171662080D02*
X96711995Y-170662080D01*
X96331042Y-170662080D01*
X96235804Y-170709700D01*
X96188185Y-170757319D01*
X96140566Y-170852557D01*
X96140566Y-170995414D01*
X96188185Y-171090652D01*
X96235804Y-171138271D01*
X96331042Y-171185890D01*
X96711995Y-171185890D01*
X95759614Y-170757319D02*
X95711995Y-170709700D01*
X95616757Y-170662080D01*
X95378661Y-170662080D01*
X95283423Y-170709700D01*
X95235804Y-170757319D01*
X95188185Y-170852557D01*
X95188185Y-170947795D01*
X95235804Y-171090652D01*
X95807233Y-171662080D01*
X95188185Y-171662080D01*
%TO.C,R1*%
X96216766Y-167801280D02*
X96550100Y-167325090D01*
X96788195Y-167801280D02*
X96788195Y-166801280D01*
X96407242Y-166801280D01*
X96312004Y-166848900D01*
X96264385Y-166896519D01*
X96216766Y-166991757D01*
X96216766Y-167134614D01*
X96264385Y-167229852D01*
X96312004Y-167277471D01*
X96407242Y-167325090D01*
X96788195Y-167325090D01*
X95264385Y-167801280D02*
X95835814Y-167801280D01*
X95550100Y-167801280D02*
X95550100Y-166801280D01*
X95645338Y-166944138D01*
X95740576Y-167039376D01*
X95835814Y-167086995D01*
%TD*%
M02*
