%TF.GenerationSoftware,KiCad,Pcbnew,5.1.9+dfsg1-1*%
%TF.CreationDate,2021-05-25T15:49:57+02:00*%
%TF.ProjectId,single_din_bottom_rev_a,73696e67-6c65-45f6-9469-6e5f626f7474,rev?*%
%TF.SameCoordinates,Original*%
%TF.FileFunction,Copper,L1,Top*%
%TF.FilePolarity,Positive*%
%FSLAX46Y46*%
G04 Gerber Fmt 4.6, Leading zero omitted, Abs format (unit mm)*
G04 Created by KiCad (PCBNEW 5.1.9+dfsg1-1) date 2021-05-25 15:49:57*
%MOMM*%
%LPD*%
G01*
G04 APERTURE LIST*
%TA.AperFunction,ComponentPad*%
%ADD10O,1.700000X1.700000*%
%TD*%
%TA.AperFunction,ComponentPad*%
%ADD11R,1.700000X1.700000*%
%TD*%
%TA.AperFunction,ComponentPad*%
%ADD12O,1.700000X2.500000*%
%TD*%
%TA.AperFunction,ComponentPad*%
%ADD13R,1.700000X2.500000*%
%TD*%
%TA.AperFunction,ComponentPad*%
%ADD14C,1.600000*%
%TD*%
%TA.AperFunction,ComponentPad*%
%ADD15R,1.600000X1.600000*%
%TD*%
%TA.AperFunction,Conductor*%
%ADD16C,1.000000*%
%TD*%
%TA.AperFunction,Conductor*%
%ADD17C,0.254000*%
%TD*%
%TA.AperFunction,Conductor*%
%ADD18C,0.100000*%
%TD*%
G04 APERTURE END LIST*
D10*
%TO.P,J4,4*%
%TO.N,/IO4*%
X100920000Y-178200000D03*
%TO.P,J4,3*%
%TO.N,/IO3*%
X98380000Y-178200000D03*
%TO.P,J4,2*%
%TO.N,/IO2*%
X95840000Y-178200000D03*
D11*
%TO.P,J4,1*%
%TO.N,/IO1*%
X93300000Y-178200000D03*
%TD*%
D12*
%TO.P,U1,3*%
%TO.N,/Vout*%
X77139800Y-168554400D03*
%TO.P,U1,2*%
%TO.N,GND*%
X74599800Y-168554400D03*
D13*
%TO.P,U1,1*%
%TO.N,/Vin*%
X72059800Y-168554400D03*
%TD*%
D10*
%TO.P,J3,4*%
%TO.N,Net-(J1-Pad2)*%
X52820000Y-178200000D03*
%TO.P,J3,3*%
%TO.N,Net-(J1-Pad3)*%
X50280000Y-178200000D03*
%TO.P,J3,2*%
%TO.N,/Vout*%
X47740000Y-178200000D03*
D11*
%TO.P,J3,1*%
%TO.N,GND*%
X45200000Y-178200000D03*
%TD*%
D10*
%TO.P,J2,4*%
%TO.N,/IO4*%
X104724200Y-176631600D03*
%TO.P,J2,3*%
%TO.N,/IO3*%
X104724200Y-174091600D03*
%TO.P,J2,2*%
%TO.N,/IO2*%
X104724200Y-171551600D03*
D11*
%TO.P,J2,1*%
%TO.N,/IO1*%
X104724200Y-169011600D03*
%TD*%
D10*
%TO.P,J1,4*%
%TO.N,/Vin*%
X41402000Y-169240200D03*
%TO.P,J1,3*%
%TO.N,Net-(J1-Pad3)*%
X41402000Y-171780200D03*
%TO.P,J1,2*%
%TO.N,Net-(J1-Pad2)*%
X41402000Y-174320200D03*
D11*
%TO.P,J1,1*%
%TO.N,GND*%
X41402000Y-176860200D03*
%TD*%
D14*
%TO.P,C2,2*%
%TO.N,GND*%
X88504400Y-170205400D03*
D15*
%TO.P,C2,1*%
%TO.N,/Vout*%
X86004400Y-170205400D03*
%TD*%
D14*
%TO.P,C1,2*%
%TO.N,GND*%
X62240800Y-169875200D03*
D15*
%TO.P,C1,1*%
%TO.N,/Vin*%
X59740800Y-169875200D03*
%TD*%
D16*
%TO.N,/Vin*%
X59105800Y-169240200D02*
X59740800Y-169875200D01*
X41402000Y-169240200D02*
X59105800Y-169240200D01*
X72059800Y-168554400D02*
X65976500Y-168554400D01*
X65976500Y-168554400D02*
X64833500Y-167411400D01*
X64833500Y-167411400D02*
X60871100Y-167411400D01*
X59740800Y-168541700D02*
X59740800Y-169875200D01*
X60871100Y-167411400D02*
X59740800Y-168541700D01*
%TO.N,/Vout*%
X84353400Y-168554400D02*
X86004400Y-170205400D01*
X77139800Y-168554400D02*
X84353400Y-168554400D01*
X77139800Y-168554400D02*
X77139800Y-172796200D01*
X77139800Y-172796200D02*
X75184000Y-174752000D01*
X75184000Y-174752000D02*
X48768000Y-174752000D01*
X47740000Y-175780000D02*
X47740000Y-178200000D01*
X48768000Y-174752000D02*
X47740000Y-175780000D01*
%TO.N,/IO4*%
X102488400Y-176631600D02*
X100920000Y-178200000D01*
X104724200Y-176631600D02*
X102488400Y-176631600D01*
%TO.N,/IO3*%
X104724200Y-174091600D02*
X99974400Y-174091600D01*
X98380000Y-175686000D02*
X98380000Y-178200000D01*
X99974400Y-174091600D02*
X98380000Y-175686000D01*
%TO.N,/IO2*%
X104724200Y-171551600D02*
X97942400Y-171551600D01*
X95840000Y-173654000D02*
X95840000Y-178200000D01*
X97942400Y-171551600D02*
X95840000Y-173654000D01*
%TO.N,/IO1*%
X104724200Y-169011600D02*
X95148400Y-169011600D01*
X93300000Y-170860000D02*
X93300000Y-178200000D01*
X95148400Y-169011600D02*
X93300000Y-170860000D01*
%TD*%
D17*
%TO.N,GND*%
X58977664Y-167699705D02*
X58934351Y-167735251D01*
X58792516Y-167908077D01*
X58699847Y-168081451D01*
X58687153Y-168105200D01*
X42367107Y-168105200D01*
X42348632Y-168086725D01*
X42105411Y-167924210D01*
X41835158Y-167812268D01*
X41548260Y-167755200D01*
X41255740Y-167755200D01*
X40968842Y-167812268D01*
X40698589Y-167924210D01*
X40455368Y-168086725D01*
X40248525Y-168293568D01*
X40086010Y-168536789D01*
X39974068Y-168807042D01*
X39917000Y-169093940D01*
X39917000Y-169386460D01*
X39974068Y-169673358D01*
X40086010Y-169943611D01*
X40248525Y-170186832D01*
X40455368Y-170393675D01*
X40629760Y-170510200D01*
X40455368Y-170626725D01*
X40248525Y-170833568D01*
X40086010Y-171076789D01*
X39974068Y-171347042D01*
X39917000Y-171633940D01*
X39917000Y-171926460D01*
X39974068Y-172213358D01*
X40086010Y-172483611D01*
X40248525Y-172726832D01*
X40455368Y-172933675D01*
X40629760Y-173050200D01*
X40455368Y-173166725D01*
X40248525Y-173373568D01*
X40086010Y-173616789D01*
X39974068Y-173887042D01*
X39917000Y-174173940D01*
X39917000Y-174466460D01*
X39974068Y-174753358D01*
X40086010Y-175023611D01*
X40248525Y-175266832D01*
X40380380Y-175398687D01*
X40307820Y-175420698D01*
X40197506Y-175479663D01*
X40100815Y-175559015D01*
X40021463Y-175655706D01*
X39962498Y-175766020D01*
X39926188Y-175885718D01*
X39913928Y-176010200D01*
X39917000Y-176574450D01*
X40075750Y-176733200D01*
X41275000Y-176733200D01*
X41275000Y-176713200D01*
X41529000Y-176713200D01*
X41529000Y-176733200D01*
X42728250Y-176733200D01*
X42887000Y-176574450D01*
X42890072Y-176010200D01*
X42877812Y-175885718D01*
X42841502Y-175766020D01*
X42782537Y-175655706D01*
X42703185Y-175559015D01*
X42606494Y-175479663D01*
X42496180Y-175420698D01*
X42423620Y-175398687D01*
X42555475Y-175266832D01*
X42717990Y-175023611D01*
X42829932Y-174753358D01*
X42887000Y-174466460D01*
X42887000Y-174173940D01*
X42829932Y-173887042D01*
X42717990Y-173616789D01*
X42555475Y-173373568D01*
X42348632Y-173166725D01*
X42174240Y-173050200D01*
X42348632Y-172933675D01*
X42555475Y-172726832D01*
X42717990Y-172483611D01*
X42829932Y-172213358D01*
X42887000Y-171926460D01*
X42887000Y-171633940D01*
X42829932Y-171347042D01*
X42717990Y-171076789D01*
X42555475Y-170833568D01*
X42348632Y-170626725D01*
X42174240Y-170510200D01*
X42348632Y-170393675D01*
X42367107Y-170375200D01*
X58302728Y-170375200D01*
X58302728Y-170675200D01*
X58314988Y-170799682D01*
X58351298Y-170919380D01*
X58410263Y-171029694D01*
X58489615Y-171126385D01*
X58586306Y-171205737D01*
X58696620Y-171264702D01*
X58816318Y-171301012D01*
X58940800Y-171313272D01*
X60540800Y-171313272D01*
X60665282Y-171301012D01*
X60784980Y-171264702D01*
X60895294Y-171205737D01*
X60991985Y-171126385D01*
X61071337Y-171029694D01*
X61130302Y-170919380D01*
X61145917Y-170867902D01*
X61427703Y-170867902D01*
X61499286Y-171111871D01*
X61754796Y-171232771D01*
X62028984Y-171301500D01*
X62311312Y-171315417D01*
X62590930Y-171273987D01*
X62857092Y-171178803D01*
X62982314Y-171111871D01*
X63053897Y-170867902D01*
X62240800Y-170054805D01*
X61427703Y-170867902D01*
X61145917Y-170867902D01*
X61166612Y-170799682D01*
X61178872Y-170675200D01*
X61178872Y-170667985D01*
X61248098Y-170688297D01*
X62061195Y-169875200D01*
X62420405Y-169875200D01*
X63233502Y-170688297D01*
X63477471Y-170616714D01*
X63598371Y-170361204D01*
X63667100Y-170087016D01*
X63681017Y-169804688D01*
X63639587Y-169525070D01*
X63544403Y-169258908D01*
X63477471Y-169133686D01*
X63233502Y-169062103D01*
X62420405Y-169875200D01*
X62061195Y-169875200D01*
X61248098Y-169062103D01*
X61178872Y-169082415D01*
X61178872Y-169075200D01*
X61166612Y-168950718D01*
X61130302Y-168831020D01*
X61104634Y-168782998D01*
X61341232Y-168546400D01*
X61694966Y-168546400D01*
X61624508Y-168571597D01*
X61499286Y-168638529D01*
X61427703Y-168882498D01*
X62240800Y-169695595D01*
X63053897Y-168882498D01*
X62982314Y-168638529D01*
X62787609Y-168546400D01*
X64363369Y-168546400D01*
X65134508Y-169317540D01*
X65170051Y-169360849D01*
X65342877Y-169502684D01*
X65472142Y-169571777D01*
X65540053Y-169608076D01*
X65754001Y-169672977D01*
X65976499Y-169694891D01*
X66032251Y-169689400D01*
X70571728Y-169689400D01*
X70571728Y-169804400D01*
X70583988Y-169928882D01*
X70620298Y-170048580D01*
X70679263Y-170158894D01*
X70758615Y-170255585D01*
X70855306Y-170334937D01*
X70965620Y-170393902D01*
X71085318Y-170430212D01*
X71209800Y-170442472D01*
X72909800Y-170442472D01*
X73034282Y-170430212D01*
X73153980Y-170393902D01*
X73264294Y-170334937D01*
X73360985Y-170255585D01*
X73440337Y-170158894D01*
X73499302Y-170048580D01*
X73522025Y-169973672D01*
X73639548Y-170094257D01*
X73880374Y-170259691D01*
X74148847Y-170374963D01*
X74242910Y-170395876D01*
X74472800Y-170274555D01*
X74472800Y-168681400D01*
X74452800Y-168681400D01*
X74452800Y-168427400D01*
X74472800Y-168427400D01*
X74472800Y-168407400D01*
X74726800Y-168407400D01*
X74726800Y-168427400D01*
X74746800Y-168427400D01*
X74746800Y-168681400D01*
X74726800Y-168681400D01*
X74726800Y-170274555D01*
X74956690Y-170395876D01*
X75050753Y-170374963D01*
X75319226Y-170259691D01*
X75560052Y-170094257D01*
X75763976Y-169885019D01*
X75867905Y-169725063D01*
X75899094Y-169783414D01*
X76004800Y-169912217D01*
X76004801Y-172326067D01*
X74713869Y-173617000D01*
X48823752Y-173617000D01*
X48768000Y-173611509D01*
X48545501Y-173633423D01*
X48331553Y-173698324D01*
X48134377Y-173803716D01*
X48004856Y-173910011D01*
X48004854Y-173910013D01*
X47961551Y-173945551D01*
X47926013Y-173988854D01*
X46976864Y-174938005D01*
X46933551Y-174973551D01*
X46791716Y-175146377D01*
X46701260Y-175315610D01*
X46686324Y-175343554D01*
X46621423Y-175557502D01*
X46599509Y-175780000D01*
X46605000Y-175835752D01*
X46605001Y-177041273D01*
X46580537Y-176995506D01*
X46501185Y-176898815D01*
X46404494Y-176819463D01*
X46294180Y-176760498D01*
X46174482Y-176724188D01*
X46050000Y-176711928D01*
X45485750Y-176715000D01*
X45327000Y-176873750D01*
X45327000Y-178073000D01*
X45347000Y-178073000D01*
X45347000Y-178327000D01*
X45327000Y-178327000D01*
X45327000Y-178347000D01*
X45073000Y-178347000D01*
X45073000Y-178327000D01*
X43873750Y-178327000D01*
X43715000Y-178485750D01*
X43711928Y-179050000D01*
X43724188Y-179174482D01*
X43760498Y-179294180D01*
X43771627Y-179315000D01*
X30685000Y-179315000D01*
X30685000Y-177710200D01*
X39913928Y-177710200D01*
X39926188Y-177834682D01*
X39962498Y-177954380D01*
X40021463Y-178064694D01*
X40100815Y-178161385D01*
X40197506Y-178240737D01*
X40307820Y-178299702D01*
X40427518Y-178336012D01*
X40552000Y-178348272D01*
X41116250Y-178345200D01*
X41275000Y-178186450D01*
X41275000Y-176987200D01*
X41529000Y-176987200D01*
X41529000Y-178186450D01*
X41687750Y-178345200D01*
X42252000Y-178348272D01*
X42376482Y-178336012D01*
X42496180Y-178299702D01*
X42606494Y-178240737D01*
X42703185Y-178161385D01*
X42782537Y-178064694D01*
X42841502Y-177954380D01*
X42877812Y-177834682D01*
X42890072Y-177710200D01*
X42888111Y-177350000D01*
X43711928Y-177350000D01*
X43715000Y-177914250D01*
X43873750Y-178073000D01*
X45073000Y-178073000D01*
X45073000Y-176873750D01*
X44914250Y-176715000D01*
X44350000Y-176711928D01*
X44225518Y-176724188D01*
X44105820Y-176760498D01*
X43995506Y-176819463D01*
X43898815Y-176898815D01*
X43819463Y-176995506D01*
X43760498Y-177105820D01*
X43724188Y-177225518D01*
X43711928Y-177350000D01*
X42888111Y-177350000D01*
X42887000Y-177145950D01*
X42728250Y-176987200D01*
X41529000Y-176987200D01*
X41275000Y-176987200D01*
X40075750Y-176987200D01*
X39917000Y-177145950D01*
X39913928Y-177710200D01*
X30685000Y-177710200D01*
X30685000Y-166685000D01*
X59992367Y-166685000D01*
X58977664Y-167699705D01*
%TA.AperFunction,Conductor*%
D18*
G36*
X58977664Y-167699705D02*
G01*
X58934351Y-167735251D01*
X58792516Y-167908077D01*
X58699847Y-168081451D01*
X58687153Y-168105200D01*
X42367107Y-168105200D01*
X42348632Y-168086725D01*
X42105411Y-167924210D01*
X41835158Y-167812268D01*
X41548260Y-167755200D01*
X41255740Y-167755200D01*
X40968842Y-167812268D01*
X40698589Y-167924210D01*
X40455368Y-168086725D01*
X40248525Y-168293568D01*
X40086010Y-168536789D01*
X39974068Y-168807042D01*
X39917000Y-169093940D01*
X39917000Y-169386460D01*
X39974068Y-169673358D01*
X40086010Y-169943611D01*
X40248525Y-170186832D01*
X40455368Y-170393675D01*
X40629760Y-170510200D01*
X40455368Y-170626725D01*
X40248525Y-170833568D01*
X40086010Y-171076789D01*
X39974068Y-171347042D01*
X39917000Y-171633940D01*
X39917000Y-171926460D01*
X39974068Y-172213358D01*
X40086010Y-172483611D01*
X40248525Y-172726832D01*
X40455368Y-172933675D01*
X40629760Y-173050200D01*
X40455368Y-173166725D01*
X40248525Y-173373568D01*
X40086010Y-173616789D01*
X39974068Y-173887042D01*
X39917000Y-174173940D01*
X39917000Y-174466460D01*
X39974068Y-174753358D01*
X40086010Y-175023611D01*
X40248525Y-175266832D01*
X40380380Y-175398687D01*
X40307820Y-175420698D01*
X40197506Y-175479663D01*
X40100815Y-175559015D01*
X40021463Y-175655706D01*
X39962498Y-175766020D01*
X39926188Y-175885718D01*
X39913928Y-176010200D01*
X39917000Y-176574450D01*
X40075750Y-176733200D01*
X41275000Y-176733200D01*
X41275000Y-176713200D01*
X41529000Y-176713200D01*
X41529000Y-176733200D01*
X42728250Y-176733200D01*
X42887000Y-176574450D01*
X42890072Y-176010200D01*
X42877812Y-175885718D01*
X42841502Y-175766020D01*
X42782537Y-175655706D01*
X42703185Y-175559015D01*
X42606494Y-175479663D01*
X42496180Y-175420698D01*
X42423620Y-175398687D01*
X42555475Y-175266832D01*
X42717990Y-175023611D01*
X42829932Y-174753358D01*
X42887000Y-174466460D01*
X42887000Y-174173940D01*
X42829932Y-173887042D01*
X42717990Y-173616789D01*
X42555475Y-173373568D01*
X42348632Y-173166725D01*
X42174240Y-173050200D01*
X42348632Y-172933675D01*
X42555475Y-172726832D01*
X42717990Y-172483611D01*
X42829932Y-172213358D01*
X42887000Y-171926460D01*
X42887000Y-171633940D01*
X42829932Y-171347042D01*
X42717990Y-171076789D01*
X42555475Y-170833568D01*
X42348632Y-170626725D01*
X42174240Y-170510200D01*
X42348632Y-170393675D01*
X42367107Y-170375200D01*
X58302728Y-170375200D01*
X58302728Y-170675200D01*
X58314988Y-170799682D01*
X58351298Y-170919380D01*
X58410263Y-171029694D01*
X58489615Y-171126385D01*
X58586306Y-171205737D01*
X58696620Y-171264702D01*
X58816318Y-171301012D01*
X58940800Y-171313272D01*
X60540800Y-171313272D01*
X60665282Y-171301012D01*
X60784980Y-171264702D01*
X60895294Y-171205737D01*
X60991985Y-171126385D01*
X61071337Y-171029694D01*
X61130302Y-170919380D01*
X61145917Y-170867902D01*
X61427703Y-170867902D01*
X61499286Y-171111871D01*
X61754796Y-171232771D01*
X62028984Y-171301500D01*
X62311312Y-171315417D01*
X62590930Y-171273987D01*
X62857092Y-171178803D01*
X62982314Y-171111871D01*
X63053897Y-170867902D01*
X62240800Y-170054805D01*
X61427703Y-170867902D01*
X61145917Y-170867902D01*
X61166612Y-170799682D01*
X61178872Y-170675200D01*
X61178872Y-170667985D01*
X61248098Y-170688297D01*
X62061195Y-169875200D01*
X62420405Y-169875200D01*
X63233502Y-170688297D01*
X63477471Y-170616714D01*
X63598371Y-170361204D01*
X63667100Y-170087016D01*
X63681017Y-169804688D01*
X63639587Y-169525070D01*
X63544403Y-169258908D01*
X63477471Y-169133686D01*
X63233502Y-169062103D01*
X62420405Y-169875200D01*
X62061195Y-169875200D01*
X61248098Y-169062103D01*
X61178872Y-169082415D01*
X61178872Y-169075200D01*
X61166612Y-168950718D01*
X61130302Y-168831020D01*
X61104634Y-168782998D01*
X61341232Y-168546400D01*
X61694966Y-168546400D01*
X61624508Y-168571597D01*
X61499286Y-168638529D01*
X61427703Y-168882498D01*
X62240800Y-169695595D01*
X63053897Y-168882498D01*
X62982314Y-168638529D01*
X62787609Y-168546400D01*
X64363369Y-168546400D01*
X65134508Y-169317540D01*
X65170051Y-169360849D01*
X65342877Y-169502684D01*
X65472142Y-169571777D01*
X65540053Y-169608076D01*
X65754001Y-169672977D01*
X65976499Y-169694891D01*
X66032251Y-169689400D01*
X70571728Y-169689400D01*
X70571728Y-169804400D01*
X70583988Y-169928882D01*
X70620298Y-170048580D01*
X70679263Y-170158894D01*
X70758615Y-170255585D01*
X70855306Y-170334937D01*
X70965620Y-170393902D01*
X71085318Y-170430212D01*
X71209800Y-170442472D01*
X72909800Y-170442472D01*
X73034282Y-170430212D01*
X73153980Y-170393902D01*
X73264294Y-170334937D01*
X73360985Y-170255585D01*
X73440337Y-170158894D01*
X73499302Y-170048580D01*
X73522025Y-169973672D01*
X73639548Y-170094257D01*
X73880374Y-170259691D01*
X74148847Y-170374963D01*
X74242910Y-170395876D01*
X74472800Y-170274555D01*
X74472800Y-168681400D01*
X74452800Y-168681400D01*
X74452800Y-168427400D01*
X74472800Y-168427400D01*
X74472800Y-168407400D01*
X74726800Y-168407400D01*
X74726800Y-168427400D01*
X74746800Y-168427400D01*
X74746800Y-168681400D01*
X74726800Y-168681400D01*
X74726800Y-170274555D01*
X74956690Y-170395876D01*
X75050753Y-170374963D01*
X75319226Y-170259691D01*
X75560052Y-170094257D01*
X75763976Y-169885019D01*
X75867905Y-169725063D01*
X75899094Y-169783414D01*
X76004800Y-169912217D01*
X76004801Y-172326067D01*
X74713869Y-173617000D01*
X48823752Y-173617000D01*
X48768000Y-173611509D01*
X48545501Y-173633423D01*
X48331553Y-173698324D01*
X48134377Y-173803716D01*
X48004856Y-173910011D01*
X48004854Y-173910013D01*
X47961551Y-173945551D01*
X47926013Y-173988854D01*
X46976864Y-174938005D01*
X46933551Y-174973551D01*
X46791716Y-175146377D01*
X46701260Y-175315610D01*
X46686324Y-175343554D01*
X46621423Y-175557502D01*
X46599509Y-175780000D01*
X46605000Y-175835752D01*
X46605001Y-177041273D01*
X46580537Y-176995506D01*
X46501185Y-176898815D01*
X46404494Y-176819463D01*
X46294180Y-176760498D01*
X46174482Y-176724188D01*
X46050000Y-176711928D01*
X45485750Y-176715000D01*
X45327000Y-176873750D01*
X45327000Y-178073000D01*
X45347000Y-178073000D01*
X45347000Y-178327000D01*
X45327000Y-178327000D01*
X45327000Y-178347000D01*
X45073000Y-178347000D01*
X45073000Y-178327000D01*
X43873750Y-178327000D01*
X43715000Y-178485750D01*
X43711928Y-179050000D01*
X43724188Y-179174482D01*
X43760498Y-179294180D01*
X43771627Y-179315000D01*
X30685000Y-179315000D01*
X30685000Y-177710200D01*
X39913928Y-177710200D01*
X39926188Y-177834682D01*
X39962498Y-177954380D01*
X40021463Y-178064694D01*
X40100815Y-178161385D01*
X40197506Y-178240737D01*
X40307820Y-178299702D01*
X40427518Y-178336012D01*
X40552000Y-178348272D01*
X41116250Y-178345200D01*
X41275000Y-178186450D01*
X41275000Y-176987200D01*
X41529000Y-176987200D01*
X41529000Y-178186450D01*
X41687750Y-178345200D01*
X42252000Y-178348272D01*
X42376482Y-178336012D01*
X42496180Y-178299702D01*
X42606494Y-178240737D01*
X42703185Y-178161385D01*
X42782537Y-178064694D01*
X42841502Y-177954380D01*
X42877812Y-177834682D01*
X42890072Y-177710200D01*
X42888111Y-177350000D01*
X43711928Y-177350000D01*
X43715000Y-177914250D01*
X43873750Y-178073000D01*
X45073000Y-178073000D01*
X45073000Y-176873750D01*
X44914250Y-176715000D01*
X44350000Y-176711928D01*
X44225518Y-176724188D01*
X44105820Y-176760498D01*
X43995506Y-176819463D01*
X43898815Y-176898815D01*
X43819463Y-176995506D01*
X43760498Y-177105820D01*
X43724188Y-177225518D01*
X43711928Y-177350000D01*
X42888111Y-177350000D01*
X42887000Y-177145950D01*
X42728250Y-176987200D01*
X41529000Y-176987200D01*
X41275000Y-176987200D01*
X40075750Y-176987200D01*
X39917000Y-177145950D01*
X39913928Y-177710200D01*
X30685000Y-177710200D01*
X30685000Y-166685000D01*
X59992367Y-166685000D01*
X58977664Y-167699705D01*
G37*
%TD.AperFunction*%
D17*
X115315001Y-179315000D02*
X101905107Y-179315000D01*
X102073475Y-179146632D01*
X102235990Y-178903411D01*
X102347932Y-178633158D01*
X102405000Y-178346260D01*
X102405000Y-178320132D01*
X102958533Y-177766600D01*
X103759093Y-177766600D01*
X103777568Y-177785075D01*
X104020789Y-177947590D01*
X104291042Y-178059532D01*
X104577940Y-178116600D01*
X104870460Y-178116600D01*
X105157358Y-178059532D01*
X105427611Y-177947590D01*
X105670832Y-177785075D01*
X105877675Y-177578232D01*
X106040190Y-177335011D01*
X106152132Y-177064758D01*
X106209200Y-176777860D01*
X106209200Y-176485340D01*
X106152132Y-176198442D01*
X106040190Y-175928189D01*
X105877675Y-175684968D01*
X105670832Y-175478125D01*
X105496440Y-175361600D01*
X105670832Y-175245075D01*
X105877675Y-175038232D01*
X106040190Y-174795011D01*
X106152132Y-174524758D01*
X106209200Y-174237860D01*
X106209200Y-173945340D01*
X106152132Y-173658442D01*
X106040190Y-173388189D01*
X105877675Y-173144968D01*
X105670832Y-172938125D01*
X105496440Y-172821600D01*
X105670832Y-172705075D01*
X105877675Y-172498232D01*
X106040190Y-172255011D01*
X106152132Y-171984758D01*
X106209200Y-171697860D01*
X106209200Y-171405340D01*
X106152132Y-171118442D01*
X106040190Y-170848189D01*
X105877675Y-170604968D01*
X105745820Y-170473113D01*
X105818380Y-170451102D01*
X105928694Y-170392137D01*
X106025385Y-170312785D01*
X106104737Y-170216094D01*
X106163702Y-170105780D01*
X106200012Y-169986082D01*
X106212272Y-169861600D01*
X106212272Y-168161600D01*
X106200012Y-168037118D01*
X106163702Y-167917420D01*
X106104737Y-167807106D01*
X106025385Y-167710415D01*
X105928694Y-167631063D01*
X105818380Y-167572098D01*
X105698682Y-167535788D01*
X105574200Y-167523528D01*
X103874200Y-167523528D01*
X103749718Y-167535788D01*
X103630020Y-167572098D01*
X103519706Y-167631063D01*
X103423015Y-167710415D01*
X103343663Y-167807106D01*
X103306517Y-167876600D01*
X95204141Y-167876600D01*
X95148399Y-167871110D01*
X95092657Y-167876600D01*
X95092648Y-167876600D01*
X94925901Y-167893023D01*
X94711953Y-167957924D01*
X94514777Y-168063316D01*
X94341951Y-168205151D01*
X94306409Y-168248460D01*
X92536865Y-170018004D01*
X92493551Y-170053551D01*
X92351716Y-170226377D01*
X92262173Y-170393902D01*
X92246324Y-170423554D01*
X92181423Y-170637502D01*
X92159509Y-170860000D01*
X92165000Y-170915752D01*
X92165001Y-176782317D01*
X92095506Y-176819463D01*
X91998815Y-176898815D01*
X91919463Y-176995506D01*
X91860498Y-177105820D01*
X91824188Y-177225518D01*
X91811928Y-177350000D01*
X91811928Y-179050000D01*
X91824188Y-179174482D01*
X91860498Y-179294180D01*
X91871627Y-179315000D01*
X53805107Y-179315000D01*
X53973475Y-179146632D01*
X54135990Y-178903411D01*
X54247932Y-178633158D01*
X54305000Y-178346260D01*
X54305000Y-178053740D01*
X54247932Y-177766842D01*
X54135990Y-177496589D01*
X53973475Y-177253368D01*
X53766632Y-177046525D01*
X53523411Y-176884010D01*
X53253158Y-176772068D01*
X52966260Y-176715000D01*
X52673740Y-176715000D01*
X52386842Y-176772068D01*
X52116589Y-176884010D01*
X51873368Y-177046525D01*
X51666525Y-177253368D01*
X51550000Y-177427760D01*
X51433475Y-177253368D01*
X51226632Y-177046525D01*
X50983411Y-176884010D01*
X50713158Y-176772068D01*
X50426260Y-176715000D01*
X50133740Y-176715000D01*
X49846842Y-176772068D01*
X49576589Y-176884010D01*
X49333368Y-177046525D01*
X49126525Y-177253368D01*
X49010000Y-177427760D01*
X48893475Y-177253368D01*
X48875000Y-177234893D01*
X48875000Y-176250132D01*
X49238132Y-175887000D01*
X75128249Y-175887000D01*
X75184000Y-175892491D01*
X75239751Y-175887000D01*
X75239752Y-175887000D01*
X75406499Y-175870577D01*
X75620447Y-175805676D01*
X75817623Y-175700284D01*
X75990449Y-175558449D01*
X76025996Y-175515135D01*
X77902941Y-173638191D01*
X77946249Y-173602649D01*
X78088084Y-173429823D01*
X78193476Y-173232647D01*
X78258377Y-173018699D01*
X78274800Y-172851952D01*
X78280291Y-172796200D01*
X78274800Y-172740448D01*
X78274800Y-169912217D01*
X78380506Y-169783414D01*
X78430757Y-169689400D01*
X83883269Y-169689400D01*
X84566328Y-170372460D01*
X84566328Y-171005400D01*
X84578588Y-171129882D01*
X84614898Y-171249580D01*
X84673863Y-171359894D01*
X84753215Y-171456585D01*
X84849906Y-171535937D01*
X84960220Y-171594902D01*
X85079918Y-171631212D01*
X85204400Y-171643472D01*
X86804400Y-171643472D01*
X86928882Y-171631212D01*
X87048580Y-171594902D01*
X87158894Y-171535937D01*
X87255585Y-171456585D01*
X87334937Y-171359894D01*
X87393902Y-171249580D01*
X87409517Y-171198102D01*
X87691303Y-171198102D01*
X87762886Y-171442071D01*
X88018396Y-171562971D01*
X88292584Y-171631700D01*
X88574912Y-171645617D01*
X88854530Y-171604187D01*
X89120692Y-171509003D01*
X89245914Y-171442071D01*
X89317497Y-171198102D01*
X88504400Y-170385005D01*
X87691303Y-171198102D01*
X87409517Y-171198102D01*
X87430212Y-171129882D01*
X87442472Y-171005400D01*
X87442472Y-170998185D01*
X87511698Y-171018497D01*
X88324795Y-170205400D01*
X88684005Y-170205400D01*
X89497102Y-171018497D01*
X89741071Y-170946914D01*
X89861971Y-170691404D01*
X89930700Y-170417216D01*
X89944617Y-170134888D01*
X89903187Y-169855270D01*
X89808003Y-169589108D01*
X89741071Y-169463886D01*
X89497102Y-169392303D01*
X88684005Y-170205400D01*
X88324795Y-170205400D01*
X87511698Y-169392303D01*
X87442472Y-169412615D01*
X87442472Y-169405400D01*
X87430212Y-169280918D01*
X87409518Y-169212698D01*
X87691303Y-169212698D01*
X88504400Y-170025795D01*
X89317497Y-169212698D01*
X89245914Y-168968729D01*
X88990404Y-168847829D01*
X88716216Y-168779100D01*
X88433888Y-168765183D01*
X88154270Y-168806613D01*
X87888108Y-168901797D01*
X87762886Y-168968729D01*
X87691303Y-169212698D01*
X87409518Y-169212698D01*
X87393902Y-169161220D01*
X87334937Y-169050906D01*
X87255585Y-168954215D01*
X87158894Y-168874863D01*
X87048580Y-168815898D01*
X86928882Y-168779588D01*
X86804400Y-168767328D01*
X86171460Y-168767328D01*
X85195395Y-167791264D01*
X85159849Y-167747951D01*
X84987023Y-167606116D01*
X84789847Y-167500724D01*
X84575899Y-167435823D01*
X84409152Y-167419400D01*
X84409151Y-167419400D01*
X84353400Y-167413909D01*
X84297649Y-167419400D01*
X78430757Y-167419400D01*
X78380506Y-167325386D01*
X78194934Y-167099266D01*
X77968813Y-166913694D01*
X77710833Y-166775801D01*
X77430910Y-166690887D01*
X77371139Y-166685000D01*
X115315000Y-166685000D01*
X115315001Y-179315000D01*
%TA.AperFunction,Conductor*%
D18*
G36*
X115315001Y-179315000D02*
G01*
X101905107Y-179315000D01*
X102073475Y-179146632D01*
X102235990Y-178903411D01*
X102347932Y-178633158D01*
X102405000Y-178346260D01*
X102405000Y-178320132D01*
X102958533Y-177766600D01*
X103759093Y-177766600D01*
X103777568Y-177785075D01*
X104020789Y-177947590D01*
X104291042Y-178059532D01*
X104577940Y-178116600D01*
X104870460Y-178116600D01*
X105157358Y-178059532D01*
X105427611Y-177947590D01*
X105670832Y-177785075D01*
X105877675Y-177578232D01*
X106040190Y-177335011D01*
X106152132Y-177064758D01*
X106209200Y-176777860D01*
X106209200Y-176485340D01*
X106152132Y-176198442D01*
X106040190Y-175928189D01*
X105877675Y-175684968D01*
X105670832Y-175478125D01*
X105496440Y-175361600D01*
X105670832Y-175245075D01*
X105877675Y-175038232D01*
X106040190Y-174795011D01*
X106152132Y-174524758D01*
X106209200Y-174237860D01*
X106209200Y-173945340D01*
X106152132Y-173658442D01*
X106040190Y-173388189D01*
X105877675Y-173144968D01*
X105670832Y-172938125D01*
X105496440Y-172821600D01*
X105670832Y-172705075D01*
X105877675Y-172498232D01*
X106040190Y-172255011D01*
X106152132Y-171984758D01*
X106209200Y-171697860D01*
X106209200Y-171405340D01*
X106152132Y-171118442D01*
X106040190Y-170848189D01*
X105877675Y-170604968D01*
X105745820Y-170473113D01*
X105818380Y-170451102D01*
X105928694Y-170392137D01*
X106025385Y-170312785D01*
X106104737Y-170216094D01*
X106163702Y-170105780D01*
X106200012Y-169986082D01*
X106212272Y-169861600D01*
X106212272Y-168161600D01*
X106200012Y-168037118D01*
X106163702Y-167917420D01*
X106104737Y-167807106D01*
X106025385Y-167710415D01*
X105928694Y-167631063D01*
X105818380Y-167572098D01*
X105698682Y-167535788D01*
X105574200Y-167523528D01*
X103874200Y-167523528D01*
X103749718Y-167535788D01*
X103630020Y-167572098D01*
X103519706Y-167631063D01*
X103423015Y-167710415D01*
X103343663Y-167807106D01*
X103306517Y-167876600D01*
X95204141Y-167876600D01*
X95148399Y-167871110D01*
X95092657Y-167876600D01*
X95092648Y-167876600D01*
X94925901Y-167893023D01*
X94711953Y-167957924D01*
X94514777Y-168063316D01*
X94341951Y-168205151D01*
X94306409Y-168248460D01*
X92536865Y-170018004D01*
X92493551Y-170053551D01*
X92351716Y-170226377D01*
X92262173Y-170393902D01*
X92246324Y-170423554D01*
X92181423Y-170637502D01*
X92159509Y-170860000D01*
X92165000Y-170915752D01*
X92165001Y-176782317D01*
X92095506Y-176819463D01*
X91998815Y-176898815D01*
X91919463Y-176995506D01*
X91860498Y-177105820D01*
X91824188Y-177225518D01*
X91811928Y-177350000D01*
X91811928Y-179050000D01*
X91824188Y-179174482D01*
X91860498Y-179294180D01*
X91871627Y-179315000D01*
X53805107Y-179315000D01*
X53973475Y-179146632D01*
X54135990Y-178903411D01*
X54247932Y-178633158D01*
X54305000Y-178346260D01*
X54305000Y-178053740D01*
X54247932Y-177766842D01*
X54135990Y-177496589D01*
X53973475Y-177253368D01*
X53766632Y-177046525D01*
X53523411Y-176884010D01*
X53253158Y-176772068D01*
X52966260Y-176715000D01*
X52673740Y-176715000D01*
X52386842Y-176772068D01*
X52116589Y-176884010D01*
X51873368Y-177046525D01*
X51666525Y-177253368D01*
X51550000Y-177427760D01*
X51433475Y-177253368D01*
X51226632Y-177046525D01*
X50983411Y-176884010D01*
X50713158Y-176772068D01*
X50426260Y-176715000D01*
X50133740Y-176715000D01*
X49846842Y-176772068D01*
X49576589Y-176884010D01*
X49333368Y-177046525D01*
X49126525Y-177253368D01*
X49010000Y-177427760D01*
X48893475Y-177253368D01*
X48875000Y-177234893D01*
X48875000Y-176250132D01*
X49238132Y-175887000D01*
X75128249Y-175887000D01*
X75184000Y-175892491D01*
X75239751Y-175887000D01*
X75239752Y-175887000D01*
X75406499Y-175870577D01*
X75620447Y-175805676D01*
X75817623Y-175700284D01*
X75990449Y-175558449D01*
X76025996Y-175515135D01*
X77902941Y-173638191D01*
X77946249Y-173602649D01*
X78088084Y-173429823D01*
X78193476Y-173232647D01*
X78258377Y-173018699D01*
X78274800Y-172851952D01*
X78280291Y-172796200D01*
X78274800Y-172740448D01*
X78274800Y-169912217D01*
X78380506Y-169783414D01*
X78430757Y-169689400D01*
X83883269Y-169689400D01*
X84566328Y-170372460D01*
X84566328Y-171005400D01*
X84578588Y-171129882D01*
X84614898Y-171249580D01*
X84673863Y-171359894D01*
X84753215Y-171456585D01*
X84849906Y-171535937D01*
X84960220Y-171594902D01*
X85079918Y-171631212D01*
X85204400Y-171643472D01*
X86804400Y-171643472D01*
X86928882Y-171631212D01*
X87048580Y-171594902D01*
X87158894Y-171535937D01*
X87255585Y-171456585D01*
X87334937Y-171359894D01*
X87393902Y-171249580D01*
X87409517Y-171198102D01*
X87691303Y-171198102D01*
X87762886Y-171442071D01*
X88018396Y-171562971D01*
X88292584Y-171631700D01*
X88574912Y-171645617D01*
X88854530Y-171604187D01*
X89120692Y-171509003D01*
X89245914Y-171442071D01*
X89317497Y-171198102D01*
X88504400Y-170385005D01*
X87691303Y-171198102D01*
X87409517Y-171198102D01*
X87430212Y-171129882D01*
X87442472Y-171005400D01*
X87442472Y-170998185D01*
X87511698Y-171018497D01*
X88324795Y-170205400D01*
X88684005Y-170205400D01*
X89497102Y-171018497D01*
X89741071Y-170946914D01*
X89861971Y-170691404D01*
X89930700Y-170417216D01*
X89944617Y-170134888D01*
X89903187Y-169855270D01*
X89808003Y-169589108D01*
X89741071Y-169463886D01*
X89497102Y-169392303D01*
X88684005Y-170205400D01*
X88324795Y-170205400D01*
X87511698Y-169392303D01*
X87442472Y-169412615D01*
X87442472Y-169405400D01*
X87430212Y-169280918D01*
X87409518Y-169212698D01*
X87691303Y-169212698D01*
X88504400Y-170025795D01*
X89317497Y-169212698D01*
X89245914Y-168968729D01*
X88990404Y-168847829D01*
X88716216Y-168779100D01*
X88433888Y-168765183D01*
X88154270Y-168806613D01*
X87888108Y-168901797D01*
X87762886Y-168968729D01*
X87691303Y-169212698D01*
X87409518Y-169212698D01*
X87393902Y-169161220D01*
X87334937Y-169050906D01*
X87255585Y-168954215D01*
X87158894Y-168874863D01*
X87048580Y-168815898D01*
X86928882Y-168779588D01*
X86804400Y-168767328D01*
X86171460Y-168767328D01*
X85195395Y-167791264D01*
X85159849Y-167747951D01*
X84987023Y-167606116D01*
X84789847Y-167500724D01*
X84575899Y-167435823D01*
X84409152Y-167419400D01*
X84409151Y-167419400D01*
X84353400Y-167413909D01*
X84297649Y-167419400D01*
X78430757Y-167419400D01*
X78380506Y-167325386D01*
X78194934Y-167099266D01*
X77968813Y-166913694D01*
X77710833Y-166775801D01*
X77430910Y-166690887D01*
X77371139Y-166685000D01*
X115315000Y-166685000D01*
X115315001Y-179315000D01*
G37*
%TD.AperFunction*%
%TD*%
D17*
%TO.N,GND*%
X58977664Y-167699705D02*
X58934351Y-167735251D01*
X58792516Y-167908077D01*
X58699847Y-168081451D01*
X58687153Y-168105200D01*
X42367107Y-168105200D01*
X42348632Y-168086725D01*
X42105411Y-167924210D01*
X41835158Y-167812268D01*
X41548260Y-167755200D01*
X41255740Y-167755200D01*
X40968842Y-167812268D01*
X40698589Y-167924210D01*
X40455368Y-168086725D01*
X40248525Y-168293568D01*
X40086010Y-168536789D01*
X39974068Y-168807042D01*
X39917000Y-169093940D01*
X39917000Y-169386460D01*
X39974068Y-169673358D01*
X40086010Y-169943611D01*
X40248525Y-170186832D01*
X40455368Y-170393675D01*
X40629760Y-170510200D01*
X40455368Y-170626725D01*
X40248525Y-170833568D01*
X40086010Y-171076789D01*
X39974068Y-171347042D01*
X39917000Y-171633940D01*
X39917000Y-171926460D01*
X39974068Y-172213358D01*
X40086010Y-172483611D01*
X40248525Y-172726832D01*
X40455368Y-172933675D01*
X40629760Y-173050200D01*
X40455368Y-173166725D01*
X40248525Y-173373568D01*
X40086010Y-173616789D01*
X39974068Y-173887042D01*
X39917000Y-174173940D01*
X39917000Y-174466460D01*
X39974068Y-174753358D01*
X40086010Y-175023611D01*
X40248525Y-175266832D01*
X40380380Y-175398687D01*
X40307820Y-175420698D01*
X40197506Y-175479663D01*
X40100815Y-175559015D01*
X40021463Y-175655706D01*
X39962498Y-175766020D01*
X39926188Y-175885718D01*
X39913928Y-176010200D01*
X39917000Y-176574450D01*
X40075750Y-176733200D01*
X41275000Y-176733200D01*
X41275000Y-176713200D01*
X41529000Y-176713200D01*
X41529000Y-176733200D01*
X42728250Y-176733200D01*
X42887000Y-176574450D01*
X42890072Y-176010200D01*
X42877812Y-175885718D01*
X42841502Y-175766020D01*
X42782537Y-175655706D01*
X42703185Y-175559015D01*
X42606494Y-175479663D01*
X42496180Y-175420698D01*
X42423620Y-175398687D01*
X42555475Y-175266832D01*
X42717990Y-175023611D01*
X42829932Y-174753358D01*
X42887000Y-174466460D01*
X42887000Y-174173940D01*
X42829932Y-173887042D01*
X42717990Y-173616789D01*
X42555475Y-173373568D01*
X42348632Y-173166725D01*
X42174240Y-173050200D01*
X42348632Y-172933675D01*
X42555475Y-172726832D01*
X42717990Y-172483611D01*
X42829932Y-172213358D01*
X42887000Y-171926460D01*
X42887000Y-171633940D01*
X42829932Y-171347042D01*
X42717990Y-171076789D01*
X42555475Y-170833568D01*
X42348632Y-170626725D01*
X42174240Y-170510200D01*
X42348632Y-170393675D01*
X42367107Y-170375200D01*
X58302728Y-170375200D01*
X58302728Y-170675200D01*
X58314988Y-170799682D01*
X58351298Y-170919380D01*
X58410263Y-171029694D01*
X58489615Y-171126385D01*
X58586306Y-171205737D01*
X58696620Y-171264702D01*
X58816318Y-171301012D01*
X58940800Y-171313272D01*
X60540800Y-171313272D01*
X60665282Y-171301012D01*
X60784980Y-171264702D01*
X60895294Y-171205737D01*
X60991985Y-171126385D01*
X61071337Y-171029694D01*
X61130302Y-170919380D01*
X61145917Y-170867902D01*
X61427703Y-170867902D01*
X61499286Y-171111871D01*
X61754796Y-171232771D01*
X62028984Y-171301500D01*
X62311312Y-171315417D01*
X62590930Y-171273987D01*
X62857092Y-171178803D01*
X62982314Y-171111871D01*
X63053897Y-170867902D01*
X62240800Y-170054805D01*
X61427703Y-170867902D01*
X61145917Y-170867902D01*
X61166612Y-170799682D01*
X61178872Y-170675200D01*
X61178872Y-170667985D01*
X61248098Y-170688297D01*
X62061195Y-169875200D01*
X62420405Y-169875200D01*
X63233502Y-170688297D01*
X63477471Y-170616714D01*
X63598371Y-170361204D01*
X63667100Y-170087016D01*
X63681017Y-169804688D01*
X63639587Y-169525070D01*
X63544403Y-169258908D01*
X63477471Y-169133686D01*
X63233502Y-169062103D01*
X62420405Y-169875200D01*
X62061195Y-169875200D01*
X61248098Y-169062103D01*
X61178872Y-169082415D01*
X61178872Y-169075200D01*
X61166612Y-168950718D01*
X61130302Y-168831020D01*
X61104634Y-168782998D01*
X61341232Y-168546400D01*
X61694966Y-168546400D01*
X61624508Y-168571597D01*
X61499286Y-168638529D01*
X61427703Y-168882498D01*
X62240800Y-169695595D01*
X63053897Y-168882498D01*
X62982314Y-168638529D01*
X62787609Y-168546400D01*
X64363369Y-168546400D01*
X65134508Y-169317540D01*
X65170051Y-169360849D01*
X65342877Y-169502684D01*
X65472142Y-169571777D01*
X65540053Y-169608076D01*
X65754001Y-169672977D01*
X65976499Y-169694891D01*
X66032251Y-169689400D01*
X70571728Y-169689400D01*
X70571728Y-169804400D01*
X70583988Y-169928882D01*
X70620298Y-170048580D01*
X70679263Y-170158894D01*
X70758615Y-170255585D01*
X70855306Y-170334937D01*
X70965620Y-170393902D01*
X71085318Y-170430212D01*
X71209800Y-170442472D01*
X72909800Y-170442472D01*
X73034282Y-170430212D01*
X73153980Y-170393902D01*
X73264294Y-170334937D01*
X73360985Y-170255585D01*
X73440337Y-170158894D01*
X73499302Y-170048580D01*
X73522025Y-169973672D01*
X73639548Y-170094257D01*
X73880374Y-170259691D01*
X74148847Y-170374963D01*
X74242910Y-170395876D01*
X74472800Y-170274555D01*
X74472800Y-168681400D01*
X74452800Y-168681400D01*
X74452800Y-168427400D01*
X74472800Y-168427400D01*
X74472800Y-168407400D01*
X74726800Y-168407400D01*
X74726800Y-168427400D01*
X74746800Y-168427400D01*
X74746800Y-168681400D01*
X74726800Y-168681400D01*
X74726800Y-170274555D01*
X74956690Y-170395876D01*
X75050753Y-170374963D01*
X75319226Y-170259691D01*
X75560052Y-170094257D01*
X75763976Y-169885019D01*
X75867905Y-169725063D01*
X75899094Y-169783414D01*
X76004800Y-169912217D01*
X76004801Y-172326067D01*
X74713869Y-173617000D01*
X48823752Y-173617000D01*
X48768000Y-173611509D01*
X48545501Y-173633423D01*
X48331553Y-173698324D01*
X48134377Y-173803716D01*
X48004856Y-173910011D01*
X48004854Y-173910013D01*
X47961551Y-173945551D01*
X47926013Y-173988854D01*
X46976864Y-174938005D01*
X46933551Y-174973551D01*
X46791716Y-175146377D01*
X46701260Y-175315610D01*
X46686324Y-175343554D01*
X46621423Y-175557502D01*
X46599509Y-175780000D01*
X46605000Y-175835752D01*
X46605001Y-177041273D01*
X46580537Y-176995506D01*
X46501185Y-176898815D01*
X46404494Y-176819463D01*
X46294180Y-176760498D01*
X46174482Y-176724188D01*
X46050000Y-176711928D01*
X45485750Y-176715000D01*
X45327000Y-176873750D01*
X45327000Y-178073000D01*
X45347000Y-178073000D01*
X45347000Y-178327000D01*
X45327000Y-178327000D01*
X45327000Y-178347000D01*
X45073000Y-178347000D01*
X45073000Y-178327000D01*
X43873750Y-178327000D01*
X43715000Y-178485750D01*
X43711928Y-179050000D01*
X43724188Y-179174482D01*
X43760498Y-179294180D01*
X43771627Y-179315000D01*
X30685000Y-179315000D01*
X30685000Y-177710200D01*
X39913928Y-177710200D01*
X39926188Y-177834682D01*
X39962498Y-177954380D01*
X40021463Y-178064694D01*
X40100815Y-178161385D01*
X40197506Y-178240737D01*
X40307820Y-178299702D01*
X40427518Y-178336012D01*
X40552000Y-178348272D01*
X41116250Y-178345200D01*
X41275000Y-178186450D01*
X41275000Y-176987200D01*
X41529000Y-176987200D01*
X41529000Y-178186450D01*
X41687750Y-178345200D01*
X42252000Y-178348272D01*
X42376482Y-178336012D01*
X42496180Y-178299702D01*
X42606494Y-178240737D01*
X42703185Y-178161385D01*
X42782537Y-178064694D01*
X42841502Y-177954380D01*
X42877812Y-177834682D01*
X42890072Y-177710200D01*
X42888111Y-177350000D01*
X43711928Y-177350000D01*
X43715000Y-177914250D01*
X43873750Y-178073000D01*
X45073000Y-178073000D01*
X45073000Y-176873750D01*
X44914250Y-176715000D01*
X44350000Y-176711928D01*
X44225518Y-176724188D01*
X44105820Y-176760498D01*
X43995506Y-176819463D01*
X43898815Y-176898815D01*
X43819463Y-176995506D01*
X43760498Y-177105820D01*
X43724188Y-177225518D01*
X43711928Y-177350000D01*
X42888111Y-177350000D01*
X42887000Y-177145950D01*
X42728250Y-176987200D01*
X41529000Y-176987200D01*
X41275000Y-176987200D01*
X40075750Y-176987200D01*
X39917000Y-177145950D01*
X39913928Y-177710200D01*
X30685000Y-177710200D01*
X30685000Y-166685000D01*
X59992367Y-166685000D01*
X58977664Y-167699705D01*
%TA.AperFunction,Conductor*%
D18*
G36*
X58977664Y-167699705D02*
G01*
X58934351Y-167735251D01*
X58792516Y-167908077D01*
X58699847Y-168081451D01*
X58687153Y-168105200D01*
X42367107Y-168105200D01*
X42348632Y-168086725D01*
X42105411Y-167924210D01*
X41835158Y-167812268D01*
X41548260Y-167755200D01*
X41255740Y-167755200D01*
X40968842Y-167812268D01*
X40698589Y-167924210D01*
X40455368Y-168086725D01*
X40248525Y-168293568D01*
X40086010Y-168536789D01*
X39974068Y-168807042D01*
X39917000Y-169093940D01*
X39917000Y-169386460D01*
X39974068Y-169673358D01*
X40086010Y-169943611D01*
X40248525Y-170186832D01*
X40455368Y-170393675D01*
X40629760Y-170510200D01*
X40455368Y-170626725D01*
X40248525Y-170833568D01*
X40086010Y-171076789D01*
X39974068Y-171347042D01*
X39917000Y-171633940D01*
X39917000Y-171926460D01*
X39974068Y-172213358D01*
X40086010Y-172483611D01*
X40248525Y-172726832D01*
X40455368Y-172933675D01*
X40629760Y-173050200D01*
X40455368Y-173166725D01*
X40248525Y-173373568D01*
X40086010Y-173616789D01*
X39974068Y-173887042D01*
X39917000Y-174173940D01*
X39917000Y-174466460D01*
X39974068Y-174753358D01*
X40086010Y-175023611D01*
X40248525Y-175266832D01*
X40380380Y-175398687D01*
X40307820Y-175420698D01*
X40197506Y-175479663D01*
X40100815Y-175559015D01*
X40021463Y-175655706D01*
X39962498Y-175766020D01*
X39926188Y-175885718D01*
X39913928Y-176010200D01*
X39917000Y-176574450D01*
X40075750Y-176733200D01*
X41275000Y-176733200D01*
X41275000Y-176713200D01*
X41529000Y-176713200D01*
X41529000Y-176733200D01*
X42728250Y-176733200D01*
X42887000Y-176574450D01*
X42890072Y-176010200D01*
X42877812Y-175885718D01*
X42841502Y-175766020D01*
X42782537Y-175655706D01*
X42703185Y-175559015D01*
X42606494Y-175479663D01*
X42496180Y-175420698D01*
X42423620Y-175398687D01*
X42555475Y-175266832D01*
X42717990Y-175023611D01*
X42829932Y-174753358D01*
X42887000Y-174466460D01*
X42887000Y-174173940D01*
X42829932Y-173887042D01*
X42717990Y-173616789D01*
X42555475Y-173373568D01*
X42348632Y-173166725D01*
X42174240Y-173050200D01*
X42348632Y-172933675D01*
X42555475Y-172726832D01*
X42717990Y-172483611D01*
X42829932Y-172213358D01*
X42887000Y-171926460D01*
X42887000Y-171633940D01*
X42829932Y-171347042D01*
X42717990Y-171076789D01*
X42555475Y-170833568D01*
X42348632Y-170626725D01*
X42174240Y-170510200D01*
X42348632Y-170393675D01*
X42367107Y-170375200D01*
X58302728Y-170375200D01*
X58302728Y-170675200D01*
X58314988Y-170799682D01*
X58351298Y-170919380D01*
X58410263Y-171029694D01*
X58489615Y-171126385D01*
X58586306Y-171205737D01*
X58696620Y-171264702D01*
X58816318Y-171301012D01*
X58940800Y-171313272D01*
X60540800Y-171313272D01*
X60665282Y-171301012D01*
X60784980Y-171264702D01*
X60895294Y-171205737D01*
X60991985Y-171126385D01*
X61071337Y-171029694D01*
X61130302Y-170919380D01*
X61145917Y-170867902D01*
X61427703Y-170867902D01*
X61499286Y-171111871D01*
X61754796Y-171232771D01*
X62028984Y-171301500D01*
X62311312Y-171315417D01*
X62590930Y-171273987D01*
X62857092Y-171178803D01*
X62982314Y-171111871D01*
X63053897Y-170867902D01*
X62240800Y-170054805D01*
X61427703Y-170867902D01*
X61145917Y-170867902D01*
X61166612Y-170799682D01*
X61178872Y-170675200D01*
X61178872Y-170667985D01*
X61248098Y-170688297D01*
X62061195Y-169875200D01*
X62420405Y-169875200D01*
X63233502Y-170688297D01*
X63477471Y-170616714D01*
X63598371Y-170361204D01*
X63667100Y-170087016D01*
X63681017Y-169804688D01*
X63639587Y-169525070D01*
X63544403Y-169258908D01*
X63477471Y-169133686D01*
X63233502Y-169062103D01*
X62420405Y-169875200D01*
X62061195Y-169875200D01*
X61248098Y-169062103D01*
X61178872Y-169082415D01*
X61178872Y-169075200D01*
X61166612Y-168950718D01*
X61130302Y-168831020D01*
X61104634Y-168782998D01*
X61341232Y-168546400D01*
X61694966Y-168546400D01*
X61624508Y-168571597D01*
X61499286Y-168638529D01*
X61427703Y-168882498D01*
X62240800Y-169695595D01*
X63053897Y-168882498D01*
X62982314Y-168638529D01*
X62787609Y-168546400D01*
X64363369Y-168546400D01*
X65134508Y-169317540D01*
X65170051Y-169360849D01*
X65342877Y-169502684D01*
X65472142Y-169571777D01*
X65540053Y-169608076D01*
X65754001Y-169672977D01*
X65976499Y-169694891D01*
X66032251Y-169689400D01*
X70571728Y-169689400D01*
X70571728Y-169804400D01*
X70583988Y-169928882D01*
X70620298Y-170048580D01*
X70679263Y-170158894D01*
X70758615Y-170255585D01*
X70855306Y-170334937D01*
X70965620Y-170393902D01*
X71085318Y-170430212D01*
X71209800Y-170442472D01*
X72909800Y-170442472D01*
X73034282Y-170430212D01*
X73153980Y-170393902D01*
X73264294Y-170334937D01*
X73360985Y-170255585D01*
X73440337Y-170158894D01*
X73499302Y-170048580D01*
X73522025Y-169973672D01*
X73639548Y-170094257D01*
X73880374Y-170259691D01*
X74148847Y-170374963D01*
X74242910Y-170395876D01*
X74472800Y-170274555D01*
X74472800Y-168681400D01*
X74452800Y-168681400D01*
X74452800Y-168427400D01*
X74472800Y-168427400D01*
X74472800Y-168407400D01*
X74726800Y-168407400D01*
X74726800Y-168427400D01*
X74746800Y-168427400D01*
X74746800Y-168681400D01*
X74726800Y-168681400D01*
X74726800Y-170274555D01*
X74956690Y-170395876D01*
X75050753Y-170374963D01*
X75319226Y-170259691D01*
X75560052Y-170094257D01*
X75763976Y-169885019D01*
X75867905Y-169725063D01*
X75899094Y-169783414D01*
X76004800Y-169912217D01*
X76004801Y-172326067D01*
X74713869Y-173617000D01*
X48823752Y-173617000D01*
X48768000Y-173611509D01*
X48545501Y-173633423D01*
X48331553Y-173698324D01*
X48134377Y-173803716D01*
X48004856Y-173910011D01*
X48004854Y-173910013D01*
X47961551Y-173945551D01*
X47926013Y-173988854D01*
X46976864Y-174938005D01*
X46933551Y-174973551D01*
X46791716Y-175146377D01*
X46701260Y-175315610D01*
X46686324Y-175343554D01*
X46621423Y-175557502D01*
X46599509Y-175780000D01*
X46605000Y-175835752D01*
X46605001Y-177041273D01*
X46580537Y-176995506D01*
X46501185Y-176898815D01*
X46404494Y-176819463D01*
X46294180Y-176760498D01*
X46174482Y-176724188D01*
X46050000Y-176711928D01*
X45485750Y-176715000D01*
X45327000Y-176873750D01*
X45327000Y-178073000D01*
X45347000Y-178073000D01*
X45347000Y-178327000D01*
X45327000Y-178327000D01*
X45327000Y-178347000D01*
X45073000Y-178347000D01*
X45073000Y-178327000D01*
X43873750Y-178327000D01*
X43715000Y-178485750D01*
X43711928Y-179050000D01*
X43724188Y-179174482D01*
X43760498Y-179294180D01*
X43771627Y-179315000D01*
X30685000Y-179315000D01*
X30685000Y-177710200D01*
X39913928Y-177710200D01*
X39926188Y-177834682D01*
X39962498Y-177954380D01*
X40021463Y-178064694D01*
X40100815Y-178161385D01*
X40197506Y-178240737D01*
X40307820Y-178299702D01*
X40427518Y-178336012D01*
X40552000Y-178348272D01*
X41116250Y-178345200D01*
X41275000Y-178186450D01*
X41275000Y-176987200D01*
X41529000Y-176987200D01*
X41529000Y-178186450D01*
X41687750Y-178345200D01*
X42252000Y-178348272D01*
X42376482Y-178336012D01*
X42496180Y-178299702D01*
X42606494Y-178240737D01*
X42703185Y-178161385D01*
X42782537Y-178064694D01*
X42841502Y-177954380D01*
X42877812Y-177834682D01*
X42890072Y-177710200D01*
X42888111Y-177350000D01*
X43711928Y-177350000D01*
X43715000Y-177914250D01*
X43873750Y-178073000D01*
X45073000Y-178073000D01*
X45073000Y-176873750D01*
X44914250Y-176715000D01*
X44350000Y-176711928D01*
X44225518Y-176724188D01*
X44105820Y-176760498D01*
X43995506Y-176819463D01*
X43898815Y-176898815D01*
X43819463Y-176995506D01*
X43760498Y-177105820D01*
X43724188Y-177225518D01*
X43711928Y-177350000D01*
X42888111Y-177350000D01*
X42887000Y-177145950D01*
X42728250Y-176987200D01*
X41529000Y-176987200D01*
X41275000Y-176987200D01*
X40075750Y-176987200D01*
X39917000Y-177145950D01*
X39913928Y-177710200D01*
X30685000Y-177710200D01*
X30685000Y-166685000D01*
X59992367Y-166685000D01*
X58977664Y-167699705D01*
G37*
%TD.AperFunction*%
D17*
X115315001Y-179315000D02*
X101905107Y-179315000D01*
X102073475Y-179146632D01*
X102235990Y-178903411D01*
X102347932Y-178633158D01*
X102405000Y-178346260D01*
X102405000Y-178320132D01*
X102958533Y-177766600D01*
X103759093Y-177766600D01*
X103777568Y-177785075D01*
X104020789Y-177947590D01*
X104291042Y-178059532D01*
X104577940Y-178116600D01*
X104870460Y-178116600D01*
X105157358Y-178059532D01*
X105427611Y-177947590D01*
X105670832Y-177785075D01*
X105877675Y-177578232D01*
X106040190Y-177335011D01*
X106152132Y-177064758D01*
X106209200Y-176777860D01*
X106209200Y-176485340D01*
X106152132Y-176198442D01*
X106040190Y-175928189D01*
X105877675Y-175684968D01*
X105670832Y-175478125D01*
X105496440Y-175361600D01*
X105670832Y-175245075D01*
X105877675Y-175038232D01*
X106040190Y-174795011D01*
X106152132Y-174524758D01*
X106209200Y-174237860D01*
X106209200Y-173945340D01*
X106152132Y-173658442D01*
X106040190Y-173388189D01*
X105877675Y-173144968D01*
X105670832Y-172938125D01*
X105496440Y-172821600D01*
X105670832Y-172705075D01*
X105877675Y-172498232D01*
X106040190Y-172255011D01*
X106152132Y-171984758D01*
X106209200Y-171697860D01*
X106209200Y-171405340D01*
X106152132Y-171118442D01*
X106040190Y-170848189D01*
X105877675Y-170604968D01*
X105745820Y-170473113D01*
X105818380Y-170451102D01*
X105928694Y-170392137D01*
X106025385Y-170312785D01*
X106104737Y-170216094D01*
X106163702Y-170105780D01*
X106200012Y-169986082D01*
X106212272Y-169861600D01*
X106212272Y-168161600D01*
X106200012Y-168037118D01*
X106163702Y-167917420D01*
X106104737Y-167807106D01*
X106025385Y-167710415D01*
X105928694Y-167631063D01*
X105818380Y-167572098D01*
X105698682Y-167535788D01*
X105574200Y-167523528D01*
X103874200Y-167523528D01*
X103749718Y-167535788D01*
X103630020Y-167572098D01*
X103519706Y-167631063D01*
X103423015Y-167710415D01*
X103343663Y-167807106D01*
X103306517Y-167876600D01*
X95204141Y-167876600D01*
X95148399Y-167871110D01*
X95092657Y-167876600D01*
X95092648Y-167876600D01*
X94925901Y-167893023D01*
X94711953Y-167957924D01*
X94514777Y-168063316D01*
X94341951Y-168205151D01*
X94306409Y-168248460D01*
X92536865Y-170018004D01*
X92493551Y-170053551D01*
X92351716Y-170226377D01*
X92262173Y-170393902D01*
X92246324Y-170423554D01*
X92181423Y-170637502D01*
X92159509Y-170860000D01*
X92165000Y-170915752D01*
X92165001Y-176782317D01*
X92095506Y-176819463D01*
X91998815Y-176898815D01*
X91919463Y-176995506D01*
X91860498Y-177105820D01*
X91824188Y-177225518D01*
X91811928Y-177350000D01*
X91811928Y-179050000D01*
X91824188Y-179174482D01*
X91860498Y-179294180D01*
X91871627Y-179315000D01*
X53805107Y-179315000D01*
X53973475Y-179146632D01*
X54135990Y-178903411D01*
X54247932Y-178633158D01*
X54305000Y-178346260D01*
X54305000Y-178053740D01*
X54247932Y-177766842D01*
X54135990Y-177496589D01*
X53973475Y-177253368D01*
X53766632Y-177046525D01*
X53523411Y-176884010D01*
X53253158Y-176772068D01*
X52966260Y-176715000D01*
X52673740Y-176715000D01*
X52386842Y-176772068D01*
X52116589Y-176884010D01*
X51873368Y-177046525D01*
X51666525Y-177253368D01*
X51550000Y-177427760D01*
X51433475Y-177253368D01*
X51226632Y-177046525D01*
X50983411Y-176884010D01*
X50713158Y-176772068D01*
X50426260Y-176715000D01*
X50133740Y-176715000D01*
X49846842Y-176772068D01*
X49576589Y-176884010D01*
X49333368Y-177046525D01*
X49126525Y-177253368D01*
X49010000Y-177427760D01*
X48893475Y-177253368D01*
X48875000Y-177234893D01*
X48875000Y-176250132D01*
X49238132Y-175887000D01*
X75128249Y-175887000D01*
X75184000Y-175892491D01*
X75239751Y-175887000D01*
X75239752Y-175887000D01*
X75406499Y-175870577D01*
X75620447Y-175805676D01*
X75817623Y-175700284D01*
X75990449Y-175558449D01*
X76025996Y-175515135D01*
X77902941Y-173638191D01*
X77946249Y-173602649D01*
X78088084Y-173429823D01*
X78193476Y-173232647D01*
X78258377Y-173018699D01*
X78274800Y-172851952D01*
X78280291Y-172796200D01*
X78274800Y-172740448D01*
X78274800Y-169912217D01*
X78380506Y-169783414D01*
X78430757Y-169689400D01*
X83883269Y-169689400D01*
X84566328Y-170372460D01*
X84566328Y-171005400D01*
X84578588Y-171129882D01*
X84614898Y-171249580D01*
X84673863Y-171359894D01*
X84753215Y-171456585D01*
X84849906Y-171535937D01*
X84960220Y-171594902D01*
X85079918Y-171631212D01*
X85204400Y-171643472D01*
X86804400Y-171643472D01*
X86928882Y-171631212D01*
X87048580Y-171594902D01*
X87158894Y-171535937D01*
X87255585Y-171456585D01*
X87334937Y-171359894D01*
X87393902Y-171249580D01*
X87409517Y-171198102D01*
X87691303Y-171198102D01*
X87762886Y-171442071D01*
X88018396Y-171562971D01*
X88292584Y-171631700D01*
X88574912Y-171645617D01*
X88854530Y-171604187D01*
X89120692Y-171509003D01*
X89245914Y-171442071D01*
X89317497Y-171198102D01*
X88504400Y-170385005D01*
X87691303Y-171198102D01*
X87409517Y-171198102D01*
X87430212Y-171129882D01*
X87442472Y-171005400D01*
X87442472Y-170998185D01*
X87511698Y-171018497D01*
X88324795Y-170205400D01*
X88684005Y-170205400D01*
X89497102Y-171018497D01*
X89741071Y-170946914D01*
X89861971Y-170691404D01*
X89930700Y-170417216D01*
X89944617Y-170134888D01*
X89903187Y-169855270D01*
X89808003Y-169589108D01*
X89741071Y-169463886D01*
X89497102Y-169392303D01*
X88684005Y-170205400D01*
X88324795Y-170205400D01*
X87511698Y-169392303D01*
X87442472Y-169412615D01*
X87442472Y-169405400D01*
X87430212Y-169280918D01*
X87409518Y-169212698D01*
X87691303Y-169212698D01*
X88504400Y-170025795D01*
X89317497Y-169212698D01*
X89245914Y-168968729D01*
X88990404Y-168847829D01*
X88716216Y-168779100D01*
X88433888Y-168765183D01*
X88154270Y-168806613D01*
X87888108Y-168901797D01*
X87762886Y-168968729D01*
X87691303Y-169212698D01*
X87409518Y-169212698D01*
X87393902Y-169161220D01*
X87334937Y-169050906D01*
X87255585Y-168954215D01*
X87158894Y-168874863D01*
X87048580Y-168815898D01*
X86928882Y-168779588D01*
X86804400Y-168767328D01*
X86171460Y-168767328D01*
X85195395Y-167791264D01*
X85159849Y-167747951D01*
X84987023Y-167606116D01*
X84789847Y-167500724D01*
X84575899Y-167435823D01*
X84409152Y-167419400D01*
X84409151Y-167419400D01*
X84353400Y-167413909D01*
X84297649Y-167419400D01*
X78430757Y-167419400D01*
X78380506Y-167325386D01*
X78194934Y-167099266D01*
X77968813Y-166913694D01*
X77710833Y-166775801D01*
X77430910Y-166690887D01*
X77371139Y-166685000D01*
X115315000Y-166685000D01*
X115315001Y-179315000D01*
%TA.AperFunction,Conductor*%
D18*
G36*
X115315001Y-179315000D02*
G01*
X101905107Y-179315000D01*
X102073475Y-179146632D01*
X102235990Y-178903411D01*
X102347932Y-178633158D01*
X102405000Y-178346260D01*
X102405000Y-178320132D01*
X102958533Y-177766600D01*
X103759093Y-177766600D01*
X103777568Y-177785075D01*
X104020789Y-177947590D01*
X104291042Y-178059532D01*
X104577940Y-178116600D01*
X104870460Y-178116600D01*
X105157358Y-178059532D01*
X105427611Y-177947590D01*
X105670832Y-177785075D01*
X105877675Y-177578232D01*
X106040190Y-177335011D01*
X106152132Y-177064758D01*
X106209200Y-176777860D01*
X106209200Y-176485340D01*
X106152132Y-176198442D01*
X106040190Y-175928189D01*
X105877675Y-175684968D01*
X105670832Y-175478125D01*
X105496440Y-175361600D01*
X105670832Y-175245075D01*
X105877675Y-175038232D01*
X106040190Y-174795011D01*
X106152132Y-174524758D01*
X106209200Y-174237860D01*
X106209200Y-173945340D01*
X106152132Y-173658442D01*
X106040190Y-173388189D01*
X105877675Y-173144968D01*
X105670832Y-172938125D01*
X105496440Y-172821600D01*
X105670832Y-172705075D01*
X105877675Y-172498232D01*
X106040190Y-172255011D01*
X106152132Y-171984758D01*
X106209200Y-171697860D01*
X106209200Y-171405340D01*
X106152132Y-171118442D01*
X106040190Y-170848189D01*
X105877675Y-170604968D01*
X105745820Y-170473113D01*
X105818380Y-170451102D01*
X105928694Y-170392137D01*
X106025385Y-170312785D01*
X106104737Y-170216094D01*
X106163702Y-170105780D01*
X106200012Y-169986082D01*
X106212272Y-169861600D01*
X106212272Y-168161600D01*
X106200012Y-168037118D01*
X106163702Y-167917420D01*
X106104737Y-167807106D01*
X106025385Y-167710415D01*
X105928694Y-167631063D01*
X105818380Y-167572098D01*
X105698682Y-167535788D01*
X105574200Y-167523528D01*
X103874200Y-167523528D01*
X103749718Y-167535788D01*
X103630020Y-167572098D01*
X103519706Y-167631063D01*
X103423015Y-167710415D01*
X103343663Y-167807106D01*
X103306517Y-167876600D01*
X95204141Y-167876600D01*
X95148399Y-167871110D01*
X95092657Y-167876600D01*
X95092648Y-167876600D01*
X94925901Y-167893023D01*
X94711953Y-167957924D01*
X94514777Y-168063316D01*
X94341951Y-168205151D01*
X94306409Y-168248460D01*
X92536865Y-170018004D01*
X92493551Y-170053551D01*
X92351716Y-170226377D01*
X92262173Y-170393902D01*
X92246324Y-170423554D01*
X92181423Y-170637502D01*
X92159509Y-170860000D01*
X92165000Y-170915752D01*
X92165001Y-176782317D01*
X92095506Y-176819463D01*
X91998815Y-176898815D01*
X91919463Y-176995506D01*
X91860498Y-177105820D01*
X91824188Y-177225518D01*
X91811928Y-177350000D01*
X91811928Y-179050000D01*
X91824188Y-179174482D01*
X91860498Y-179294180D01*
X91871627Y-179315000D01*
X53805107Y-179315000D01*
X53973475Y-179146632D01*
X54135990Y-178903411D01*
X54247932Y-178633158D01*
X54305000Y-178346260D01*
X54305000Y-178053740D01*
X54247932Y-177766842D01*
X54135990Y-177496589D01*
X53973475Y-177253368D01*
X53766632Y-177046525D01*
X53523411Y-176884010D01*
X53253158Y-176772068D01*
X52966260Y-176715000D01*
X52673740Y-176715000D01*
X52386842Y-176772068D01*
X52116589Y-176884010D01*
X51873368Y-177046525D01*
X51666525Y-177253368D01*
X51550000Y-177427760D01*
X51433475Y-177253368D01*
X51226632Y-177046525D01*
X50983411Y-176884010D01*
X50713158Y-176772068D01*
X50426260Y-176715000D01*
X50133740Y-176715000D01*
X49846842Y-176772068D01*
X49576589Y-176884010D01*
X49333368Y-177046525D01*
X49126525Y-177253368D01*
X49010000Y-177427760D01*
X48893475Y-177253368D01*
X48875000Y-177234893D01*
X48875000Y-176250132D01*
X49238132Y-175887000D01*
X75128249Y-175887000D01*
X75184000Y-175892491D01*
X75239751Y-175887000D01*
X75239752Y-175887000D01*
X75406499Y-175870577D01*
X75620447Y-175805676D01*
X75817623Y-175700284D01*
X75990449Y-175558449D01*
X76025996Y-175515135D01*
X77902941Y-173638191D01*
X77946249Y-173602649D01*
X78088084Y-173429823D01*
X78193476Y-173232647D01*
X78258377Y-173018699D01*
X78274800Y-172851952D01*
X78280291Y-172796200D01*
X78274800Y-172740448D01*
X78274800Y-169912217D01*
X78380506Y-169783414D01*
X78430757Y-169689400D01*
X83883269Y-169689400D01*
X84566328Y-170372460D01*
X84566328Y-171005400D01*
X84578588Y-171129882D01*
X84614898Y-171249580D01*
X84673863Y-171359894D01*
X84753215Y-171456585D01*
X84849906Y-171535937D01*
X84960220Y-171594902D01*
X85079918Y-171631212D01*
X85204400Y-171643472D01*
X86804400Y-171643472D01*
X86928882Y-171631212D01*
X87048580Y-171594902D01*
X87158894Y-171535937D01*
X87255585Y-171456585D01*
X87334937Y-171359894D01*
X87393902Y-171249580D01*
X87409517Y-171198102D01*
X87691303Y-171198102D01*
X87762886Y-171442071D01*
X88018396Y-171562971D01*
X88292584Y-171631700D01*
X88574912Y-171645617D01*
X88854530Y-171604187D01*
X89120692Y-171509003D01*
X89245914Y-171442071D01*
X89317497Y-171198102D01*
X88504400Y-170385005D01*
X87691303Y-171198102D01*
X87409517Y-171198102D01*
X87430212Y-171129882D01*
X87442472Y-171005400D01*
X87442472Y-170998185D01*
X87511698Y-171018497D01*
X88324795Y-170205400D01*
X88684005Y-170205400D01*
X89497102Y-171018497D01*
X89741071Y-170946914D01*
X89861971Y-170691404D01*
X89930700Y-170417216D01*
X89944617Y-170134888D01*
X89903187Y-169855270D01*
X89808003Y-169589108D01*
X89741071Y-169463886D01*
X89497102Y-169392303D01*
X88684005Y-170205400D01*
X88324795Y-170205400D01*
X87511698Y-169392303D01*
X87442472Y-169412615D01*
X87442472Y-169405400D01*
X87430212Y-169280918D01*
X87409518Y-169212698D01*
X87691303Y-169212698D01*
X88504400Y-170025795D01*
X89317497Y-169212698D01*
X89245914Y-168968729D01*
X88990404Y-168847829D01*
X88716216Y-168779100D01*
X88433888Y-168765183D01*
X88154270Y-168806613D01*
X87888108Y-168901797D01*
X87762886Y-168968729D01*
X87691303Y-169212698D01*
X87409518Y-169212698D01*
X87393902Y-169161220D01*
X87334937Y-169050906D01*
X87255585Y-168954215D01*
X87158894Y-168874863D01*
X87048580Y-168815898D01*
X86928882Y-168779588D01*
X86804400Y-168767328D01*
X86171460Y-168767328D01*
X85195395Y-167791264D01*
X85159849Y-167747951D01*
X84987023Y-167606116D01*
X84789847Y-167500724D01*
X84575899Y-167435823D01*
X84409152Y-167419400D01*
X84409151Y-167419400D01*
X84353400Y-167413909D01*
X84297649Y-167419400D01*
X78430757Y-167419400D01*
X78380506Y-167325386D01*
X78194934Y-167099266D01*
X77968813Y-166913694D01*
X77710833Y-166775801D01*
X77430910Y-166690887D01*
X77371139Y-166685000D01*
X115315000Y-166685000D01*
X115315001Y-179315000D01*
G37*
%TD.AperFunction*%
%TD*%
M02*
